# Max2Obj Version 4.0 Mar 10th, 2001
#
mtllib ./tris.mtl
g
# object beam to come ...
#
v  -116.496651 -104.049194 -128.000000
v  -116.496651 -109.249191 -128.000000
v  -107.916656 -109.249191 -128.000000
v  -107.916656 -119.649193 -128.000000
v  -116.496651 -119.649193 -128.000000
v  -116.496651 -124.849190 -128.000000
v  -93.616661 -124.849190 -128.000000
v  -93.616661 -119.649193 -128.000000
v  -102.196655 -119.649193 -128.000000
v  -102.196655 -109.249191 -128.000000
v  -93.616661 -109.249191 -128.000000
v  -93.616661 -104.049194 -128.000000
v  127.997055 -104.049194 116.493729
v  127.997055 -109.249191 116.493729
v  127.997055 -109.249191 107.913727
v  127.997055 -119.649193 107.913727
v  127.997055 -119.649193 116.493729
v  127.997055 -124.849190 116.493729
v  127.997055 -124.849190 93.613739
v  127.997055 -119.649193 93.613739
v  127.997055 -119.649193 102.193726
v  127.997055 -109.249191 102.193726
v  127.997055 -109.249191 93.613739
v  127.997055 -104.049194 93.613739
v  -116.496651 124.750801 -128.000000
v  -116.496651 119.550804 -128.000000
v  -107.916656 119.550804 -128.000000
v  -107.916656 109.150803 -128.000000
v  -116.496651 109.150803 -128.000000
v  -116.496651 103.950806 -128.000000
v  -93.616661 103.950806 -128.000000
v  -93.616661 109.150803 -128.000000
v  -102.196655 109.150803 -128.000000
v  -102.196655 119.550804 -128.000000
v  -93.616661 119.550804 -128.000000
v  -93.616661 124.750801 -128.000000
v  127.997055 124.750801 116.493729
v  127.997055 119.550804 116.493729
v  127.997055 119.550804 107.913727
v  127.997055 109.150803 107.913727
v  127.997055 109.150803 116.493729
v  127.997055 103.950806 116.493729
v  127.997055 103.950806 93.613739
v  127.997055 109.150803 93.613739
v  127.997055 109.150803 102.193726
v  127.997055 119.550804 102.193726
v  127.997055 119.550804 93.613739
v  127.997055 124.750801 93.613739
v  73.404846 -104.035622 110.320938
v  73.416077 -109.249191 110.323517
v  78.523819 -109.249191 88.020920
v  78.513641 -104.035622 88.018585
v  73.416077 109.150803 110.323517
v  78.523819 109.150803 88.020920
v  65.047974 -109.249191 108.251114
v  70.938828 -109.249191 86.142471
v  70.987823 -104.035622 86.155533
v  65.047974 109.150803 108.251114
v  70.938828 109.150803 86.142471
v  65.102036 -104.035622 108.265518
v  48.964767 -109.249191 103.367828
v  56.360687 -109.249191 81.716171
v  48.964767 109.150803 103.367828
v  56.360687 109.150803 81.716171
v  40.807861 -109.249191 100.418961
v  48.967117 -109.249191 79.043259
v  48.967117 -104.049194 79.043259
v  40.807861 109.150803 100.418961
v  40.869431 103.928505 100.442459
v  49.022934 103.928505 79.064545
v  48.967117 109.150803 79.043259
v  40.807861 -104.049194 100.418961
v  -110.327301 -109.249191 -73.422760
v  -88.024643 -109.249191 -78.530151
v  -88.024643 -104.049194 -78.530151
v  -110.327301 109.150803 -73.422760
v  -88.024643 109.150803 -78.530151
v  -110.327301 -104.049194 -73.422752
v  -108.278084 -104.049194 -65.141174
v  -108.278084 -109.249191 -65.141159
v  -86.167191 -109.249191 -71.023560
v  -86.167191 -104.049194 -71.023560
v  -108.278084 109.150803 -65.141159
v  -86.167191 109.150803 -71.023560
v  -103.370842 -104.049194 -48.967911
v  -103.370842 -109.249191 -48.967918
v  -81.719177 -109.249191 -56.363831
v  -81.719177 -104.049194 -56.363831
v  -103.370842 109.150803 -48.967918
v  -103.357857 103.928505 -48.929916
v  -81.707405 103.928505 -56.329384
v  -81.719177 109.150803 -56.363831
v  -100.502357 -104.049194 -41.021889
v  -100.502357 -109.249191 -41.021881
v  -79.119125 -109.249191 -49.161392
v  -79.119125 -104.049194 -49.161392
v  -100.502357 109.150803 -41.021881
v  -100.480873 103.928505 -40.965462
v  -79.099648 103.928505 -49.110252
v  -79.119125 109.150803 -49.161392
v  67.309631 -104.035622 99.972717
v  -99.983383 -104.049194 -67.347900
v  -95.248413 -104.049194 -51.742424
v  -95.237411 103.928505 -51.705238
v  68.788773 -104.035622 94.416260
v  -94.397736 -104.049194 -68.833908
v  -89.778778 -104.049194 -53.610779
v  -38.775795 -7.403112 38.859512
v  -44.841194 -7.403112 44.928070
v  -44.841194 -14.757021 44.928070
v  -28.666801 -14.757021 28.745255
v  -28.666801 -7.403112 28.745255
v  -34.732201 -7.403112 34.813812
v  -44.841194 7.304704 44.928070
v  -34.732201 7.304704 34.813812
v  -32.412575 -0.124057 56.515396
v  -38.719208 -0.124047 50.837524
v  -32.868645 -0.124047 44.561600
v  -28.968269 -0.124047 40.377640
v  -23.117714 -0.124047 34.101715
v  -17.401260 -0.124057 39.248230
v  -44.450794 -0.124067 32.987640
v  -50.722591 -0.124067 38.842621
v  -56.404884 -0.124067 32.540024
v  -39.148338 -0.124067 17.516510
v  -33.997810 -0.124067 23.229309
v  -40.269600 -0.124067 29.084305
v  -38.775795 -0.124057 38.859512
v  -44.841194 14.658592 44.928070
v  -38.775795 7.304704 38.859512
v  -28.666801 7.304704 28.745255
v  -28.666801 14.658603 28.745255
v  -50.840431 -0.124037 38.716309
v  -44.564499 -0.124037 32.865753
v  -40.380547 -0.124037 28.965378
v  -34.104614 -0.124037 23.114807
v  -39.251122 -0.124037 17.398376
v  -56.518272 -0.124047 32.409683
v  -34.732201 -0.124057 34.813812
v  -32.990524 -0.124057 44.447906
v  -38.845512 -0.124057 50.719696
v  -32.542908 -0.124067 56.401993
v  -17.519402 -0.124067 39.145447
v  -23.232201 -0.124057 33.994919
v  -29.087196 -0.124057 40.266708
v  -99.984734 103.928505 -67.346710
v  -108.277870 103.928505 -65.140366
v  -110.322044 103.928505 -73.399818
v  -88.019875 103.928505 -78.509369
v  -86.166992 103.928505 -71.022842
v  -94.428055 103.928505 -68.825027
v  -89.796448 103.928505 -53.564804
v  48.937210 103.928505 103.358429
v  51.712173 103.928505 95.237839
v  53.571487 103.928505 89.796799
v  56.335724 103.928505 81.707642
v  67.343689 103.928505 99.981781
v  65.114822 103.928505 108.268921
v  73.395035 103.928505 110.318695
v  78.504745 103.928505 88.016556
v  70.999420 103.928505 86.158600
v  68.822021 103.928505 94.425095
v  51.720245 -104.035622 95.240616
v  48.945572 -104.035622 103.361282
v  40.947571 -104.022057 100.472244
v  49.093765 -104.022057 79.091537
v  56.343292 -104.035622 81.710236
v  53.579361 -104.035622 89.799484
v  -108.282837 -104.022057 -65.159035
v  -99.991081 -104.022057 -67.364304
v  -95.233475 -104.022057 -51.688721
v  -103.352188 -104.022057 -48.913345
v  -100.467422 -104.022057 -40.930153
v  -79.087456 -104.022057 -49.078247
v  -81.702271 -104.022057 -56.314362
v  -89.820992 -104.022057 -53.538979
v  -94.463249 -104.022057 -68.834488
v  -86.171494 -104.022057 -71.039764
v  -88.019196 -104.022072 -78.506378
v  -110.321289 -104.022095 -73.396530
v  -38.775795 -0.124057 38.859512
v  -34.732201 -0.124057 34.813812
v  -44.886101 -109.249191 44.883163
v  -38.819130 -109.249191 38.816193
v  -38.819130 -119.649193 38.816193
v  -44.886101 -119.649193 44.883163
v  -44.886101 -124.849190 44.883163
v  -28.707504 -124.849190 28.704559
v  -28.707504 -119.649193 28.704559
v  -34.774475 -119.649193 34.771545
v  -34.774475 -109.249191 34.771545
v  -28.707504 -109.249191 28.704559
v  -44.886101 119.550804 44.883163
v  -44.886101 124.750801 44.883163
v  -38.819130 119.550804 38.816193
v  -38.819130 109.150803 38.816193
v  -44.886101 109.150803 44.883163
v  -28.707504 109.150803 28.704559
v  -34.774475 109.150803 34.771545
v  -34.774475 119.550804 34.771545
v  -28.707504 119.550804 28.704559
v  -28.707504 124.750801 28.704559
v  -44.886112 -104.049194 44.883163
v  -28.707504 -104.049194 28.704559
v  -44.886101 103.928505 44.883163
v  -28.707504 103.928505 28.704559
v  -111.798775 -109.249191 -80.301636
v  -103.383636 -109.249191 -81.975517
v  -103.383636 -119.649193 -81.975517
v  -111.798775 -119.649193 -80.301636
v  -111.798775 -124.849190 -80.301636
v  -89.358414 -124.849190 -84.765305
v  -89.358414 -119.649193 -84.765305
v  -97.773552 -119.649193 -83.091431
v  -97.773552 -109.249191 -83.091431
v  -89.358414 -109.249191 -84.765305
v  -111.798775 119.550804 -80.301636
v  -103.383636 119.550804 -81.975517
v  -103.383636 109.150803 -81.975517
v  -111.798775 109.150803 -80.301636
v  -89.358414 109.150803 -84.765305
v  -97.773552 109.150803 -83.091431
v  -97.773552 119.550804 -83.091431
v  -89.358414 119.550804 -84.765305
v  -89.358414 124.750801 -84.765305
v  -111.798775 -104.049194 -80.301636
v  -89.358414 -104.049194 -84.765305
v  -111.798775 103.931366 -80.301636
v  -89.358414 103.931366 -84.765305
v  -111.798775 124.750801 -80.301636
v  -76.747314 -109.249191 -43.192101
v  -97.885681 109.150803 -34.436310
v  -97.885681 -109.249191 -34.436310
v  -97.885681 124.750801 -34.436310
v  -76.747314 109.150803 -43.192101
v  -89.958794 -109.249191 -37.719734
v  -89.958794 -119.649193 -37.719734
v  -97.885681 -119.649193 -34.436310
v  -97.885681 -124.849190 -34.436310
v  -76.747314 -124.849190 -43.192101
v  -76.747314 -119.649193 -43.192101
v  -84.674202 -119.649193 -39.908676
v  -84.674202 -109.249191 -39.908676
v  -97.885681 119.550804 -34.436310
v  -89.958794 119.550804 -37.719734
v  -89.958794 109.150803 -37.719734
v  -84.674202 109.150803 -39.908676
v  -84.674202 119.550804 -39.908676
v  -76.747314 119.550804 -43.192101
v  -76.747314 124.750801 -43.192101
v  34.433365 -109.249191 97.882736
v  34.433365 124.750801 97.882736
v  43.189163 109.150803 76.744385
v  37.716797 -109.249191 89.955856
v  37.716797 -119.649193 89.955856
v  34.433365 -119.649193 97.882736
v  34.433365 -124.849190 97.882736
v  43.189163 -124.849190 76.744385
v  43.189163 -119.649193 76.744385
v  39.905731 -119.649193 84.671265
v  39.905731 -109.249191 84.671265
v  43.189163 -109.249191 76.744385
v  34.433365 119.550804 97.882736
v  37.716797 119.550804 89.955856
v  37.716797 109.150803 89.955856
v  34.433365 109.150803 97.882736
v  39.905731 109.150803 84.671265
v  39.905731 119.550804 84.671265
v  43.189163 119.550804 76.744385
v  43.189163 124.750801 76.744385
v  80.298706 -104.037361 111.795853
v  80.298706 -109.249191 111.795853
v  84.762360 -109.249191 89.355484
v  84.762360 -104.037361 89.355484
v  80.298706 124.750801 111.795853
v  80.298706 109.150803 111.795853
v  80.298706 103.931366 111.795853
v  84.762360 103.931366 89.355484
v  84.762360 109.150803 89.355484
v  81.972580 -109.249191 103.380707
v  81.972580 -119.649193 103.380707
v  80.298706 -119.649193 111.795853
v  80.298706 -124.849190 111.795853
v  84.762360 -124.849190 89.355484
v  84.762360 -119.649193 89.355484
v  83.088501 -119.649193 97.770615
v  83.088501 -109.249191 97.770615
v  80.298706 119.550804 111.795853
v  81.972580 119.550804 103.380707
v  81.972580 109.150803 103.380707
v  83.088501 109.150803 97.770615
v  83.088501 119.550804 97.770615
v  84.762360 119.550804 89.355484
v  84.762360 124.750801 89.355484
v  12.743523 69.677017 87.624207
v  12.743523 77.089333 87.624207
v  16.788597 69.677017 80.056412
v  16.788513 55.008347 80.056580
v  12.743523 55.019047 87.624207
v  12.743523 47.644588 87.624207
v  23.529083 47.644588 67.445847
v  23.529083 55.019047 67.445847
v  19.492378 55.008347 74.997971
v  19.494102 69.677017 74.994766
v  23.529083 69.677017 67.445847
v  23.529083 77.089333 67.445847
v  12.743523 -55.128113 87.624207
v  12.743523 -47.742992 87.624207
v  16.788513 -55.128113 80.056580
v  16.788597 -69.776100 80.056412
v  12.743523 -69.776100 87.624207
v  12.743523 -77.133644 87.624207
v  23.529083 -77.133644 67.445847
v  23.529083 -69.776100 67.445847
v  19.494102 -69.776100 74.994766
v  19.492378 -55.128113 74.997986
v  23.529083 -55.128113 67.445847
v  23.529083 -47.742992 67.445847
v  -87.627144 69.722046 -12.746452
v  -87.627144 77.062065 -12.746452
v  -80.059341 69.722046 -16.791534
v  -80.059509 55.008327 -16.791451
v  -67.448792 69.722046 -23.532013
v  -74.997681 69.722046 -19.497047
v  -67.448792 77.062065 -23.532013
v  -87.627144 55.008327 -12.746452
v  -87.627144 47.643864 -12.746452
v  -67.448792 47.643864 -23.532013
v  -67.448792 55.008327 -23.532013
v  -75.000916 55.008327 -19.495323
v  -87.627144 -69.827126 -12.746452
v  -80.060257 -69.827126 -16.791046
v  -87.627144 -77.179955 -12.746452
v  -67.448792 -77.179955 -23.532013
v  -67.448792 -69.827126 -23.532013
v  -75.015671 -69.827126 -19.487434
v  -75.015671 -55.095295 -19.487434
v  -87.627144 -47.741402 -12.746452
v  -87.627144 -55.095295 -12.746452
v  -80.060257 -55.095295 -16.791046
v  -67.448792 -55.095295 -23.532013
v  -67.448792 -47.741394 -23.532013
v  -43.409122 -104.049194 12.472626
v  -61.105560 103.928505 26.975403
v  -43.409122 103.928505 12.472626
v  -61.105560 35.641716 26.975403
v  -50.039982 28.292490 17.906815
v  -54.469395 -28.393139 21.536865
v  -61.105568 -6.286837 26.975403
v  -61.105560 -109.249191 26.975403
v  -61.105560 124.750801 26.975403
v  -43.409122 109.150803 12.472626
v  -61.105560 -104.049194 26.975403
v  -43.409122 -109.249191 12.472626
v  -61.105560 109.150803 26.975403
v  -54.469395 -109.249191 21.536865
v  -54.469395 -119.649193 21.536865
v  -61.105560 -119.649193 26.975403
v  -61.105560 -124.849190 26.975403
v  -43.409122 -124.849190 12.472626
v  -43.409122 -119.649193 12.472626
v  -50.045284 -119.649193 17.911179
v  -50.045284 -109.249191 17.911179
v  -61.105560 119.550804 26.975403
v  -54.469395 119.550804 21.536865
v  -54.469395 109.150803 21.536865
v  -50.045284 109.150803 17.911179
v  -50.045284 119.550804 17.911179
v  -43.409122 119.550804 12.472626
v  -43.409122 124.750801 12.472626
v  -61.105568 28.292490 26.975403
v  -54.469135 28.292490 21.536636
v  -54.469231 13.545163 21.536728
v  -43.409134 28.292490 12.472626
v  -43.409134 35.641724 12.472626
v  -61.105560 13.545163 26.975403
v  -61.105560 6.188545 26.975403
v  -43.409122 6.188545 12.472626
v  -43.409122 13.545163 12.472626
v  -50.042076 13.545163 17.908539
v  -61.105568 -28.393143 26.975403
v  -61.105568 -35.746689 26.975403
v  -43.409134 -35.746689 12.472626
v  -43.409134 -28.393143 12.472626
v  -50.045296 -28.393143 17.911163
v  -50.045284 -13.640734 17.911179
v  -61.105560 -13.640734 26.975403
v  -54.469395 -13.640734 21.536865
v  -43.409122 -13.640734 12.472626
v  -43.409134 -6.286837 12.472626
v  -11.994217 -104.049194 72.448563
v  -11.994217 44.502369 72.448563
v  -7.081154 44.502369 65.413727
v  -7.081238 29.839481 65.413849
v  -11.994217 29.845297 72.448563
v  -11.994217 22.480104 72.448563
v  1.106331 22.480104 53.690353
v  1.106331 29.845297 53.690353
v  -3.801163 29.839481 60.717209
v  -3.799408 44.502369 60.714706
v  1.106331 44.502369 53.690353
v  1.106331 51.891106 53.690353
v  -11.994217 -29.949461 72.448563
v  -7.081238 -29.949461 65.413849
v  -7.081154 -44.601173 65.413727
v  -11.994217 -44.601173 72.448563
v  -11.994217 -51.957256 72.448563
v  1.106331 -51.957256 53.690353
v  1.106331 -44.601173 53.690353
v  -3.799408 -44.601173 60.714706
v  -3.801186 -29.949461 60.717239
v  1.106331 -29.949461 53.690353
v  1.106331 -22.578510 53.690353
v  -7.081505 -109.249191 65.414230
v  -7.081505 -119.649193 65.414230
v  -11.994217 -119.649193 72.448563
v  -11.994217 -124.849190 72.448563
v  1.106331 -124.849190 53.690353
v  1.106331 -119.649193 53.690353
v  -3.806366 -119.649193 60.724686
v  -3.806366 -109.249191 60.724686
v  1.106331 -109.249191 53.690353
v  -11.994217 119.550804 72.448563
v  -7.081505 119.550804 65.414230
v  -7.081505 109.150803 65.414230
v  -11.994217 109.150803 72.448563
v  -3.806366 109.150803 60.724686
v  -3.806366 119.550804 60.724686
v  1.106331 119.550804 53.690353
v  1.106331 124.750801 53.690353
v  1.106331 -104.049194 53.690353
v  -11.994217 103.928505 72.448563
v  1.106331 103.928505 53.690353
v  -11.994217 -109.249191 72.448563
v  -11.994217 124.750801 72.448563
v  1.106331 109.150803 53.690353
v  -11.994217 51.891098 72.448563
v  -11.994217 -22.578514 72.448563
v  -67.627815 -104.049194 -23.867630
v  -87.824654 103.928505 -13.116745
v  -67.627815 103.928505 -23.867638
v  -67.627815 -109.249191 -23.867630
v  -87.824646 109.150803 -13.116730
v  -80.250839 -109.249191 -17.148315
v  -80.250839 -119.649193 -17.148315
v  -87.824646 -119.649193 -13.116730
v  -87.824646 -124.849190 -13.116730
v  -67.627815 -124.849190 -23.867630
v  -67.627815 -119.649193 -23.867630
v  -75.201630 -119.649193 -19.836044
v  -75.201630 -109.249191 -19.836044
v  -87.824646 119.550804 -13.116730
v  -80.250839 119.550804 -17.148315
v  -80.250839 109.150803 -17.148315
v  -75.201630 109.150803 -19.836044
v  -75.201630 119.550804 -19.836044
v  -67.627815 119.550804 -23.867630
v  -67.627815 124.750801 -23.867630
v  -87.824646 -109.249191 -13.116730
v  -87.824646 124.750801 -13.116730
v  -67.627815 109.150803 -23.867630
v  -87.824646 -104.049194 -13.116730
# 462 vertices

vt  0.146551 0.995622 -4.000000
vt  0.146551 0.964102 -4.000000
vt  0.193830 0.964102 -4.000000
vt  0.193830 0.901064 -4.000000
vt  0.146551 0.901064 -4.000000
vt  0.146551 0.869545 -4.000000
vt  0.272628 0.869545 -4.000000
vt  0.272628 0.901064 -4.000000
vt  0.225349 0.901064 -4.000000
vt  0.225349 0.964102 -4.000000
vt  0.272628 0.964102 -4.000000
vt  0.272628 0.995622 -4.000000
vt  0.004043 0.995622 4.000000
vt  0.004043 0.964102 4.000000
vt  0.051322 0.964102 4.000000
vt  0.051322 0.901064 4.000000
vt  0.004043 0.901064 4.000000
vt  0.004043 0.869545 4.000000
vt  0.130120 0.869545 4.000000
vt  0.130120 0.901064 4.000000
vt  0.082841 0.901064 4.000000
vt  0.082841 0.964102 4.000000
vt  0.130120 0.964102 4.000000
vt  0.130120 0.995622 4.000000
vt  0.866912 0.998875 -0.000018
vt  0.851310 0.998875 -0.000015
vt  0.827928 0.998875 -0.000013
vt  0.796771 0.998875 -0.000014
vt  0.773395 0.998875 -0.000016
vt  0.757802 0.998875 -0.000020
vt  0.695561 0.998875 -0.000043
vt  0.679989 0.998875 -0.000052
vt  0.656655 0.998875 -0.000072
vt  0.968109 0.998875 -0.000075
vt  0.944755 0.998875 -0.000050
vt  0.929169 0.998875 -0.000040
vt  0.866934 0.003548 -0.000002
vt  0.851334 0.003548 -0.000002
vt  0.827953 0.003548 -0.000002
vt  0.796795 0.003548 -0.000001
vt  0.773416 0.003548 -0.000000
vt  0.757820 0.003548 0.000001
vt  0.695573 0.003548 0.000006
vt  0.679998 0.003548 0.000008
vt  0.656659 0.003548 0.000014
vt  0.968115 0.003548 0.000005
vt  0.944768 0.003548 0.000001
vt  0.929186 0.003548 0.000000
vt  0.999224 0.998875 -0.000137
vt  0.999226 0.003548 0.000014
vt  0.147017 0.860923 -4.000000
vt  0.147017 0.829404 -4.000000
vt  0.194296 0.829404 -4.000000
vt  0.194296 0.766366 -4.000000
vt  0.147017 0.766366 -4.000000
vt  0.147017 0.734847 -4.000000
vt  0.273094 0.734847 -4.000000
vt  0.273094 0.766366 -4.000000
vt  0.225815 0.766366 -4.000000
vt  0.225815 0.829404 -4.000000
vt  0.273094 0.829404 -4.000000
vt  0.273094 0.860923 -4.000000
vt  0.004509 0.860923 4.000000
vt  0.004509 0.829404 4.000000
vt  0.051788 0.829404 4.000000
vt  0.051788 0.766366 4.000000
vt  0.004509 0.766366 4.000000
vt  0.004509 0.734847 4.000000
vt  0.130586 0.734847 4.000000
vt  0.130586 0.766366 4.000000
vt  0.083307 0.766366 4.000000
vt  0.083307 0.829404 4.000000
vt  0.130586 0.829404 4.000000
vt  0.130586 0.860923 4.000000
vt  0.522252 0.998875 -0.000018
vt  0.506650 0.998875 -0.000015
vt  0.483268 0.998875 -0.000013
vt  0.452111 0.998875 -0.000014
vt  0.428734 0.998875 -0.000016
vt  0.413142 0.998875 -0.000020
vt  0.350901 0.998875 -0.000043
vt  0.335329 0.998875 -0.000052
vt  0.311995 0.998875 -0.000072
vt  0.623449 0.998875 -0.000075
vt  0.600095 0.998875 -0.000050
vt  0.584509 0.998875 -0.000040
vt  0.522274 0.003548 -0.000002
vt  0.506674 0.003548 -0.000002
vt  0.483293 0.003548 -0.000002
vt  0.452135 0.003548 -0.000001
vt  0.428756 0.003548 -0.000000
vt  0.413160 0.003548 0.000001
vt  0.350913 0.003548 0.000006
vt  0.335338 0.003548 0.000008
vt  0.311999 0.003548 0.000014
vt  0.623455 0.003548 0.000005
vt  0.600108 0.003548 0.000001
vt  0.584526 0.003548 0.000000
vt  0.654564 0.998875 -0.000137
vt  0.654566 0.003548 0.000014
vt  0.866931 0.146205 -0.000004
vt  0.851331 0.146205 -0.000004
vt  0.944766 0.146205 -0.000006
vt  0.929184 0.146205 -0.000006
vt  0.428753 0.146205 -0.000003
vt  0.413158 0.146205 -0.000002
vt  0.350911 0.146205 -0.000001
vt  0.335336 0.146205 -0.000000
vt  0.851330 0.168549 -0.000004
vt  0.944766 0.168549 -0.000007
vt  0.929183 0.168549 -0.000006
vt  0.428752 0.168549 -0.000003
vt  0.413157 0.168549 -0.000003
vt  0.350911 0.168549 -0.000002
vt  0.335336 0.168549 -0.000002
vt  0.866930 0.168549 -0.000004
vt  0.851329 0.212119 -0.000004
vt  0.944766 0.212119 -0.000009
vt  0.929182 0.212119 -0.000008
vt  0.428751 0.212119 -0.000004
vt  0.413157 0.212119 -0.000004
vt  0.350910 0.212119 -0.000004
vt  0.335336 0.212119 -0.000004
vt  0.866929 0.212119 -0.000005
vt  0.851329 0.234599 -0.000005
vt  0.944765 0.234599 -0.000011
vt  0.929182 0.234599 -0.000009
vt  0.428751 0.234599 -0.000004
vt  0.413156 0.234599 -0.000004
vt  0.350910 0.234599 -0.000005
vt  0.335336 0.234599 -0.000006
vt  0.866929 0.234599 -0.000005
vt  0.851314 0.856227 -0.000013
vt  0.944757 0.856227 -0.000042
vt  0.929172 0.856227 -0.000034
vt  0.428738 0.856227 -0.000014
vt  0.413145 0.856227 -0.000017
vt  0.350902 0.856227 -0.000036
vt  0.335330 0.856227 -0.000043
vt  0.866915 0.856227 -0.000016
vt  0.866916 0.834116 -0.000015
vt  0.851314 0.834116 -0.000013
vt  0.944758 0.834116 -0.000041
vt  0.929172 0.834116 -0.000033
vt  0.428738 0.834116 -0.000014
vt  0.413145 0.834116 -0.000016
vt  0.350903 0.834116 -0.000035
vt  0.335331 0.834116 -0.000042
vt  0.866917 0.790304 -0.000014
vt  0.851315 0.790304 -0.000012
vt  0.944758 0.790304 -0.000039
vt  0.929173 0.790304 -0.000031
vt  0.428739 0.790304 -0.000013
vt  0.413146 0.790304 -0.000016
vt  0.350903 0.790304 -0.000033
vt  0.335331 0.790304 -0.000039
vt  0.866917 0.768409 -0.000014
vt  0.851316 0.768409 -0.000012
vt  0.944758 0.768409 -0.000038
vt  0.929173 0.768409 -0.000030
vt  0.428739 0.768409 -0.000013
vt  0.413147 0.768409 -0.000015
vt  0.350903 0.768409 -0.000032
vt  0.335331 0.768409 -0.000038
vt  0.890284 0.168549 -0.000005
vt  0.890283 0.212119 -0.000006
vt  0.890271 0.834116 -0.000022
vt  0.389796 0.834116 -0.000023
vt  0.890271 0.790304 -0.000021
vt  0.389796 0.790304 -0.000022
vt  0.906010 0.168549 -0.000006
vt  0.906009 0.212119 -0.000007
vt  0.905998 0.834116 -0.000026
vt  0.905999 0.790304 -0.000025
vt  0.374072 0.834116 -0.000028
vt  0.374072 0.790304 -0.000026
vt  0.413146 0.790304 -0.000016
vt  0.413145 0.834116 -0.000016
vt  0.389796 0.834116 -0.000023
vt  0.389796 0.790304 -0.000022
vt  0.374072 0.834116 -0.000028
vt  0.350903 0.834116 -0.000035
vt  0.350903 0.790304 -0.000033
vt  0.374072 0.790304 -0.000026
vt  0.452124 0.477232 -0.000007
vt  0.428746 0.477232 -0.000008
vt  0.413152 0.461680 -0.000009
vt  0.350907 0.461680 -0.000017
vt  0.335334 0.477232 -0.000020
vt  0.311997 0.477232 -0.000027
vt  0.654565 0.477232 -0.000058
vt  0.522262 0.523888 -0.000010
vt  0.506662 0.508336 -0.000008
vt  0.483280 0.508336 -0.000007
vt  0.623452 0.508336 -0.000036
vt  0.600102 0.508336 -0.000025
vt  0.584517 0.523888 -0.000021
vt  0.522264 0.461596 -0.000009
vt  0.506663 0.477148 -0.000008
vt  0.483281 0.477148 -0.000007
vt  0.623452 0.477148 -0.000033
vt  0.600102 0.477148 -0.000023
vt  0.584518 0.461596 -0.000018
vt  0.467660 0.492742 -0.000007
vt  0.639050 0.492742 -0.000047
vt  0.452123 0.508252 -0.000007
vt  0.428745 0.508252 -0.000008
vt  0.413151 0.523804 -0.000010
vt  0.350906 0.523804 -0.000020
vt  0.335333 0.508252 -0.000022
vt  0.311997 0.508252 -0.000030
vt  0.654565 0.508252 -0.000062
vt  0.467660 0.492742 -0.000007
vt  0.639050 0.492742 -0.000047
vt  0.866923 0.483674 -0.000009
vt  0.851322 0.499226 -0.000008
vt  0.827941 0.499226 -0.000007
vt  0.968112 0.499226 -0.000035
vt  0.944762 0.499226 -0.000024
vt  0.929178 0.483674 -0.000019
vt  0.796783 0.530330 -0.000008
vt  0.773405 0.530330 -0.000009
vt  0.757811 0.545882 -0.000010
vt  0.695566 0.545882 -0.000021
vt  0.679993 0.530330 -0.000024
vt  0.656657 0.530330 -0.000031
vt  0.999225 0.530330 -0.000066
vt  0.851322 0.530879 -0.000009
vt  0.827940 0.530879 -0.000008
vt  0.968112 0.530879 -0.000038
vt  0.944761 0.530879 -0.000026
vt  0.929177 0.546431 -0.000022
vt  0.866922 0.546431 -0.000010
vt  0.812087 0.515053 -0.000007
vt  0.983943 0.515053 -0.000051
vt  0.796783 0.499775 -0.000007
vt  0.773405 0.499775 -0.000008
vt  0.757812 0.484223 -0.000009
vt  0.695567 0.484223 -0.000018
vt  0.679993 0.499775 -0.000022
vt  0.656657 0.499775 -0.000029
vt  0.999225 0.499775 -0.000061
vt  0.812087 0.515053 -0.000007
vt  0.983943 0.515053 -0.000051
vt  0.506652 0.917114 -0.000014
vt  0.483270 0.917114 -0.000012
vt  0.452112 0.948257 -0.000013
vt  0.428736 0.948257 -0.000015
vt  0.413143 0.963809 -0.000019
vt  0.350901 0.963809 -0.000042
vt  0.335330 0.948257 -0.000049
vt  0.311995 0.948257 -0.000067
vt  0.654564 0.948257 -0.000129
vt  0.623449 0.917114 -0.000069
vt  0.600096 0.917114 -0.000045
vt  0.584511 0.901553 -0.000036
vt  0.522254 0.901553 -0.000016
vt  0.866932 0.106377 -0.000003
vt  0.851332 0.090834 -0.000003
vt  0.827951 0.090834 -0.000003
vt  0.968114 0.090834 -0.000002
vt  0.944767 0.090834 -0.000003
vt  0.929184 0.106377 -0.000004
vt  0.796794 0.059771 -0.000002
vt  0.773415 0.059771 -0.000001
vt  0.757820 0.044219 -0.000000
vt  0.695572 0.044219 0.000004
vt  0.679997 0.059771 0.000005
vt  0.656658 0.059771 0.000009
vt  0.999226 0.059771 0.000006
vt  0.522273 0.022151 -0.000002
vt  0.452134 0.068775 -0.000002
vt  0.428755 0.068775 -0.000001
vt  0.413159 0.084318 -0.000001
vt  0.350912 0.084318 0.000002
vt  0.335337 0.068775 0.000004
vt  0.311998 0.068775 0.000008
vt  0.654566 0.068775 0.000005
vt  0.506673 0.037703 -0.000002
vt  0.483292 0.037703 -0.000002
vt  0.623455 0.037703 0.000002
vt  0.600108 0.037703 -0.000000
vt  0.584526 0.022151 -0.000001
vt  0.851311 0.970324 -0.000014
vt  0.827929 0.970324 -0.000013
vt  0.796773 0.939191 -0.000013
vt  0.773396 0.939191 -0.000015
vt  0.757804 0.923630 -0.000018
vt  0.695562 0.923630 -0.000040
vt  0.679990 0.939191 -0.000048
vt  0.656655 0.939191 -0.000067
vt  0.999224 0.939191 -0.000128
vt  0.968109 0.970324 -0.000073
vt  0.944756 0.970324 -0.000048
vt  0.929169 0.985876 -0.000039
vt  0.866912 0.985876 -0.000018
vt  0.851322 0.501211 -0.000008
vt  0.827941 0.501211 -0.000007
vt  0.796783 0.501211 -0.000007
vt  0.773405 0.501211 -0.000008
vt  0.757811 0.501211 -0.000010
vt  0.695567 0.501211 -0.000019
vt  0.679993 0.501211 -0.000022
vt  0.656657 0.501211 -0.000029
vt  0.999225 0.501211 -0.000061
vt  0.968112 0.501211 -0.000035
vt  0.944762 0.501211 -0.000024
vt  0.506662 0.501211 -0.000008
vt  0.522263 0.501211 -0.000010
vt  0.483281 0.501211 -0.000007
vt  0.452123 0.501211 -0.000007
vt  0.428745 0.501211 -0.000008
vt  0.335333 0.501211 -0.000022
vt  0.311997 0.501211 -0.000029
vt  0.654565 0.501211 -0.000061
vt  0.623452 0.501211 -0.000035
vt  0.600102 0.501211 -0.000024
vt  0.584518 0.501211 -0.000020
vt  0.866923 0.501211 -0.000010
vt  0.929178 0.501211 -0.000020
vt  0.413151 0.501375 -0.000010
vt  0.350907 0.501375 -0.000019
vt  0.851313 0.874459 -0.000013
vt  0.827931 0.874459 -0.000011
vt  0.796774 0.874459 -0.000012
vt  0.773397 0.874459 -0.000014
vt  0.757805 0.874459 -0.000017
vt  0.695562 0.874459 -0.000037
vt  0.679990 0.874459 -0.000044
vt  0.656656 0.874459 -0.000061
vt  0.999224 0.874459 -0.000118
vt  0.968109 0.874459 -0.000065
vt  0.944757 0.874459 -0.000043
vt  0.506653 0.874459 -0.000013
vt  0.483271 0.874459 -0.000011
vt  0.452114 0.874459 -0.000012
vt  0.428737 0.874459 -0.000014
vt  0.335330 0.874459 -0.000044
vt  0.311995 0.874459 -0.000061
vt  0.654564 0.874459 -0.000118
vt  0.623449 0.874459 -0.000065
vt  0.600097 0.874459 -0.000043
vt  0.584511 0.874459 -0.000035
vt  0.866915 0.874459 -0.000016
vt  0.929171 0.874459 -0.000035
vt  0.413145 0.874512 -0.000017
vt  0.350902 0.874512 -0.000037
vt  0.522255 0.874459 -0.000016
vt  0.944759 0.750043 -0.000037
vt  0.428740 0.750043 -0.000012
vt  0.851316 0.750043 -0.000012
vt  0.522258 0.750043 -0.000014
vt  0.335331 0.750043 -0.000037
vt  0.827934 0.750043 -0.000010
vt  0.796777 0.750043 -0.000010
vt  0.773400 0.750043 -0.000012
vt  0.757807 0.750043 -0.000015
vt  0.695564 0.750043 -0.000031
vt  0.679991 0.750043 -0.000037
vt  0.656656 0.750043 -0.000050
vt  0.999225 0.750043 -0.000099
vt  0.968110 0.750043 -0.000055
vt  0.506656 0.750043 -0.000012
vt  0.483274 0.750043 -0.000010
vt  0.452117 0.750043 -0.000010
vt  0.311996 0.750043 -0.000050
vt  0.654565 0.750043 -0.000099
vt  0.623450 0.750043 -0.000055
vt  0.600099 0.750043 -0.000037
vt  0.584513 0.750043 -0.000030
vt  0.851328 0.252380 -0.000005
vt  0.522268 0.252380 -0.000006
vt  0.335336 0.252380 -0.000007
vt  0.827947 0.252380 -0.000004
vt  0.796789 0.252380 -0.000004
vt  0.773411 0.252380 -0.000004
vt  0.757816 0.252380 -0.000004
vt  0.695570 0.252380 -0.000006
vt  0.679996 0.252380 -0.000007
vt  0.656658 0.252380 -0.000007
vt  0.999226 0.252380 -0.000023
vt  0.968113 0.252380 -0.000015
vt  0.944765 0.252380 -0.000011
vt  0.506668 0.252380 -0.000005
vt  0.483287 0.252380 -0.000004
vt  0.452129 0.252380 -0.000004
vt  0.428751 0.252380 -0.000004
vt  0.311998 0.252380 -0.000007
vt  0.654566 0.252380 -0.000023
vt  0.623453 0.252380 -0.000015
vt  0.600105 0.252380 -0.000011
vt  0.584522 0.252380 -0.000010
vt  0.866931 0.127938 -0.000004
vt  0.851331 0.127964 -0.000003
vt  0.944767 0.127964 -0.000005
vt  0.929184 0.127938 -0.000005
vt  0.522271 0.127964 -0.000004
vt  0.428753 0.127964 -0.000002
vt  0.413158 0.127915 -0.000002
vt  0.350911 0.127915 -0.000000
vt  0.335337 0.127964 0.000001
vt  0.827950 0.127964 -0.000003
vt  0.796792 0.127964 -0.000003
vt  0.773413 0.127964 -0.000002
vt  0.757818 0.127964 -0.000002
vt  0.695571 0.127964 -0.000000
vt  0.679997 0.127964 0.000001
vt  0.656658 0.127964 0.000003
vt  0.999226 0.127964 -0.000004
vt  0.968114 0.127964 -0.000005
vt  0.506671 0.127964 -0.000003
vt  0.483290 0.127964 -0.000003
vt  0.452132 0.127964 -0.000003
vt  0.311998 0.127964 0.000003
vt  0.654566 0.127964 -0.000004
vt  0.623454 0.127964 -0.000005
vt  0.600107 0.127964 -0.000005
vt  0.584524 0.127964 -0.000005
vt  0.851329 0.235602 -0.000005
vt  0.866929 0.219812 -0.000005
vt  0.827947 0.235602 -0.000004
vt  0.796789 0.266638 -0.000004
vt  0.773410 0.266593 -0.000004
vt  0.757815 0.282225 -0.000005
vt  0.695569 0.282225 -0.000008
vt  0.679995 0.266593 -0.000008
vt  0.656658 0.266638 -0.000009
vt  0.999226 0.266638 -0.000026
vt  0.968113 0.235602 -0.000014
vt  0.944765 0.235602 -0.000011
vt  0.929182 0.219812 -0.000008
vt  0.506669 0.244534 -0.000005
vt  0.522268 0.260214 -0.000006
vt  0.483287 0.244534 -0.000004
vt  0.452130 0.213587 -0.000004
vt  0.428751 0.213587 -0.000004
vt  0.413157 0.197987 -0.000003
vt  0.350910 0.197987 -0.000003
vt  0.335336 0.213587 -0.000004
vt  0.311998 0.213587 -0.000004
vt  0.654566 0.213587 -0.000018
vt  0.623453 0.244534 -0.000015
vt  0.600105 0.244534 -0.000011
vt  0.584522 0.260214 -0.000010
vt  0.506656 0.772400 -0.000012
vt  0.522257 0.787892 -0.000014
vt  0.483274 0.772400 -0.000010
vt  0.452117 0.741389 -0.000010
vt  0.600098 0.772400 -0.000038
vt  0.623450 0.772400 -0.000057
vt  0.584513 0.787892 -0.000031
vt  0.428740 0.741389 -0.000012
vt  0.413147 0.725799 -0.000014
vt  0.350904 0.725799 -0.000030
vt  0.335331 0.741389 -0.000036
vt  0.311996 0.741389 -0.000050
vt  0.654565 0.741389 -0.000098
vt  0.773399 0.794489 -0.000013
vt  0.796776 0.794489 -0.000011
vt  0.757806 0.810040 -0.000016
vt  0.695563 0.810040 -0.000034
vt  0.679991 0.794489 -0.000040
vt  0.656656 0.794489 -0.000054
vt  0.999225 0.794489 -0.000106
vt  0.968110 0.763385 -0.000056
vt  0.866918 0.747833 -0.000014
vt  0.851316 0.763385 -0.000012
vt  0.827934 0.763385 -0.000010
vt  0.944759 0.763385 -0.000038
vt  0.929173 0.747833 -0.000030
vt  0.929176 0.563854 -0.000022
vt  0.413150 0.564016 -0.000011
vt  0.350906 0.564016 -0.000022
vt  0.522260 0.612659 -0.000012
vt  0.623451 0.597127 -0.000043
vt  0.796780 0.619153 -0.000009
vt  0.866921 0.572497 -0.000011
vt  0.851321 0.563854 -0.000009
vt  0.522262 0.563854 -0.000011
vt  0.335333 0.563854 -0.000026
vt  0.866922 0.563854 -0.000011
vt  0.944761 0.563854 -0.000027
vt  0.428744 0.563854 -0.000009
vt  0.827939 0.563854 -0.000008
vt  0.796782 0.563854 -0.000008
vt  0.773404 0.563854 -0.000009
vt  0.757810 0.563854 -0.000011
vt  0.695566 0.563854 -0.000022
vt  0.679993 0.563854 -0.000026
vt  0.656657 0.563854 -0.000034
vt  0.999225 0.563854 -0.000071
vt  0.968111 0.563854 -0.000040
vt  0.506661 0.563854 -0.000009
vt  0.483279 0.563854 -0.000008
vt  0.452122 0.563854 -0.000008
vt  0.311997 0.563854 -0.000034
vt  0.654565 0.563854 -0.000071
vt  0.623451 0.563854 -0.000040
vt  0.600101 0.563854 -0.000027
vt  0.584516 0.563854 -0.000022
vt  0.506660 0.597127 -0.000010
vt  0.483278 0.597127 -0.000008
vt  0.452122 0.566055 -0.000008
vt  0.600101 0.597127 -0.000029
vt  0.584516 0.612659 -0.000024
vt  0.428744 0.566055 -0.000009
vt  0.413150 0.550498 -0.000011
vt  0.350906 0.550498 -0.000021
vt  0.335333 0.566055 -0.000026
vt  0.311997 0.566055 -0.000035
vt  0.654565 0.566055 -0.000071
vt  0.773403 0.619153 -0.000010
vt  0.757809 0.634705 -0.000012
vt  0.695565 0.634705 -0.000025
vt  0.679992 0.619153 -0.000029
vt  0.656657 0.619153 -0.000039
vt  0.999225 0.619153 -0.000079
vt  0.968111 0.588049 -0.000042
vt  0.851320 0.588049 -0.000009
vt  0.827938 0.588049 -0.000008
vt  0.944761 0.588049 -0.000029
vt  0.929176 0.572497 -0.000023
vt  0.866925 0.389846 -0.000008
vt  0.851326 0.342005 -0.000006
vt  0.827945 0.342005 -0.000005
vt  0.796786 0.373069 -0.000006
vt  0.773408 0.373045 -0.000006
vt  0.757813 0.388637 -0.000007
vt  0.695568 0.388637 -0.000013
vt  0.679994 0.373045 -0.000014
vt  0.656657 0.373069 -0.000018
vt  0.999225 0.373069 -0.000042
vt  0.968113 0.342005 -0.000022
vt  0.944764 0.342005 -0.000016
vt  0.929181 0.326312 -0.000013
vt  0.506666 0.351016 -0.000006
vt  0.483284 0.351016 -0.000006
vt  0.452128 0.319999 -0.000005
vt  0.428749 0.319999 -0.000005
vt  0.413155 0.304419 -0.000006
vt  0.350909 0.304419 -0.000009
vt  0.335335 0.319999 -0.000011
vt  0.311997 0.319999 -0.000013
vt  0.654566 0.319999 -0.000034
vt  0.623453 0.351016 -0.000023
vt  0.600104 0.351016 -0.000017
vt  0.584520 0.366636 -0.000014
vt  0.827943 0.389846 -0.000006
vt  0.796786 0.389846 -0.000006
vt  0.773408 0.389846 -0.000006
vt  0.757813 0.389846 -0.000007
vt  0.695568 0.389846 -0.000013
vt  0.679994 0.389846 -0.000015
vt  0.656657 0.389846 -0.000019
vt  0.999225 0.389846 -0.000044
vt  0.968112 0.389846 -0.000026
vt  0.944763 0.389846 -0.000018
vt  0.506665 0.389846 -0.000007
vt  0.483283 0.389846 -0.000006
vt  0.452126 0.389846 -0.000006
vt  0.428748 0.389846 -0.000006
vt  0.311997 0.389846 -0.000019
vt  0.654565 0.389846 -0.000044
vt  0.623452 0.389846 -0.000026
vt  0.600103 0.389846 -0.000018
vt  0.584519 0.389846 -0.000015
vt  0.929179 0.389846 -0.000015
vt  0.413153 0.390013 -0.000007
vt  0.350908 0.390013 -0.000013
vt  0.851325 0.389846 -0.000007
vt  0.522265 0.389846 -0.000008
vt  0.335334 0.389846 -0.000015
vt  0.866927 0.326312 -0.000007
vt  0.522266 0.366636 -0.000008
vt  0.929174 0.688923 -0.000027
vt  0.413148 0.689081 -0.000013
vt  0.350904 0.689081 -0.000028
vt  0.944759 0.688923 -0.000034
vt  0.428741 0.688923 -0.000011
vt  0.827936 0.688923 -0.000009
vt  0.796779 0.688923 -0.000010
vt  0.773401 0.688923 -0.000011
vt  0.757808 0.688923 -0.000013
vt  0.695564 0.688923 -0.000028
vt  0.679992 0.688923 -0.000033
vt  0.656656 0.688923 -0.000045
vt  0.999225 0.688923 -0.000090
vt  0.968111 0.688923 -0.000050
vt  0.506658 0.688923 -0.000011
vt  0.483276 0.688923 -0.000009
vt  0.452119 0.688923 -0.000010
vt  0.311996 0.688923 -0.000045
vt  0.654565 0.688923 -0.000090
vt  0.623451 0.688923 -0.000050
vt  0.600099 0.688923 -0.000034
vt  0.584514 0.688923 -0.000027
vt  0.851318 0.688923 -0.000011
vt  0.522259 0.688923 -0.000013
vt  0.335332 0.688923 -0.000033
vt  0.866919 0.688923 -0.000013
# 600 texture vertices

vn  0.000000 0.000000 -4.000000
vn  0.000000 0.000000 -1.000000
vn  -0.995185 0.000000 0.098017
vn  -1.990369 0.000000 0.196034
vn  0.000000 2.000000 0.000000
vn  -1.990369 0.000000 0.196034
vn  0.000000 -2.000000 0.000000
vn  1.990369 0.000000 -0.196034
vn  0.000000 2.000000 0.000000
vn  1.990369 0.000000 -0.196034
vn  0.000000 -2.000000 0.000000
vn  0.000000 0.000000 -1.000000
vn  -0.098017 0.000000 0.995185
vn  -0.196034 0.000000 1.990369
vn  0.000000 -1.000000 0.000000
vn  3.000000 0.000000 0.000000
vn  1.000000 0.000000 0.000000
vn  3.000000 0.000000 0.000000
vn  2.000000 0.000000 0.000000
vn  1.000000 0.000000 0.000000
vn  5.000000 0.000000 0.000000
vn  3.000000 0.000000 0.000000
vn  0.098017 0.000000 -0.995185
vn  0.196035 0.000000 -1.990370
vn  -0.995185 0.000000 0.098017
vn  -1.990369 0.000000 0.196034
vn  0.000000 -2.000000 0.000000
vn  -1.990369 0.000000 0.196034
vn  0.000000 2.000000 0.000000
vn  0.000000 0.000000 -3.000000
vn  0.000000 0.000000 -2.000000
vn  0.000000 0.000000 -1.000000
vn  0.995185 0.000000 -0.098017
vn  1.990369 0.000000 -0.196034
vn  0.000000 -2.000000 0.000000
vn  1.990369 0.000000 -0.196034
vn  4.000000 0.000000 0.000000
vn  1.000000 0.000000 0.000000
vn  4.000000 0.000000 0.000000
vn  3.000000 0.000000 0.000000
vn  -0.098017 0.000000 0.995185
vn  -0.196034 0.000000 1.990369
vn  0.000849 -2.000000 0.000088
vn  0.196035 0.000000 -1.990369
vn  0.000000 1.000000 0.000000
vn  3.000000 0.000000 0.000000
vn  2.000000 0.000000 0.000000
vn  1.000000 0.000000 0.000000
vn  -0.658702 -0.000004 2.926444
vn  -0.689884 -0.000194 2.919249
vn  0.240391 0.000035 -0.970676
vn  1.278374 -0.136682 -4.817398
vn  -0.240393 0.000072 0.970676
vn  0.689879 -0.000222 -2.919250
vn  -0.821382 0.000311 2.884429
vn  0.771222 -0.000125 -2.898241
vn  0.821290 -0.000280 -2.884451
vn  -0.771220 -0.000150 2.898241
vn  0.821371 0.000380 -2.884432
vn  -0.771156 0.000142 2.898261
vn  -0.970536 0.000061 2.837715
vn  0.920973 -0.000390 -2.854185
vn  -0.920963 -0.000544 2.854187
vn  0.970426 -0.000114 -2.837754
vn  -0.339983 0.000000 0.940432
vn  0.680007 0.000064 -1.880849
vn  0.808125 0.000000 -1.824092
vn  -0.679896 0.000326 1.880888
vn  -0.678367 -0.092325 1.876877
vn  1.433780 0.065585 -3.729257
vn  0.339983 -0.000199 -0.940431
vn  -1.992121 0.159091 4.559521
vn  -2.926478 -0.000001 0.658557
vn  1.941447 0.000000 -0.480397
vn  0.970724 0.000000 -0.240199
vn  -1.941436 0.000075 0.480444
vn  2.926468 -0.000009 -0.658605
vn  -1.941448 0.000000 0.480397
vn  -0.970724 0.000001 0.240199
vn  -2.898369 0.000001 0.770743
vn  2.884567 0.000000 -0.820891
vn  1.941447 0.000000 -0.480397
vn  -2.884543 -0.000265 0.820971
vn  2.898357 -0.000069 -0.770792
vn  -2.838099 -0.000000 0.969443
vn  -2.854432 -0.000000 0.920241
vn  2.838099 0.000000 -0.969444
vn  1.913843 0.000000 -0.580693
vn  -2.838029 -0.000334 0.969636
vn  -1.913819 -0.000262 0.580773
vn  2.838004 0.000303 -0.969717
vn  2.854407 0.000118 -0.920321
vn  -2.740848 0.085110 1.208114
vn  -2.810505 0.000001 1.048352
vn  1.869917 0.000000 -0.708804
vn  2.741431 -0.077193 -1.208389
vn  -1.869917 -0.000035 0.708803
vn  -2.740893 -0.083702 1.208271
vn  0.000000 -2.000000 0.000000
vn  2.810435 -0.000088 -1.048546
vn  0.000000 2.000000 0.000000
vn  0.000000 1.000000 0.000000
vn  0.000000 1.000000 0.000000
vn  0.000000 -2.000000 0.000000
vn  0.000000 2.000000 0.000000
vn  0.000000 1.000000 0.000000
vn  0.000000 1.000000 0.000000
vn  -1.284428 -0.000010 1.533051
vn  1.012670 1.496064 0.849971
vn  -1.284441 0.000000 1.533040
vn  -1.032898 -1.474769 -0.861277
vn  0.642220 0.000000 -0.766520
vn  1.047076 1.454792 0.878857
vn  -0.642221 0.000000 0.766520
vn  1.284185 -0.000208 -1.533254
vn  -0.666901 -0.080807 0.740752
vn  -1.295686 -0.080807 1.518331
vn  -1.029068 -1.497177 -0.830952
vn  0.691370 0.094947 -0.716235
vn  -1.064105 -1.455935 -0.859237
vn  0.522031 0.722165 0.453831
vn  -2.201798 0.017856 2.036492
vn  0.871506 1.499147 0.995440
vn  -1.506518 0.017182 1.314828
vn  0.742289 -0.033709 -0.669231
vn  1.494893 -0.033709 -1.327704
vn  0.901251 1.457997 1.029409
vn  -0.685627 -0.032397 0.727232
vn  -1.284441 0.000000 1.533040
vn  1.014157 -1.496072 0.848183
vn  1.048636 -1.454782 0.877013
vn  1.284441 0.000000 -1.533040
vn  -1.495517 -0.036778 1.326843
vn  0.870413 -1.499294 0.996194
vn  2.202169 0.017566 -2.036093
vn  0.900125 -1.458149 1.030200
vn  1.507242 0.015211 -1.314056
vn  -0.742681 -0.036777 0.668634
vn  0.685590 -0.031724 -0.727296
vn  -0.691484 0.097035 0.715845
vn  -1.027118 1.497365 -0.833032
vn  0.494470 -0.755104 0.430484
vn  1.061586 -1.477260 0.826553
vn  1.296853 -0.073650 -1.518052
vn  -1.062692 1.456107 -0.860582
vn  0.000000 -1.000000 0.000000
vn  -2.898333 0.000080 0.770871
vn  -2.866918 -0.150642 0.828193
vn  1.941436 -0.000066 -0.480446
vn  2.884531 0.000242 -0.821020
vn  0.000000 -1.000000 0.000000
vn  0.000000 -2.000000 0.000000
vn  -0.970347 0.000136 2.837778
vn  0.000000 -1.000000 0.000000
vn  0.000000 -1.000000 0.000000
vn  0.920893 0.000500 -2.854213
vn  0.000000 -2.000000 0.000000
vn  -0.821278 -0.000412 2.884455
vn  -1.277924 -0.150440 4.815438
vn  0.240298 -0.000066 -0.970699
vn  0.771140 0.000140 -2.898265
vn  0.000000 -2.000000 0.000000
vn  0.000000 1.000000 0.000000
vn  -0.921012 0.000429 2.854170
vn  -0.753272 0.072968 1.848079
vn  -1.223535 -1.476417 -0.559882
vn  0.290460 -0.000120 -0.956887
vn  0.000000 1.000000 0.000000
vn  0.169175 -0.752836 0.636095
vn  0.485700 -1.493878 1.228269
vn  -0.216594 0.742726 -0.633596
vn  -0.525983 1.497207 -1.212420
vn  -1.847989 0.072854 0.753537
vn  0.559626 -1.477104 1.222830
vn  1.854220 -0.084050 -0.737379
vn  -0.543879 1.455980 -1.253688
vn  1.879855 -0.124134 -0.654829
vn  0.502161 -1.452519 1.269875
vn  1.898159 -0.136913 -0.588405
vn  -0.466064 1.470635 -1.259153
vn  -0.675041 0.024308 0.737380
vn  0.674985 0.023834 -0.737447
vn  0.000000 -1.000000 0.000000
vn  0.000000 -2.000000 0.000000
vn  -0.642320 0.000000 0.766437
vn  0.000000 1.000000 0.000000
vn  -0.642320 0.000000 0.766436
vn  0.000000 -1.000000 0.000000
vn  0.642320 0.000000 -0.766437
vn  0.000000 1.000000 0.000000
vn  0.642320 0.000000 -0.766437
vn  0.000000 -1.000000 0.000000
vn  -0.642320 0.000000 0.766436
vn  -1.284641 0.000000 1.532873
vn  0.000000 -1.000000 0.000000
vn  -0.642320 0.000000 0.766437
vn  0.000000 1.000000 0.000000
vn  0.000000 1.000000 0.000000
vn  0.000000 2.000000 0.000000
vn  0.642320 0.000000 -0.766437
vn  0.000000 -1.000000 0.000000
vn  0.642320 0.000000 -0.766437
vn  -1.284641 -0.000001 1.532873
vn  0.642320 0.000000 -0.766437
vn  -0.642320 0.000000 0.766436
vn  0.000000 -1.000000 0.000000
vn  -1.973062 0.000000 0.307197
vn  -3.904250 0.000000 0.776604
vn  -0.995185 0.000000 0.098017
vn  0.000000 1.000000 0.000000
vn  -0.995185 0.000000 0.098017
vn  0.000000 -1.000000 0.000000
vn  0.995185 0.000000 -0.098017
vn  0.000000 1.000000 0.000000
vn  0.995185 0.000000 -0.098017
vn  0.000000 -1.000000 0.000000
vn  -0.995185 0.000000 0.098017
vn  0.000000 -1.000000 0.000000
vn  -0.995185 0.000000 0.098017
vn  0.000000 1.000000 0.000000
vn  1.973062 0.000000 -0.307196
vn  3.904250 0.000000 -0.776604
vn  0.995185 0.000000 -0.098017
vn  0.000000 -1.000000 0.000000
vn  0.995185 0.000000 -0.098017
vn  -1.990369 0.000000 0.196034
vn  0.995185 0.000000 -0.098017
vn  -0.995185 0.000000 0.098017
vn  -0.000088 -1.000000 -0.000441
vn  -1.990369 0.000000 0.196034
vn  1.830986 -0.077193 -0.794760
vn  -1.830498 -0.083702 0.794530
vn  -1.830403 0.085110 0.794485
vn  -0.956940 0.000000 0.290285
vn  1.831064 0.075916 -0.794797
vn  -0.956940 0.000000 0.290285
vn  -1.913881 0.000000 0.580569
vn  0.000000 2.000000 0.000000
vn  -1.913881 0.000000 0.580569
vn  0.000000 -2.000000 0.000000
vn  1.913881 0.000000 -0.580570
vn  0.000000 2.000000 0.000000
vn  1.913881 0.000000 -0.580570
vn  -1.913881 0.000000 0.580569
vn  0.000000 -2.000000 0.000000
vn  -1.913881 0.000000 0.580569
vn  0.956940 0.000000 -0.290285
vn  1.913881 0.000000 -0.580570
vn  0.000000 -2.000000 0.000000
vn  1.913881 0.000000 -0.580570
vn  0.000000 -2.000000 0.000000
vn  -0.580570 0.000000 1.913880
vn  0.000000 2.000000 0.000000
vn  0.000000 -2.000000 0.000000
vn  -0.290285 0.000000 0.956940
vn  0.000000 1.000000 0.000000
vn  -0.290285 0.000000 0.956940
vn  0.000000 -1.000000 0.000000
vn  0.290285 0.000000 -0.956940
vn  0.000000 1.000000 0.000000
vn  0.290285 0.000000 -0.956940
vn  0.000000 -4.000000 0.000000
vn  -0.290285 0.000000 0.956940
vn  0.000000 -1.000000 0.000000
vn  -0.290285 0.000000 0.956940
vn  0.000000 4.000000 0.000000
vn  0.000000 2.000000 0.000000
vn  0.290285 0.000000 -0.956940
vn  0.000000 -1.000000 0.000000
vn  0.290285 0.000000 -0.956940
vn  -0.196034 0.000000 1.990369
vn  -0.098017 0.000000 0.995185
vn  0.196035 0.000000 -1.990370
vn  0.098017 0.000000 -0.995185
vn  -0.290285 0.000000 0.956940
vn  -0.196034 0.000000 1.990369
vn  -0.098017 0.000000 0.995185
vn  0.000441 -1.000000 0.000088
vn  0.098017 0.000000 -0.995185
vn  0.000000 -2.000000 0.000000
vn  -0.580570 0.000000 1.913881
vn  0.000000 2.000000 0.000000
vn  -0.580570 0.000000 1.913880
vn  0.000000 -2.000000 0.000000
vn  0.580570 0.000000 -1.913880
vn  0.000000 2.000000 0.000000
vn  0.580569 0.000000 -1.913881
vn  -0.580570 0.000000 1.913880
vn  0.000000 -2.000000 0.000000
vn  -0.580570 0.000000 1.913881
vn  0.000000 2.000000 0.000000
vn  0.580569 0.000000 -1.913881
vn  0.000000 -2.000000 0.000000
vn  0.580570 0.000000 -1.913880
vn  -0.398680 0.000000 0.917090
vn  -0.737134 -0.092549 1.853511
vn  0.590839 -0.742410 0.315810
vn  -0.366687 0.000013 0.930344
vn  -0.588002 -0.150686 1.896197
vn  -1.396264 0.000000 2.641360
vn  0.613192 -0.718728 0.327758
vn  0.366733 0.000000 -0.930326
vn  -0.600610 0.732714 -0.319996
vn  0.398613 -0.000247 -0.917119
vn  0.610962 -0.721166 0.326566
vn  0.414707 0.000000 -0.909955
vn  -0.366759 0.000000 0.930316
vn  -0.604982 0.131279 1.892613
vn  -0.592365 -0.740845 -0.316626
vn  -0.398660 -0.000013 0.917099
vn  0.579139 0.754171 0.309556
vn  -0.414552 0.000000 0.910026
vn  -0.610452 -0.721721 -0.326293
vn  0.398664 0.000000 -0.917097
vn  0.598843 0.734119 0.320088
vn  0.366712 0.000248 -0.930334
vn  0.588469 -0.136860 -1.898154
vn  1.396245 0.000000 -2.641367
vn  -0.917081 0.000000 0.398700
vn  -1.853548 -0.092726 0.736978
vn  -0.315629 -0.742758 -0.590499
vn  -0.930344 0.000013 0.366687
vn  -0.326388 -0.721527 -0.610630
vn  -0.545855 -1.456020 -1.252779
vn  0.910039 0.000000 -0.414522
vn  0.310313 0.752770 0.580553
vn  -0.936583 0.000000 0.350445
vn  -0.654595 -1.439342 -1.224661
vn  0.499338 1.452334 1.271204
vn  0.320829 0.732662 0.600230
vn  -0.309389 0.754481 -0.578824
vn  -0.525983 1.497207 -1.212420
vn  -0.910007 0.000000 0.414592
vn  0.326119 -0.722075 0.610126
vn  0.917067 0.000000 -0.398733
vn  -0.319900 0.734488 -0.598491
vn  0.930358 0.000000 -0.366652
vn  -0.310785 0.751894 -0.581436
vn  0.485700 -1.493878 1.228269
vn  0.316524 -0.741041 0.592174
vn  0.327263 -0.719742 0.612266
vn  0.936581 0.000000 -0.350451
vn  0.741182 0.000000 -0.671305
vn  -0.741181 0.000000 0.671305
vn  0.000000 -1.000000 0.000000
vn  -1.663320 0.000001 1.110570
vn  -0.430622 -0.733804 -0.525449
vn  -0.424908 0.742047 -0.518478
vn  -1.495517 -0.036778 1.326843
vn  0.000000 -2.000000 0.000000
vn  -1.482363 0.000000 1.342609
vn  0.000000 2.000000 0.000000
vn  -1.482363 -0.000002 1.342609
vn  1.482363 0.000000 -1.342609
vn  -1.482363 0.000000 1.342609
vn  0.000000 -3.000000 0.000000
vn  -0.741182 0.000000 0.671304
vn  0.000000 1.000000 0.000000
vn  -0.741181 0.000000 0.671305
vn  0.000000 -1.000000 0.000000
vn  0.741182 0.000000 -0.671305
vn  0.000000 1.000000 0.000000
vn  0.741182 0.000000 -0.671305
vn  -0.741181 0.000000 0.671305
vn  0.000000 -1.000000 0.000000
vn  -0.741182 0.000000 0.671304
vn  0.000000 3.000000 0.000000
vn  0.741182 0.000000 -0.671305
vn  0.000000 -1.000000 0.000000
vn  0.741182 0.000000 -0.671305
vn  -0.831660 0.000001 0.555285
vn  -0.732458 -1.495934 -1.099348
vn  -0.831663 0.000009 0.555280
vn  -0.757356 -1.454627 -1.136726
vn  1.663321 0.000000 -1.110569
vn  0.734946 1.495399 1.098408
vn  -0.831660 0.000000 0.555285
vn  1.494893 -0.033709 -1.327704
vn  0.752604 0.000000 -0.658473
vn  0.759904 1.454095 1.135698
vn  -0.734656 1.495864 -1.097974
vn  -1.663321 0.000000 1.110570
vn  0.743246 -1.474615 1.119519
vn  0.831660 0.000000 -0.555285
vn  -0.759619 1.454583 -1.135269
vn  0.831660 -0.000000 -0.555285
vn  -0.752836 -0.000001 0.658209
vn  0.732705 -1.495537 1.099718
vn  0.757578 -1.454243 1.137063
vn  0.831660 0.000001 -0.555286
vn  -0.642320 0.000000 0.766436
vn  -1.284441 0.000000 1.533040
vn  0.549490 -0.742152 0.383759
vn  -1.333702 0.097045 1.482367
vn  -0.537741 0.754536 -0.376177
vn  1.061586 -1.477260 0.826553
vn  0.567116 -0.722156 0.396068
vn  0.629060 0.000000 -0.777357
vn  -0.556577 0.734575 -0.388100
vn  0.642137 -0.000208 -0.766590
vn  0.568193 -0.720895 0.396821
vn  0.642220 0.000000 -0.766520
vn  -0.628785 0.000000 0.777579
vn  -0.548982 -0.742711 -0.383404
vn  -0.642216 -0.000010 0.766524
vn  0.538618 0.753917 0.376166
vn  -0.642221 0.000000 0.766520
vn  -0.568214 -0.720871 -0.396835
vn  1.284441 0.000000 -1.533040
vn  0.556890 0.733901 0.388926
vn  1.333538 0.095157 -1.482799
vn  -0.567697 -0.721476 -0.396475
vn  1.059521 1.477277 0.829209
vn  -0.642320 0.000000 0.766437
vn  -1.284640 0.000000 1.532873
vn  0.000000 2.000000 0.000000
vn  -1.284641 0.000000 1.532873
vn  0.000000 -2.000000 0.000000
vn  1.284640 0.000000 -1.532873
vn  0.000000 2.000000 0.000000
vn  1.284640 0.000000 -1.532873
vn  0.000000 -2.000000 0.000000
vn  -1.284641 0.000000 1.532873
vn  0.000000 -2.000000 0.000000
vn  -1.284640 0.000000 1.532873
vn  0.000000 2.000000 0.000000
vn  0.642320 0.000000 -0.766437
vn  1.284640 0.000000 -1.532873
vn  0.000000 -2.000000 0.000000
vn  1.284640 0.000000 -1.532873
vn  1.284640 0.000000 -1.532873
vn  -1.284641 0.000000 1.532873
vn  0.000000 -2.000000 0.000000
vn  -1.284641 -0.000001 1.532873
vn  -0.642320 0.000000 0.766436
vn  1.284640 0.000000 -1.532873
vn  -0.642221 0.000000 0.766520
vn  -1.295686 -0.080807 1.518331
vn  0.910446 0.000000 -0.413628
vn  -0.910395 0.000000 0.413741
vn  0.000000 -1.000000 0.000000
vn  1.812103 -0.077193 -0.839134
vn  -1.811564 -0.083868 0.839017
vn  -0.904356 0.000000 0.426779
vn  -1.808712 0.000000 0.853558
vn  0.000000 2.000000 0.000000
vn  -1.808712 0.000000 0.853559
vn  0.000000 -2.000000 0.000000
vn  1.808712 0.000000 -0.853558
vn  0.000000 2.000000 0.000000
vn  1.808712 0.000000 -0.853558
vn  -1.808712 0.000000 0.853559
vn  0.000000 -2.000000 0.000000
vn  -1.808712 0.000000 0.853558
vn  0.904356 0.000000 -0.426779
vn  1.808712 0.000000 -0.853558
vn  0.000000 -2.000000 0.000000
vn  1.808712 0.000000 -0.853558
vn  -1.811520 0.085110 0.838859
vn  -0.904356 0.000000 0.426779
vn  1.812131 0.076067 -0.839283
vn  -0.910446 0.000000 0.413629
# 462 vertex normals

g beam
usemtl ENV_ARC_TBeam_16x256_V01_M
s 1
f 271/393/271 272/394/272 14/38/14
f 14/38/14 13/37/13 271/393/271
s 2
f 14/38/14 272/394/272 280/402/280
f 280/402/280 15/39/15 14/38/14
s 1
f 4/28/4 209/325/209 208/324/208
f 208/324/208 3/27/3 4/28/4
s 2
f 5/29/5 210/326/210 209/325/209
f 209/325/209 4/28/4 5/29/5
s 1
f 6/30/6 211/327/211 210/326/210
f 210/326/210 5/29/5 6/30/6
s 2
f 7/31/7 212/328/212 211/327/211
f 211/327/211 6/30/6 7/31/7
s 1
f 8/32/8 213/329/213 212/328/212
f 212/328/212 7/31/7 8/32/8
s 2
f 9/33/9 214/330/214 213/329/213
f 213/329/213 8/32/8 9/33/9
s 1
f 10/34/10 215/332/215 214/331/214
f 214/331/214 9/49/9 10/34/10
s 2
f 11/35/11 216/333/216 215/332/215
f 215/332/215 10/34/10 11/35/11
s 1
f 273/395/273 274/396/274 24/48/24
f 24/48/24 23/47/23 273/395/273
s 2
f 274/396/274 271/393/271 13/37/13
f 13/37/13 24/48/24 274/396/274
s 4
f 1/1/1 12/12/12 11/11/11
f 1/1/1 11/11/11 10/10/10
f 1/1/1 10/10/10 3/3/3
f 1/1/1 3/3/3 2/2/2
f 21/21/21 22/22/22 15/15/15
f 15/15/15 16/16/16 21/21/21
f 13/13/13 14/14/14 15/15/15
f 13/13/13 15/15/15 22/22/22
f 13/13/13 22/22/22 23/23/23
f 13/13/13 23/23/23 24/24/24
f 19/19/19 20/20/20 21/21/21
f 16/16/16 17/17/17 18/18/18
f 21/21/21 16/16/16 18/18/18
f 19/19/19 21/21/21 18/18/18
f 3/3/3 10/10/10 9/9/9
f 9/9/9 4/4/4 3/3/3
f 6/6/6 5/5/5 4/4/4
f 6/6/6 4/4/4 9/9/9
f 9/9/9 8/8/8 7/7/7
f 6/6/6 9/9/9 7/7/7
s 1
f 26/76/26 217/334/217 230/348/230
f 230/348/230 25/75/25 26/76/26
s 2
f 27/77/27 218/335/218 217/334/217
f 217/334/217 26/76/26 27/77/27
s 1
f 28/78/28 219/336/219 218/335/218
f 218/335/218 27/77/27 28/78/28
s 2
f 29/79/29 220/337/220 219/336/219
f 219/336/219 28/78/28 29/79/29
s 1
f 276/398/276 277/399/277 42/92/42
f 42/92/42 41/91/41 276/398/276
s 2
f 277/399/277 278/400/278 43/93/43
f 43/93/43 42/92/42 277/399/277
s 1
f 278/400/278 279/401/279 44/94/44
f 44/94/44 43/93/43 278/400/278
s 2
f 44/94/44 279/401/279 291/414/291
f 291/414/291 45/95/45 44/94/44
s 1
f 34/84/34 223/341/223 222/340/222
f 222/340/222 33/99/33 34/84/34
s 2
f 35/85/35 224/342/224 223/341/223
f 223/341/223 34/84/34 35/85/35
s 1
f 36/86/36 225/343/225 224/342/224
f 224/342/224 35/85/35 36/86/36
s 2
f 25/75/25 230/348/230 225/343/225
f 225/343/225 36/86/36 25/75/25
s 4
f 25/51/25 36/62/36 35/61/35
f 25/51/25 35/61/35 34/60/34
f 33/59/33 32/58/32 31/57/31
f 33/59/33 31/57/31 30/56/30
f 30/56/30 29/55/29 28/54/28
f 33/59/33 30/56/30 28/54/28
f 33/59/33 28/54/28 27/53/27
f 34/60/34 33/59/33 27/53/27
f 25/51/25 34/60/34 27/53/27
f 25/51/25 27/53/27 26/52/26
f 43/69/43 44/70/44 45/71/45
f 47/73/47 48/74/48 37/63/37
f 46/72/46 47/73/47 37/63/37
f 37/63/37 38/64/38 39/65/39
f 46/72/46 37/63/37 39/65/39
f 45/71/45 46/72/46 39/65/39
f 45/71/45 39/65/39 40/66/40
f 40/66/40 41/67/41 42/68/42
f 45/71/45 40/66/40 42/68/42
f 43/69/43 45/71/45 42/68/42
s 1
f 50/102/50 49/101/49 60/116/60
f 60/116/60 55/109/55 50/102/50
f 52/104/52 51/103/51 56/110/56
f 56/110/56 57/111/57 52/104/52
f 159/106/159 53/105/53 58/112/58
f 58/112/58 158/113/158 159/106/159
f 54/108/54 160/107/160 161/114/161
f 161/114/161 59/115/59 54/108/54
f 55/109/55 60/116/60 164/124/164
f 164/124/164 61/117/61 55/109/55
f 57/111/57 56/110/56 62/118/62
f 62/118/62 167/119/167 57/111/57
s 2
f 105/171/105 57/111/57 167/119/167
f 167/119/167 168/172/168 105/171/105
s 1
f 158/113/158 58/112/58 63/120/63
f 63/120/63 153/121/153 158/113/158
f 59/115/59 161/114/161 156/122/156
f 156/122/156 64/123/64 59/115/59
f 61/117/61 164/124/164 72/132/72
f 72/132/72 65/125/65 61/117/61
f 167/119/167 62/118/62 66/126/66
f 66/126/66 67/127/67 167/119/167
f 153/121/153 63/120/63 68/128/68
f 68/128/68 69/129/69 153/121/153
f 64/123/64 156/122/156 70/130/70
f 70/130/70 71/131/71 64/123/64
f 93/157/93 94/158/94 233/351/233
f 93/157/93 233/351/233 459/597/459
f 93/157/93 459/597/459 462/600/462
f 96/160/96 439/575/439 442/578/442
f 96/160/96 442/578/442 231/349/231
f 95/159/95 96/160/96 231/349/231
s 2
f 93/157/93 462/600/462 439/575/439
f 439/575/439 96/160/96 93/157/93
s 1
f 98/162/98 440/576/440 443/579/443
f 98/162/98 443/579/443 232/350/232
f 97/161/97 98/162/98 232/350/232
s 2
f 99/163/99 441/577/441 440/576/440
f 440/576/440 98/162/98 99/163/99
s 1
f 99/163/99 100/164/100 235/353/235
f 99/163/99 235/353/235 461/599/461
f 99/163/99 461/599/461 441/577/441
f 2/26/2 207/323/207 226/344/226
f 226/344/226 1/25/1 2/26/2
f 12/36/12 227/345/227 216/333/216
f 216/333/216 11/35/11 12/36/12
s 2
f 1/25/1 226/344/226 227/345/227
f 227/345/227 12/36/12 1/25/1
s 1
f 30/80/30 228/346/228 220/337/220
f 220/337/220 29/79/29 30/80/30
s 2
f 31/81/31 229/347/229 228/346/228
f 228/346/228 30/80/30 31/81/31
s 1
f 32/82/32 221/338/221 229/347/229
f 229/347/229 31/81/31 32/82/32
f 80/142/80 79/141/79 78/140/78
f 78/140/78 73/133/73 80/142/80
f 82/144/82 81/143/81 74/134/74
f 74/134/74 75/135/75 82/144/82
s 2
f 75/135/75 78/140/78 79/141/79
f 75/135/75 79/141/79 102/167/102
f 75/135/75 102/167/102 106/173/106
f 75/135/75 106/173/106 82/144/82
s 1
f 147/146/147 83/145/83 76/136/76
f 76/136/76 148/137/148 147/146/147
f 84/148/84 150/147/150 149/138/149
f 149/138/149 77/139/77 84/148/84
f 86/150/86 85/149/85 79/141/79
f 79/141/79 80/142/80 86/150/86
f 88/152/88 87/151/87 81/143/81
f 81/143/81 82/144/82 88/152/88
s 2
f 107/174/107 88/152/88 82/144/82
f 82/144/82 106/173/106 107/174/107
s 1
f 90/154/90 89/153/89 83/145/83
f 83/145/83 147/146/147 90/154/90
s 2
f 104/170/104 90/154/90 147/146/147
f 147/146/147 146/168/146 104/170/104
s 1
f 92/156/92 91/155/91 150/147/150
f 150/147/150 84/148/84 92/156/92
f 94/158/94 93/157/93 85/149/85
f 85/149/85 86/150/86 94/158/94
f 96/160/96 95/159/95 87/151/87
f 87/151/87 88/152/88 96/160/96
s 2
f 103/169/103 85/149/85 93/157/93
f 93/157/93 96/160/96 88/152/88
f 93/157/93 88/152/88 107/174/107
f 103/169/103 93/157/93 107/174/107
s 1
f 98/162/98 97/161/97 89/153/89
f 89/153/89 90/154/90 98/162/98
f 100/164/100 99/163/99 91/155/91
f 91/155/91 92/156/92 100/164/100
s 2
f 101/165/101 163/166/163 164/124/164
f 164/124/164 60/116/60 101/165/101
f 103/169/103 102/167/102 79/141/79
f 79/141/79 85/149/85 103/169/103
f 107/174/107 106/173/106 102/167/102
f 102/167/102 103/169/103 107/174/107
f 152/176/152 151/175/151 150/147/150
f 150/147/150 91/155/91 152/176/152
f 157/180/157 158/177/158 153/178/153
f 153/178/153 154/179/154 157/180/157
f 162/184/162 155/181/155 156/182/156
f 156/182/156 161/183/161 162/184/162
s 1
f 90/245/90 319/445/319 320/446/320
f 320/446/320 98/257/98 90/245/90
s 4
f 104/246/104 321/447/321 319/445/319
f 319/445/319 90/245/90 104/246/104
s 1
f 146/247/146 322/448/322 321/447/321
f 321/447/321 104/246/104 146/247/146
s 4
f 91/255/91 323/449/323 324/450/324
f 324/450/324 152/254/152 91/255/91
s 1
f 99/256/99 325/451/325 323/449/323
f 323/449/323 91/255/91 99/256/99
s 4
f 98/257/98 320/446/320 325/451/325
f 325/451/325 99/256/99 98/257/98
f 147/248/147 326/452/326 322/448/322
f 322/448/322 146/247/146 147/248/147
s 1
f 148/249/148 327/453/327 326/452/326
f 326/452/326 147/248/147 148/249/148
s 4
f 149/250/149 328/454/328 327/453/327
f 327/453/327 148/249/148 149/250/149
s 1
f 378/508/378 379/509/379 126/210/126
f 126/210/126 125/209/125 378/508/378
s 4
f 151/252/151 330/456/330 329/455/329
f 329/455/329 150/251/150 151/252/151
s 1
f 324/450/324 330/457/330 151/253/151
f 151/253/151 152/254/152 324/450/324
f 172/287/172 331/458/331 332/459/332
f 332/459/332 171/286/171 172/287/172
s 4
f 173/288/173 333/460/333 331/458/331
f 331/458/331 172/287/172 173/288/173
s 1
f 174/289/174 334/461/334 333/460/333
f 333/460/333 173/288/173 174/289/174
s 4
f 175/290/175 335/462/335 334/461/334
f 334/461/334 174/289/174 175/290/175
s 1
f 176/291/176 336/463/336 335/462/335
f 335/462/335 175/290/175 176/291/176
s 4
f 177/293/177 337/465/337 336/464/336
f 336/464/336 176/292/176 177/293/177
s 1
f 349/477/349 387/519/387 133/228/133
f 133/228/133 138/233/138 349/477/349
s 2
f 170/285/170 340/468/340 339/467/339
f 339/467/339 169/284/169 170/285/170
s 4
f 332/459/332 340/468/340 170/285/170
f 170/285/170 171/286/171 332/459/332
s 1
f 178/294/178 341/469/341 337/465/337
f 337/465/337 177/293/177 178/294/178
s 2
f 179/295/179 342/470/342 341/469/341
f 341/469/341 178/294/178 179/295/179
s 4
f 180/296/180 338/466/338 342/470/342
f 342/470/342 179/295/179 180/296/180
s 1
f 129/215/129 114/216/114 392/524/392
f 392/524/392 437/573/437 129/215/129
s 8
f 130/217/130 393/525/393 392/524/392
f 392/524/392 114/216/114 130/217/130
s 1
f 181/243/181 140/236/140 394/526/394
f 181/243/181 394/526/394 393/525/393
f 130/217/130 181/243/181 393/525/393
s 4
f 141/237/141 395/527/395 394/526/394
f 394/526/394 140/236/140 141/237/141
s 1
f 299/423/299 300/424/300 159/266/159
f 159/266/159 158/265/158 299/423/299
s 4
f 143/239/143 397/529/397 396/528/396
f 396/528/396 142/238/142 143/239/143
s 1
f 144/240/144 398/530/398 397/529/397
f 397/529/397 143/239/143 144/240/144
s 4
f 145/241/145 399/531/399 398/530/398
f 398/530/398 144/240/144 145/241/145
s 1
f 115/218/115 400/533/400 399/532/399
f 139/244/139 115/218/115 399/532/399
f 145/242/145 139/244/139 399/532/399
s 8
f 131/219/131 401/534/401 400/533/400
f 400/533/400 115/218/115 131/219/131
s 1
f 132/220/132 402/535/402 401/534/401
f 401/534/401 131/219/131 132/220/132
s 8
f 129/215/129 437/573/437 402/535/402
f 402/535/402 132/220/132 129/215/129
s 1
f 117/199/117 403/536/403 438/574/438
f 438/574/438 116/198/116 117/199/117
s 8
f 118/200/118 404/537/404 403/536/403
f 403/536/403 117/199/117 118/200/118
s 4
f 108/185/108 405/538/405 404/537/404
f 128/204/128 108/185/108 404/537/404
f 118/200/118 128/204/128 404/537/404
s 8
f 109/186/109 406/539/406 405/538/405
f 405/538/405 108/185/108 109/186/109
s 4
f 110/187/110 407/540/407 406/539/406
f 406/539/406 109/186/109 110/187/110
s 2
f 111/188/111 408/541/408 407/540/407
f 407/540/407 110/187/110 111/188/111
s 4
f 111/188/111 112/189/112 409/542/409
f 409/542/409 408/541/408 111/188/111
s 8
f 113/190/113 410/543/410 409/542/409
f 409/542/409 112/189/112 113/190/113
s 4
f 182/205/182 119/201/119 411/545/411
f 182/205/182 411/545/411 410/544/410
f 113/191/113 182/205/182 410/544/410
s 8
f 120/202/120 412/546/412 411/545/411
f 411/545/411 119/201/119 120/202/120
s 1
f 317/443/317 318/444/318 52/283/52
f 52/283/52 57/282/57 317/443/317
s 4
f 116/198/116 438/574/438 413/547/413
f 413/547/413 121/203/121 116/198/116
s 2
f 350/478/350 356/484/356 184/298/184
f 184/298/184 183/297/183 350/478/350
s 1
f 415/549/415 414/548/414 184/298/184
f 184/298/184 185/299/185 415/549/415
s 2
f 416/550/416 415/549/415 185/299/185
f 185/299/185 186/300/186 416/550/416
s 1
f 417/551/417 416/550/416 186/300/186
f 186/300/186 187/301/187 417/551/417
s 2
f 418/552/418 417/551/417 187/301/187
f 187/301/187 188/302/188 418/552/418
s 1
f 419/553/419 418/552/418 188/302/188
f 188/302/188 189/303/189 419/553/419
s 2
f 420/554/420 419/553/419 189/303/189
f 189/303/189 190/304/190 420/554/420
s 1
f 421/556/421 420/555/420 190/305/190
f 190/305/190 191/306/191 421/556/421
s 2
f 422/557/422 421/556/421 191/306/191
f 191/306/191 192/307/192 422/557/422
s 1
f 423/558/423 435/571/435 194/309/194
f 194/309/194 193/308/193 423/558/423
s 2
f 424/559/424 423/558/423 193/308/193
f 193/308/193 195/310/195 424/559/424
s 1
f 425/560/425 424/559/424 195/310/195
f 195/310/195 196/311/196 425/560/425
s 2
f 426/561/426 425/560/425 196/311/196
f 196/311/196 197/312/197 426/561/426
f 352/480/352 367/496/367 199/314/199
f 199/314/199 198/313/198 352/480/352
s 1
f 428/564/428 427/563/427 199/315/199
f 199/315/199 200/316/200 428/564/428
s 2
f 429/565/429 428/564/428 200/316/200
f 200/316/200 201/317/201 429/565/429
s 1
f 430/566/430 429/565/429 201/317/201
f 201/317/201 202/318/202 430/566/430
s 2
f 435/571/435 430/566/430 202/318/202
f 202/318/202 194/309/194 435/571/435
s 1
f 434/570/434 391/523/391 203/319/203
f 203/319/203 183/297/183 434/570/434
f 431/567/431 422/557/422 192/307/192
f 192/307/192 204/320/204 431/567/431
s 2
f 391/523/391 431/567/431 204/320/204
f 204/320/204 203/319/203 391/523/391
s 1
f 432/568/432 426/561/426 197/312/197
f 197/312/197 205/321/205 432/568/432
s 2
f 433/569/433 432/568/432 205/321/205
f 205/321/205 206/322/206 433/569/433
s 1
f 436/572/436 433/569/433 206/322/206
f 206/322/206 198/313/198 436/572/436
f 237/355/237 236/354/236 208/324/208
f 208/324/208 209/325/209 237/355/237
s 2
f 238/356/238 237/355/237 209/325/209
f 209/325/209 210/326/210 238/356/238
s 1
f 239/357/239 238/356/238 210/326/210
f 210/326/210 211/327/211 239/357/239
s 2
f 240/358/240 239/357/239 211/327/211
f 211/327/211 212/328/212 240/358/240
s 1
f 241/359/241 240/358/240 212/328/212
f 212/328/212 213/329/213 241/359/241
s 2
f 242/360/242 241/359/241 213/329/213
f 213/329/213 214/330/214 242/360/242
s 1
f 243/362/243 242/361/242 214/331/214
f 214/331/214 215/332/215 243/362/243
s 2
f 95/159/95 231/349/231 243/362/243
f 87/151/87 95/159/95 243/362/243
f 81/143/81 87/151/87 243/362/243
f 74/134/74 81/143/81 243/362/243
f 216/333/216 74/134/74 243/362/243
f 216/333/216 243/362/243 215/332/215
s 1
f 244/363/244 234/352/234 230/348/230
f 230/348/230 217/334/217 244/363/244
s 2
f 245/364/245 244/363/244 217/334/217
f 217/334/217 218/335/218 245/364/245
s 1
f 246/365/246 245/364/245 218/335/218
f 218/335/218 219/336/219 246/365/246
s 2
f 97/161/97 232/350/232 246/365/246
f 89/153/89 97/161/97 246/365/246
f 83/145/83 89/153/89 246/365/246
f 76/136/76 83/145/83 246/365/246
f 220/337/220 76/136/76 246/365/246
f 220/337/220 246/365/246 219/336/219
s 1
f 248/368/248 247/367/247 222/340/222
f 222/340/222 223/341/223 248/368/248
s 2
f 249/369/249 248/368/248 223/341/223
f 223/341/223 224/342/224 249/369/249
s 1
f 250/370/250 249/369/249 224/342/224
f 224/342/224 225/343/225 250/370/250
s 2
f 234/352/234 250/370/250 225/343/225
f 225/343/225 230/348/230 234/352/234
s 1
f 73/133/73 78/140/78 226/344/226
f 226/344/226 207/323/207 73/133/73
f 75/135/75 74/134/74 216/333/216
f 216/333/216 227/345/227 75/135/75
s 2
f 78/140/78 75/135/75 227/345/227
f 227/345/227 226/344/226 78/140/78
s 1
f 148/137/148 76/136/76 220/337/220
f 220/337/220 228/346/228 148/137/148
s 2
f 149/138/149 148/137/148 228/346/228
f 228/346/228 229/347/229 149/138/149
s 1
f 77/139/77 149/138/149 229/347/229
f 229/347/229 221/338/221 77/139/77
s 2
f 2/26/2 3/27/3 208/324/208
f 208/324/208 207/323/207 2/26/2
f 32/82/32 33/83/33 222/339/222
f 222/339/222 221/338/221 32/82/32
f 73/133/73 207/323/207 208/324/208
f 80/142/80 73/133/73 208/324/208
f 86/150/86 80/142/80 208/324/208
f 94/158/94 86/150/86 208/324/208
f 233/351/233 94/158/94 208/324/208
f 233/351/233 208/324/208 236/354/236
f 77/139/77 221/338/221 222/339/222
f 84/148/84 77/139/77 222/339/222
f 92/156/92 84/148/84 222/339/222
f 100/164/100 92/156/92 222/339/222
f 235/353/235 100/164/100 222/339/222
f 235/353/235 222/339/222 247/366/247
s 1
f 445/581/445 444/580/444 236/354/236
f 236/354/236 237/355/237 445/581/445
s 2
f 446/582/446 445/581/445 237/355/237
f 237/355/237 238/356/238 446/582/446
s 1
f 447/583/447 446/582/446 238/356/238
f 238/356/238 239/357/239 447/583/447
s 2
f 448/584/448 447/583/447 239/357/239
f 239/357/239 240/358/240 448/584/448
s 1
f 449/585/449 448/584/448 240/358/240
f 240/358/240 241/359/241 449/585/449
s 2
f 450/586/450 449/585/449 241/359/241
f 241/359/241 242/360/242 450/586/450
s 1
f 451/588/451 450/587/450 242/361/242
f 242/361/242 243/362/243 451/588/451
s 2
f 442/578/442 451/588/451 243/362/243
f 243/362/243 231/349/231 442/578/442
s 1
f 452/589/452 460/598/460 234/352/234
f 234/352/234 244/363/244 452/589/452
s 2
f 453/590/453 452/589/452 244/363/244
f 244/363/244 245/364/245 453/590/453
s 1
f 454/591/454 453/590/453 245/364/245
f 245/364/245 246/365/246 454/591/454
s 2
f 443/579/443 454/591/454 246/365/246
f 246/365/246 232/350/232 443/579/443
s 1
f 456/594/456 455/593/455 247/367/247
f 247/367/247 248/368/248 456/594/456
s 2
f 457/595/457 456/594/456 248/368/248
f 248/368/248 249/369/249 457/595/457
s 1
f 458/596/458 457/595/457 249/369/249
f 249/369/249 250/370/250 458/596/458
s 2
f 460/598/460 458/596/458 250/370/250
f 250/370/250 234/352/234 460/598/460
f 434/570/434 414/548/414 254/374/254
f 254/374/254 251/371/251 434/570/434
f 436/572/436 427/562/427 267/388/267
f 267/388/267 253/373/253 436/572/436
s 1
f 281/403/281 280/402/280 254/374/254
f 254/374/254 255/375/255 281/403/281
s 2
f 282/404/282 281/403/281 255/375/255
f 255/375/255 256/376/256 282/404/282
s 1
f 283/405/283 282/404/282 256/376/256
f 256/376/256 257/377/257 283/405/283
s 2
f 284/406/284 283/405/283 257/377/257
f 257/377/257 258/378/258 284/406/284
s 1
f 285/407/285 284/406/284 258/378/258
f 258/378/258 259/379/259 285/407/285
s 2
f 286/408/286 285/407/285 259/379/259
f 259/379/259 260/380/260 286/408/286
s 1
f 287/410/287 286/409/286 260/381/260
f 260/381/260 261/382/261 287/410/287
s 2
f 51/103/51 273/395/273 287/410/287
f 56/110/56 51/103/51 287/410/287
f 62/118/62 56/110/56 287/410/287
f 66/126/66 62/118/62 287/410/287
f 262/383/262 66/126/66 287/410/287
f 262/383/262 287/410/287 261/382/261
s 1
f 288/411/288 275/397/275 252/372/252
f 252/372/252 263/384/263 288/411/288
s 2
f 289/412/289 288/411/288 263/384/263
f 263/384/263 264/385/264 289/412/289
s 1
f 290/413/290 289/412/289 264/385/264
f 264/385/264 265/386/265 290/413/290
s 2
f 53/105/53 276/398/276 290/413/290
f 58/112/58 53/105/53 290/413/290
f 63/120/63 58/112/58 290/413/290
f 68/128/68 63/120/63 290/413/290
f 266/387/266 68/128/68 290/413/290
f 266/387/266 290/413/290 265/386/265
s 1
f 292/416/292 291/415/291 267/389/267
f 267/389/267 268/390/268 292/416/292
s 2
f 293/417/293 292/416/292 268/390/268
f 268/390/268 269/391/269 293/417/293
s 1
f 294/418/294 293/417/293 269/391/269
f 269/391/269 270/392/270 294/418/294
s 2
f 275/397/275 294/418/294 270/392/270
f 270/392/270 252/372/252 275/397/275
s 1
f 49/101/49 50/102/50 272/394/272
f 272/394/272 271/393/271 49/101/49
s 2
f 65/125/65 251/371/251 254/374/254
f 61/117/61 65/125/65 254/374/254
f 55/109/55 61/117/61 254/374/254
f 50/102/50 55/109/55 254/374/254
f 272/394/272 50/102/50 254/374/254
f 272/394/272 254/374/254 280/402/280
s 1
f 51/103/51 52/104/52 274/396/274
f 274/396/274 273/395/273 51/103/51
s 2
f 52/104/52 49/101/49 271/393/271
f 271/393/271 274/396/274 52/104/52
s 1
f 53/105/53 159/106/159 277/399/277
f 277/399/277 276/398/276 53/105/53
s 2
f 159/106/159 160/107/160 278/400/278
f 278/400/278 277/399/277 159/106/159
s 1
f 160/107/160 54/108/54 279/401/279
f 279/401/279 278/400/278 160/107/160
s 2
f 71/131/71 253/373/253 267/388/267
f 64/123/64 71/131/71 267/388/267
f 59/115/59 64/123/64 267/388/267
f 54/108/54 59/115/59 267/388/267
f 279/401/279 54/108/54 267/388/267
f 279/401/279 267/388/267 291/414/291
s 1
f 16/40/16 15/39/15 280/402/280
f 280/402/280 281/403/281 16/40/16
s 2
f 17/41/17 16/40/16 281/403/281
f 281/403/281 282/404/282 17/41/17
s 1
f 18/42/18 17/41/17 282/404/282
f 282/404/282 283/405/283 18/42/18
s 2
f 19/43/19 18/42/18 283/405/283
f 283/405/283 284/406/284 19/43/19
s 1
f 20/44/20 19/43/19 284/406/284
f 284/406/284 285/407/285 20/44/20
s 2
f 21/45/21 20/44/20 285/407/285
f 285/407/285 286/408/286 21/45/21
s 1
f 22/46/22 21/50/21 286/409/286
f 286/409/286 287/410/287 22/46/22
s 2
f 23/47/23 22/46/22 287/410/287
f 287/410/287 273/395/273 23/47/23
s 1
f 38/88/38 37/87/37 275/397/275
f 275/397/275 288/411/288 38/88/38
s 2
f 39/89/39 38/88/38 288/411/288
f 288/411/288 289/412/289 39/89/39
s 1
f 40/90/40 39/89/39 289/412/289
f 289/412/289 290/413/290 40/90/40
s 2
f 41/91/41 40/90/40 290/413/290
f 290/413/290 276/398/276 41/91/41
s 1
f 46/96/46 45/100/45 291/415/291
f 291/415/291 292/416/292 46/96/46
s 2
f 47/97/47 46/96/46 292/416/292
f 292/416/292 293/417/293 47/97/47
s 1
f 48/98/48 47/97/47 293/417/293
f 293/417/293 294/418/294 48/98/48
s 2
f 37/87/37 48/98/48 294/418/294
f 294/418/294 275/397/275 37/87/37
s 1
f 153/259/153 69/258/69 296/420/296
f 296/420/296 295/419/295 153/259/153
s 8
f 154/260/154 153/259/153 295/419/295
f 295/419/295 297/421/297 154/260/154
s 1
f 157/264/157 154/260/154 297/421/297
f 297/421/297 298/422/298 157/264/157
s 4
f 158/265/158 157/264/157 298/422/298
f 298/422/298 299/423/299 158/265/158
s 1
f 395/527/395 396/528/396 300/424/300
f 300/424/300 299/423/299 395/527/395
s 4
f 160/267/160 159/266/159 300/424/300
f 300/424/300 301/425/301 160/267/160
s 1
f 161/268/161 160/267/160 301/425/301
f 301/425/301 302/426/302 161/268/161
s 4
f 162/269/162 161/268/161 302/426/302
f 302/426/302 303/427/303 162/269/162
s 1
f 155/261/155 162/270/162 303/428/303
f 303/428/303 304/429/304 155/261/155
s 8
f 156/262/156 155/261/155 304/429/304
f 304/429/304 305/430/305 156/262/156
s 1
f 70/263/70 156/262/156 305/430/305
f 305/430/305 306/431/306 70/263/70
s 8
f 69/258/69 70/263/70 306/431/306
f 306/431/306 296/420/296 69/258/69
s 1
f 60/279/60 49/271/49 308/433/308
f 308/433/308 307/432/307 60/279/60
s 8
f 101/280/101 60/279/60 307/432/307
f 307/432/307 309/434/309 101/280/101
s 4
f 163/272/163 101/280/101 309/434/309
f 309/434/309 310/435/310 163/272/163
s 8
f 164/273/164 163/272/163 310/435/310
f 310/435/310 311/436/311 164/273/164
s 4
f 165/274/165 164/273/164 311/436/311
f 311/436/311 312/437/312 165/274/165
s 2
f 166/275/166 165/274/165 312/437/312
f 312/437/312 313/438/313 166/275/166
s 4
f 167/276/167 166/275/166 313/438/313
f 313/438/313 314/439/314 167/276/167
s 8
f 168/277/168 167/276/167 314/439/314
f 314/439/314 315/440/315 168/277/168
s 4
f 105/281/105 168/278/168 315/441/315
f 315/441/315 316/442/316 105/281/105
s 8
f 57/282/57 105/281/105 316/442/316
f 316/442/316 317/443/317 57/282/57
s 1
f 412/546/412 413/547/413 318/444/318
f 318/444/318 317/443/317 412/546/412
s 4
f 49/271/49 52/283/52 318/444/318
f 318/444/318 308/433/308 49/271/49
s 1
f 319/445/319 371/501/371 346/474/346
f 346/474/346 320/446/320 319/445/319
s 4
f 372/502/372 371/501/371 319/445/319
f 319/445/319 321/447/321 372/502/372
s 1
f 322/448/322 373/503/373 372/502/372
f 372/502/372 321/447/321 322/448/322
s 4
f 374/504/374 347/475/347 324/450/324
f 324/450/324 323/449/323 374/504/374
s 1
f 375/505/375 374/504/374 323/449/323
f 323/449/323 325/451/325 375/505/375
s 4
f 346/474/346 375/505/375 325/451/325
f 325/451/325 320/446/320 346/474/346
f 376/506/376 373/503/373 322/448/322
f 322/448/322 326/452/326 376/506/376
s 1
f 327/453/327 377/507/377 376/506/376
f 376/506/376 326/452/326 327/453/327
s 4
f 378/508/378 377/507/377 327/453/327
f 327/453/327 328/454/328 378/508/378
s 1
f 149/250/149 150/251/150 329/455/329
f 329/455/329 328/454/328 149/250/149
s 4
f 380/510/380 379/509/379 329/455/329
f 329/455/329 330/456/330 380/510/380
s 1
f 347/475/347 380/511/380 330/457/330
f 330/457/330 324/450/324 347/475/347
f 381/512/381 348/476/348 332/459/332
f 332/459/332 331/458/331 381/512/381
s 4
f 382/513/382 381/512/381 331/458/331
f 331/458/331 333/460/333 382/513/382
s 1
f 383/514/383 382/513/382 333/460/333
f 333/460/333 334/461/334 383/514/383
s 4
f 335/462/335 384/515/384 383/514/383
f 383/514/383 334/461/334 335/462/335
s 1
f 385/516/385 384/515/384 335/462/335
f 335/462/335 336/463/336 385/516/385
s 4
f 337/465/337 386/518/386 385/517/385
f 385/517/385 336/464/336 337/465/337
s 1
f 180/296/180 169/284/169 339/467/339
f 339/467/339 338/466/338 180/296/180
s 2
f 388/520/388 387/519/387 339/467/339
f 339/467/339 340/468/340 388/520/388
s 4
f 348/476/348 388/520/388 340/468/340
f 340/468/340 332/459/332 348/476/348
s 1
f 389/521/389 386/518/386 337/465/337
f 337/465/337 341/469/341 389/521/389
s 2
f 342/470/342 390/522/390 389/521/389
f 389/521/389 341/469/341 342/470/342
s 4
f 349/477/349 390/522/390 342/470/342
f 342/470/342 338/466/338 349/477/349
s 1
f 183/297/183 203/319/203 353/481/353
f 353/481/353 350/478/350 183/297/183
f 204/320/204 192/307/192 354/482/354
f 354/482/354 343/471/343 204/320/204
s 2
f 203/319/203 204/320/204 343/471/343
f 343/471/343 353/481/353 203/319/203
s 1
f 205/321/205 197/312/197 355/483/355
f 355/483/355 344/472/344 205/321/205
s 2
f 206/322/206 205/321/205 344/472/344
f 344/472/344 345/473/345 206/322/206
s 1
f 198/313/198 206/322/206 345/473/345
f 345/473/345 352/480/352 198/313/198
f 328/454/328 329/455/329 379/509/379
f 379/509/379 378/508/378 328/454/328
f 338/466/338 339/467/339 387/519/387
f 387/519/387 349/477/349 338/466/338
s 2
f 459/597/459 444/580/444 356/484/356
f 356/484/356 350/478/350 459/597/459
f 461/599/461 455/592/455 367/496/367
f 367/496/367 352/480/352 461/599/461
s 1
f 185/299/185 184/298/184 356/484/356
f 356/484/356 357/485/357 185/299/185
s 2
f 186/300/186 185/299/185 357/485/357
f 357/485/357 358/486/358 186/300/186
s 1
f 187/301/187 186/300/186 358/486/358
f 358/486/358 359/487/359 187/301/187
s 2
f 188/302/188 187/301/187 359/487/359
f 359/487/359 360/488/360 188/302/188
s 1
f 189/303/189 188/302/188 360/488/360
f 360/488/360 361/489/361 189/303/189
s 2
f 190/304/190 189/303/189 361/489/361
f 361/489/361 362/490/362 190/304/190
s 1
f 191/306/191 190/305/190 362/491/362
f 362/491/362 363/492/363 191/306/191
s 2
f 192/307/192 191/306/191 363/492/363
f 363/492/363 354/482/354 192/307/192
s 1
f 193/308/193 194/309/194 351/479/351
f 351/479/351 364/493/364 193/308/193
s 2
f 195/310/195 193/308/193 364/493/364
f 364/493/364 365/494/365 195/310/195
s 1
f 196/311/196 195/310/195 365/494/365
f 365/494/365 366/495/366 196/311/196
s 2
f 197/312/197 196/311/196 366/495/366
f 366/495/366 355/483/355 197/312/197
s 1
f 200/316/200 199/315/199 367/497/367
f 367/497/367 368/498/368 200/316/200
s 2
f 201/317/201 200/316/200 368/498/368
f 368/498/368 369/499/369 201/317/201
s 1
f 202/318/202 201/317/201 369/499/369
f 369/499/369 370/500/370 202/318/202
s 2
f 194/309/194 202/318/202 370/500/370
f 370/500/370 351/479/351 194/309/194
s 1
f 371/501/371 114/193/114 129/192/129
f 129/192/129 346/474/346 371/501/371
s 4
f 130/194/130 114/193/114 371/501/371
f 371/501/371 372/502/372 130/194/130
s 1
f 122/206/122 181/213/181 130/194/130
f 122/206/122 130/194/130 372/502/372
f 373/503/373 122/206/122 372/502/372
s 4
f 131/196/131 115/195/115 347/475/347
f 347/475/347 374/504/374 131/196/131
s 1
f 132/197/132 131/196/131 374/504/374
f 374/504/374 375/505/375 132/197/132
s 4
f 129/192/129 132/197/132 375/505/375
f 375/505/375 346/474/346 129/192/129
f 123/207/123 122/206/122 373/503/373
f 373/503/373 376/506/376 123/207/123
s 1
f 124/208/124 123/207/123 376/506/376
f 376/506/376 377/507/377 124/208/124
s 4
f 125/209/125 124/208/124 377/507/377
f 377/507/377 378/508/378 125/209/125
f 127/211/127 126/210/126 379/509/379
f 379/509/379 380/510/380 127/211/127
s 1
f 115/195/115 139/214/139 127/212/127
f 115/195/115 127/212/127 380/511/380
f 347/475/347 115/195/115 380/511/380
f 109/222/109 108/221/108 348/476/348
f 348/476/348 381/512/381 109/222/109
s 4
f 110/223/110 109/222/109 381/512/381
f 381/512/381 382/513/382 110/223/110
s 1
f 111/224/111 110/223/110 382/513/382
f 382/513/382 383/514/383 111/224/111
s 4
f 384/515/384 112/225/112 111/224/111
f 111/224/111 383/514/383 384/515/384
s 1
f 113/226/113 112/225/112 384/515/384
f 384/515/384 385/516/385 113/226/113
s 4
f 135/230/135 182/235/182 113/227/113
f 135/230/135 113/227/113 385/517/385
f 386/518/386 135/230/135 385/517/385
s 2
f 134/229/134 133/228/133 387/519/387
f 387/519/387 388/520/388 134/229/134
s 4
f 108/221/108 128/234/128 134/229/134
f 108/221/108 134/229/134 388/520/388
f 348/476/348 108/221/108 388/520/388
s 1
f 136/231/136 135/230/135 386/518/386
f 386/518/386 389/521/389 136/231/136
s 2
f 137/232/137 136/231/136 389/521/389
f 389/521/389 390/522/390 137/232/137
s 4
f 138/233/138 137/232/137 390/522/390
f 390/522/390 349/477/349 138/233/138
s 1
f 295/419/295 296/420/296 437/573/437
f 437/573/437 392/524/392 295/419/295
s 8
f 297/421/297 295/419/295 392/524/392
f 392/524/392 393/525/393 297/421/297
s 1
f 298/422/298 297/421/297 393/525/393
f 393/525/393 394/526/394 298/422/298
s 4
f 299/423/299 298/422/298 394/526/394
f 394/526/394 395/527/395 299/423/299
f 301/425/301 300/424/300 396/528/396
f 396/528/396 397/529/397 301/425/301
s 1
f 398/530/398 302/426/302 301/425/301
f 301/425/301 397/529/397 398/530/398
s 4
f 303/427/303 302/426/302 398/530/398
f 398/530/398 399/531/399 303/427/303
s 1
f 400/533/400 304/429/304 303/428/303
f 303/428/303 399/532/399 400/533/400
s 8
f 305/430/305 304/429/304 400/533/400
f 400/533/400 401/534/401 305/430/305
s 1
f 402/535/402 306/431/306 305/430/305
f 305/430/305 401/534/401 402/535/402
s 8
f 296/420/296 306/431/306 402/535/402
f 402/535/402 437/573/437 296/420/296
s 1
f 403/536/403 307/432/307 308/433/308
f 308/433/308 438/574/438 403/536/403
s 8
f 309/434/309 307/432/307 403/536/403
f 403/536/403 404/537/404 309/434/309
s 4
f 405/538/405 310/435/310 309/434/309
f 309/434/309 404/537/404 405/538/405
s 8
f 311/436/311 310/435/310 405/538/405
f 405/538/405 406/539/406 311/436/311
s 4
f 407/540/407 312/437/312 311/436/311
f 311/436/311 406/539/406 407/540/407
s 2
f 313/438/313 312/437/312 407/540/407
f 407/540/407 408/541/408 313/438/313
s 4
f 314/439/314 313/438/313 408/541/408
f 408/541/408 409/542/409 314/439/314
s 8
f 315/440/315 314/439/314 409/542/409
f 409/542/409 410/543/410 315/440/315
s 4
f 316/442/316 315/441/315 410/544/410
f 410/544/410 411/545/411 316/442/316
s 8
f 317/443/317 316/442/316 411/545/411
f 411/545/411 412/546/412 317/443/317
s 4
f 308/433/308 318/444/318 413/547/413
f 413/547/413 438/574/438 308/433/308
s 1
f 255/375/255 254/374/254 414/548/414
f 414/548/414 415/549/415 255/375/255
s 2
f 256/376/256 255/375/255 415/549/415
f 415/549/415 416/550/416 256/376/256
s 1
f 257/377/257 256/376/256 416/550/416
f 416/550/416 417/551/417 257/377/257
s 2
f 258/378/258 257/377/257 417/551/417
f 417/551/417 418/552/418 258/378/258
s 1
f 259/379/259 258/378/258 418/552/418
f 418/552/418 419/553/419 259/379/259
s 2
f 260/380/260 259/379/259 419/553/419
f 419/553/419 420/554/420 260/380/260
s 1
f 261/382/261 260/381/260 420/555/420
f 420/555/420 421/556/421 261/382/261
s 2
f 262/383/262 261/382/261 421/556/421
f 421/556/421 422/557/422 262/383/262
s 1
f 263/384/263 252/372/252 435/571/435
f 435/571/435 423/558/423 263/384/263
s 2
f 264/385/264 263/384/263 423/558/423
f 423/558/423 424/559/424 264/385/264
s 1
f 265/386/265 264/385/264 424/559/424
f 424/559/424 425/560/425 265/386/265
s 2
f 266/387/266 265/386/265 425/560/425
f 425/560/425 426/561/426 266/387/266
s 1
f 268/390/268 267/389/267 427/563/427
f 427/563/427 428/564/428 268/390/268
s 2
f 269/391/269 268/390/268 428/564/428
f 428/564/428 429/565/429 269/391/269
s 1
f 270/392/270 269/391/269 429/565/429
f 429/565/429 430/566/430 270/392/270
s 2
f 252/372/252 270/392/270 430/566/430
f 430/566/430 435/571/435 252/372/252
s 1
f 251/371/251 65/125/65 72/132/72
f 434/570/434 251/371/251 72/132/72
f 434/570/434 72/132/72 391/523/391
f 431/567/431 67/127/67 66/126/66
f 431/567/431 66/126/66 262/383/262
f 431/567/431 262/383/262 422/557/422
s 2
f 72/132/72 67/127/67 431/567/431
f 431/567/431 391/523/391 72/132/72
s 1
f 432/568/432 69/129/69 68/128/68
f 432/568/432 68/128/68 266/387/266
f 432/568/432 266/387/266 426/561/426
s 2
f 70/130/70 69/129/69 432/568/432
f 432/568/432 433/569/433 70/130/70
s 1
f 253/373/253 71/131/71 70/130/70
f 436/572/436 253/373/253 70/130/70
f 436/572/436 70/130/70 433/569/433
s 2
f 183/297/183 184/298/184 414/548/414
f 414/548/414 434/570/434 183/297/183
f 198/313/198 199/314/199 427/562/427
f 427/562/427 436/572/436 198/313/198
s 1
f 141/237/141 142/238/142 396/528/396
f 396/528/396 395/527/395 141/237/141
f 120/202/120 121/203/121 413/547/413
f 413/547/413 412/546/412 120/202/120
f 350/478/350 353/481/353 462/600/462
f 462/600/462 459/597/459 350/478/350
f 343/471/343 354/482/354 442/578/442
f 442/578/442 439/575/439 343/471/343
s 2
f 353/481/353 343/471/343 439/575/439
f 439/575/439 462/600/462 353/481/353
s 1
f 344/472/344 355/483/355 443/579/443
f 443/579/443 440/576/440 344/472/344
s 2
f 345/473/345 344/472/344 440/576/440
f 440/576/440 441/577/441 345/473/345
s 1
f 352/480/352 345/473/345 441/577/441
f 441/577/441 461/599/461 352/480/352
f 357/485/357 356/484/356 444/580/444
f 444/580/444 445/581/445 357/485/357
s 2
f 358/486/358 357/485/357 445/581/445
f 445/581/445 446/582/446 358/486/358
s 1
f 359/487/359 358/486/358 446/582/446
f 446/582/446 447/583/447 359/487/359
s 2
f 360/488/360 359/487/359 447/583/447
f 447/583/447 448/584/448 360/488/360
s 1
f 361/489/361 360/488/360 448/584/448
f 448/584/448 449/585/449 361/489/361
s 2
f 362/490/362 361/489/361 449/585/449
f 449/585/449 450/586/450 362/490/362
s 1
f 363/492/363 362/491/362 450/587/450
f 450/587/450 451/588/451 363/492/363
s 2
f 354/482/354 363/492/363 451/588/451
f 451/588/451 442/578/442 354/482/354
s 1
f 364/493/364 351/479/351 460/598/460
f 460/598/460 452/589/452 364/493/364
s 2
f 365/494/365 364/493/364 452/589/452
f 452/589/452 453/590/453 365/494/365
s 1
f 366/495/366 365/494/365 453/590/453
f 453/590/453 454/591/454 366/495/366
s 2
f 355/483/355 366/495/366 454/591/454
f 454/591/454 443/579/443 355/483/355
s 1
f 368/498/368 367/497/367 455/593/455
f 455/593/455 456/594/456 368/498/368
s 2
f 369/499/369 368/498/368 456/594/456
f 456/594/456 457/595/457 369/499/369
s 1
f 370/500/370 369/499/369 457/595/457
f 457/595/457 458/596/458 370/500/370
s 2
f 351/479/351 370/500/370 458/596/458
f 458/596/458 460/598/460 351/479/351
f 233/351/233 236/354/236 444/580/444
f 444/580/444 459/597/459 233/351/233
f 235/353/235 247/366/247 455/592/455
f 455/592/455 461/599/461 235/353/235
# 882 faces

g
