# Max2Obj Version 4.0 Mar 10th, 2001
#
mtllib ./tris.mtl
g
# object beam to come ...
#
v  52.997570 0.000000 0.000000
v  51.979237 10.339314 0.000000
v  48.963367 20.281294 0.000000
v  44.065868 29.443872 0.000000
v  37.474941 37.474941 0.000000
v  29.443871 44.065872 0.000000
v  20.281292 48.963367 0.000000
v  10.339314 51.979237 0.000000
v  0.000004 52.997570 0.000000
v  -10.339307 51.979237 0.000000
v  -20.281284 48.963371 0.000000
v  -29.443871 44.065872 0.000000
v  -37.474941 37.474941 0.000000
v  -44.065872 29.443871 0.000000
v  -48.963375 20.281284 0.000000
v  -51.979237 10.339300 0.000000
v  -52.997570 -0.000017 0.000000
v  -51.979233 -10.339334 0.000000
v  -48.963360 -20.281315 0.000000
v  -44.065853 -29.443899 0.000000
v  -37.474918 -37.474964 0.000000
v  -29.443842 -44.065891 0.000000
v  -20.281252 -48.963387 0.000000
v  -10.339268 -51.979244 0.000000
v  0.000051 -52.997570 0.000000
v  10.339368 -51.979225 0.000000
v  20.281347 -48.963348 0.000000
v  29.443926 -44.065834 0.000000
v  37.474987 -37.474892 0.000000
v  44.065910 -29.443813 0.000000
v  48.963402 -20.281221 0.000000
v  51.979252 -10.339233 0.000000
v  52.997570 0.000000 3.000000
v  51.979237 10.339314 3.000000
v  48.963367 20.281294 3.000000
v  44.065868 29.443872 3.000000
v  37.474941 37.474941 3.000000
v  29.443871 44.065872 3.000000
v  20.281292 48.963367 3.000000
v  10.339314 51.979237 3.000000
v  0.000004 52.997570 3.000000
v  -10.339307 51.979237 3.000000
v  -20.281284 48.963371 3.000000
v  -29.443871 44.065872 3.000000
v  -37.474941 37.474941 3.000000
v  -44.065872 29.443871 3.000000
v  -48.963375 20.281284 3.000000
v  -51.979237 10.339300 3.000000
v  -52.997570 -0.000017 3.000000
v  -51.979233 -10.339334 3.000000
v  -48.963360 -20.281315 3.000000
v  -44.065853 -29.443899 3.000000
v  -37.474918 -37.474964 3.000000
v  -29.443842 -44.065891 3.000000
v  -20.281252 -48.963387 3.000000
v  -10.339268 -51.979244 3.000000
v  0.000051 -52.997570 3.000000
v  10.339368 -51.979225 3.000000
v  20.281347 -48.963348 3.000000
v  29.443926 -44.065834 3.000000
v  37.474987 -37.474892 3.000000
v  44.065910 -29.443813 3.000000
v  48.963402 -20.281221 3.000000
v  51.979252 -10.339233 3.000000
v  54.675804 -0.053522 4.000000
v  53.328091 0.007994 4.814573
v  51.979736 0.053522 4.000000
v  53.327454 -0.007993 3.185427
v  49.905834 -20.719633 4.076893
v  48.652996 -20.143860 4.889570
v  47.399326 -19.585489 4.073107
v  48.652164 -20.161261 3.260430
v  37.706158 -37.769592 4.153852
v  36.767250 -36.755363 4.964563
v  35.825275 -35.761852 4.146147
v  36.764183 -36.776089 3.335437
v  20.126524 -48.708401 4.230838
v  19.646671 -47.408710 5.039550
v  19.158209 -46.133347 4.219162
v  19.638062 -47.433041 3.410449
v  -0.045991 -52.036144 4.307849
v  0.008855 -50.648415 5.114533
v  0.045986 -49.286636 4.292150
v  -0.008860 -50.674366 3.485466
v  -19.701286 -47.441391 4.384887
v  -19.117500 -46.177483 5.189510
v  -18.563072 -44.936932 4.365113
v  -19.146858 -46.200840 3.560489
v  -35.885674 -35.818951 4.461952
v  -34.859631 -34.872841 5.264482
v  -33.874920 -33.941654 4.438048
v  -34.900959 -34.887760 3.635517
v  -46.245667 -19.103830 4.539045
v  -44.932156 -18.621874 5.339448
v  -43.669231 -18.140125 4.510955
v  -44.982746 -18.622082 3.710551
v  -49.369461 0.048446 4.616167
v  -47.968014 -0.009840 5.414409
v  -46.620529 -0.048439 4.583833
v  -48.021976 0.009848 3.785591
v  -44.976700 18.683104 4.693319
v  -43.701336 18.090740 5.489363
v  -42.474773 17.540487 4.656681
v  -43.750141 18.132853 3.860637
v  -33.931427 34.001831 4.770501
v  -32.977978 32.963303 5.564310
v  -32.058315 31.987946 4.729499
v  -33.011765 33.026470 3.935690
v  -18.080824 43.782883 4.847714
v  -17.596909 42.454838 5.639251
v  -17.122353 41.205181 4.802286
v  -17.606268 42.533230 4.010749
v  0.051174 46.702610 4.924960
v  -0.010974 45.286827 5.714185
v  -0.051172 43.954609 4.875041
v  0.010976 45.370392 4.085815
v  17.665125 42.511730 5.002238
v  17.063538 41.224491 5.789111
v  16.517712 40.012905 4.947762
v  17.119301 41.300144 4.160889
v  32.118046 32.043552 5.079551
v  31.066250 31.082645 5.864030
v  30.100878 30.175339 5.020450
v  31.152674 31.136248 4.235970
v  41.320011 17.057476 5.156898
v  39.976646 16.571793 5.938941
v  38.741196 16.104965 5.093102
v  40.084560 16.590652 4.311059
v  44.035538 -0.054241 5.234282
v  42.604752 0.012273 6.013843
v  41.288895 0.054226 5.165718
v  42.719685 -0.012288 4.386157
v  40.046410 -16.647373 5.311704
v  38.746868 -16.035816 6.088737
v  37.551369 -15.494711 5.238297
v  38.850910 -16.106270 4.461264
v  30.155277 -30.234344 5.389163
v  29.186792 -29.168394 6.163621
v  28.292782 -28.213728 5.310837
v  29.261269 -29.279676 4.536379
v  16.033667 -38.857079 5.466662
v  15.546468 -37.497505 6.238496
v  15.087995 -36.277306 5.383337
v  15.575193 -37.636879 4.611504
v  -0.057689 -41.368214 5.544203
v  0.013787 -39.921684 6.313361
v  0.057661 -38.623451 5.455797
v  -0.013815 -40.069981 4.686639
v  -15.629893 -37.580696 5.621786
v  -15.007487 -36.268394 6.388216
v  -14.471433 -35.090237 5.528214
v  -15.093837 -36.402538 4.761784
v  -28.350760 -28.266483 5.699412
v  -27.269642 -27.290339 6.463059
v  -26.326498 -26.410709 5.600587
v  -27.407618 -27.386854 4.836940
v  -36.394020 -15.009348 5.777084
v  -35.017239 -14.520980 6.537892
v  -33.813499 -14.071575 5.672916
v  -35.190285 -14.559943 4.912108
v  -38.700577 0.061589 5.854803
v  -37.237484 -0.015587 6.612712
v  -35.958305 -0.061588 5.745197
v  -37.421398 0.015588 4.987288
v  -35.114494 14.612725 5.932570
v  -33.788952 13.978440 6.687520
v  -32.629604 13.447814 5.817430
v  -33.955139 14.082099 5.062480
v  -26.377123 26.467264 6.010386
v  -25.393290 25.369785 6.762314
v  -24.529287 24.439093 5.889613
v  -25.513121 25.536572 5.137686
v  -13.984354 33.930859 6.088256
v  -13.495271 32.535717 6.837095
v  -13.055755 31.349836 5.961744
v  -13.544838 32.744980 5.212906
v  0.066098 36.032562 6.166179
v  -0.017686 34.551998 6.911860
v  -0.066051 33.293549 6.033822
v  0.017732 34.774113 5.288140
v  13.595961 32.647705 6.244158
v  12.948555 31.308418 6.986611
v  12.423789 30.169563 6.105843
v  13.071197 31.508850 5.363389
v  24.583956 24.486971 6.322195
v  23.468723 23.495485 7.061345
v  22.551579 22.648563 6.177805
v  23.666813 23.640051 5.438656
v  31.467531 12.958611 6.400293
v  30.052704 12.469421 7.136062
v  28.886309 12.040758 6.249707
v  30.301132 12.529947 5.513939
v  33.364086 -0.071287 6.478454
v  31.865026 0.020249 7.210761
v  30.629244 0.071265 6.321547
v  32.128304 -0.020271 5.589240
v  30.180149 -12.579738 6.556680
v  28.826614 -11.917689 7.285440
v  27.710249 -11.399289 6.393321
v  29.063784 -12.061338 5.664560
v  22.595938 -22.700809 6.634974
v  21.596937 -21.566149 7.360099
v  20.768810 -20.663836 6.465026
v  21.767809 -21.798494 5.739901
v  11.931853 -29.004030 6.713339
v  11.443385 -27.567976 7.434737
v  11.026711 -26.422985 6.536661
v  11.515180 -27.859043 5.815263
v  -0.077361 -30.695024 6.791780
v  0.023366 -29.176331 7.509353
v  0.077358 -27.965528 6.608221
v  -0.023369 -29.484228 5.890647
v  -11.564122 -27.711679 6.870296
v  -10.885549 -26.343403 7.583944
v  -10.374117 -25.251890 6.679704
v  -11.052690 -26.620169 5.966056
v  -20.817928 -20.703707 6.948895
v  -19.661818 -19.697496 7.658509
v  -18.775866 -18.890211 6.751105
v  -19.931976 -19.896421 6.041491
v  -26.540281 -10.903859 7.027578
v  -25.081156 -10.417271 7.733047
v  -23.959873 -10.013962 6.822422
v  -25.419001 -10.500550 6.116952
v  -28.025217 0.084609 7.106351
v  -26.485588 -0.027202 7.807557
v  -25.302551 -0.084574 6.893649
v  -26.842180 0.027237 6.192443
v  -25.242002 10.549336 7.185217
v  -23.858521 9.851857 7.882036
v  -22.794722 9.348123 6.964784
v  -24.178204 10.045602 6.267964
v  -18.809931 18.935390 7.264180
v  -17.797075 17.755320 7.956481
v  -17.013111 16.887589 7.035819
v  -18.025967 18.067659 6.343519
v  -9.874230 24.076237 7.343248
v  -9.391127 22.591835 8.030891
v  -9.002840 21.497072 7.106752
v  -9.485943 22.981472 6.419109
v  0.093361 25.354448 7.422424
v  -0.032057 23.792419 8.105264
v  -0.093298 22.640553 7.177576
v  0.032121 24.202581 6.494737
v  9.535660 22.770748 7.501715
v  8.816191 21.371700 8.179596
v  8.321059 20.339128 7.248285
v  9.040528 21.738176 6.570404
v  17.053303 16.914131 7.581126
v  15.846069 15.895617 8.253883
v  14.998854 15.138047 7.318873
v  16.206087 16.156563 6.646116
v  21.611811 8.842371 7.660667
v  20.099419 8.365104 8.328125
v  19.034660 7.993912 7.389333
v  20.547052 8.471179 6.721875
v  22.682375 -0.104104 7.740344
v  21.096283 0.038394 8.402317
v  19.979839 0.104102 7.459657
v  21.565933 -0.038396 6.797685
v  20.297340 -8.523502 7.820165
v  18.882597 -7.777869 8.476452
v  17.885674 -7.292474 7.529837
v  19.300417 -8.038108 6.873549
v  15.015561 -15.171832 7.900138
v  13.993056 -13.933272 8.550529
v  13.265749 -13.109504 7.599863
v  14.288256 -14.348063 6.949472
v  7.807510 -19.146851 7.980275
v  7.339552 -17.603056 8.624540
v  6.988055 -16.572769 7.669725
v  7.456013 -18.116562 7.025459
v  -0.117737 -20.008512 8.060587
v  0.046797 -18.396486 8.698483
v  0.117711 -17.320930 7.739413
v  -0.046822 -18.932957 7.101518
v  -7.513456 -17.820938 8.141087
v  -6.735899 -16.390810 8.772348
v  -6.261766 -15.435225 7.808914
v  -7.039323 -16.865355 7.177652
v  -13.291259 -13.113052 8.221786
v  -12.015716 -12.089434 8.846130
v  -11.219239 -11.397400 7.878214
v  -12.494782 -12.421020 7.253870
v  -16.681149 -6.768248 8.302702
v  -15.101542 -6.315012 8.919819
v  -14.111607 -5.986593 7.947298
v  -15.691216 -6.439828 7.330181
v  -17.332037 0.135547 8.383852
v  -15.692035 -0.058467 8.993407
v  -14.664618 -0.135505 8.016150
v  -16.304621 0.058509 7.406593
v  -15.340110 6.506567 8.465253
v  -13.895850 5.688649 9.066883
v  -12.989202 5.227899 8.084748
v  -14.433461 6.045818 7.483119
v  -11.204670 11.412038 8.546928
v  -10.185029 10.091484 9.140232
v  -9.534966 9.327591 8.153072
v  -10.554607 10.648146 7.559768
v  -5.722296 14.214352 8.628902
v  -5.292618 12.593034 9.213444
v  -4.991750 11.651567 8.221098
v  -5.421427 13.272885 7.636557
v  0.159747 14.651566 8.711204
v  -0.075524 12.981563 9.286497
v  -0.159745 12.012319 8.288797
v  0.075526 13.682322 7.713503
v  5.504676 12.852320 8.793865
v  4.633231 11.397289 9.359375
v  4.189029 10.550151 8.356136
v  5.060474 12.005182 7.790626
v  9.535014 9.286839 8.876923
v  8.157351 8.280721 9.432054
v  7.433782 7.681944 8.423078
v  8.811443 8.688064 7.867948
v  11.745736 4.665434 8.960423
v  10.074489 4.275009 9.504501
v  9.193345 4.007828 8.489577
v  10.864593 4.398253 7.945498
v  11.939856 -0.180331 9.044296
v  10.270929 0.097596 9.576727
v  9.391248 0.180316 8.555704
v  11.060175 -0.097611 8.023273
# 324 vertices

vt  0.989899 0.750000 1.000000
vt  0.989899 0.781250 1.000000
vt  0.989899 0.812500 1.000000
vt  0.989899 0.843750 1.000000
vt  0.989899 0.875000 1.000000
vt  0.989899 0.906250 1.000000
vt  0.989899 0.937500 1.000000
vt  0.989899 0.968750 1.000000
vt  0.989899 1.000000 1.000000
vt  0.989899 0.031250 1.000000
vt  0.989899 0.062500 1.000000
vt  0.989899 0.093750 1.000000
vt  0.989899 0.125000 1.000000
vt  0.989899 0.156250 1.000000
vt  0.989899 0.187500 1.000000
vt  0.989899 0.218750 1.000000
vt  0.989899 0.250000 1.000000
vt  0.989899 0.281250 1.000000
vt  0.989899 0.312500 1.000000
vt  0.989899 0.343750 1.000000
vt  0.989899 0.375000 1.000000
vt  0.989899 0.406250 1.000000
vt  0.989899 0.437500 1.000000
vt  0.989899 0.468750 1.000000
vt  0.989899 0.500000 1.000000
vt  0.989899 0.531250 1.000000
vt  0.989899 0.562500 1.000000
vt  0.989899 0.593750 1.000000
vt  0.989899 0.625000 1.000000
vt  0.989899 0.656250 1.000000
vt  0.989899 0.687500 1.000000
vt  0.989899 0.718750 1.000000
vt  0.956229 0.750000 1.000000
vt  0.956229 0.781250 1.000000
vt  0.956229 0.812500 1.000000
vt  0.956229 0.843750 1.000000
vt  0.956229 0.875000 1.000000
vt  0.956229 0.906250 1.000000
vt  0.956229 0.937500 1.000000
vt  0.956229 0.968750 1.000000
vt  0.956229 1.000000 1.000000
vt  0.956229 0.031250 1.000000
vt  0.956229 0.062500 1.000000
vt  0.956229 0.093750 1.000000
vt  0.956229 0.125000 1.000000
vt  0.956229 0.156250 1.000000
vt  0.956229 0.187500 1.000000
vt  0.956229 0.218750 1.000000
vt  0.956229 0.250000 1.000000
vt  0.956229 0.281250 1.000000
vt  0.956229 0.312500 1.000000
vt  0.956229 0.343750 1.000000
vt  0.956229 0.375000 1.000000
vt  0.956229 0.406250 1.000000
vt  0.956229 0.437500 1.000000
vt  0.956229 0.468750 1.000000
vt  0.956229 0.500000 1.000000
vt  0.956229 0.531250 1.000000
vt  0.956229 0.562500 1.000000
vt  0.956229 0.593750 1.000000
vt  0.956229 0.625000 1.000000
vt  0.956229 0.656250 1.000000
vt  0.956229 0.687500 1.000000
vt  0.956229 0.718750 1.000000
vt  0.954239 0.446128 0.500000
vt  0.989899 -0.000000 1.000000
vt  0.956229 -0.000000 1.000000
vt  0.948099 0.508471 0.500000
vt  0.929914 0.568418 0.500000
vt  0.900384 0.623665 0.500000
vt  0.860642 0.672090 0.500000
vt  0.812218 0.711831 0.500000
vt  0.756970 0.741362 0.500000
vt  0.697023 0.759547 0.500000
vt  0.634680 0.765687 0.500000
vt  0.572337 0.759547 0.500000
vt  0.512390 0.741362 0.500000
vt  0.457143 0.711831 0.500000
vt  0.408718 0.672090 0.500000
vt  0.368977 0.623665 0.500000
vt  0.339446 0.568418 0.500000
vt  0.321261 0.508471 0.500000
vt  0.315121 0.446128 0.500000
vt  0.321261 0.383785 0.500000
vt  0.339446 0.323838 0.500000
vt  0.368977 0.268590 0.500000
vt  0.408718 0.220165 0.500000
vt  0.457143 0.180424 0.500000
vt  0.512391 0.150894 0.500000
vt  0.572338 0.132709 0.500000
vt  0.634680 0.126569 0.500000
vt  0.697023 0.132709 0.500000
vt  0.756971 0.150894 0.500000
vt  0.812218 0.180425 0.500000
vt  0.860643 0.220166 0.500000
vt  0.900384 0.268591 0.500000
vt  0.929914 0.323839 0.500000
vt  0.948099 0.383786 0.500000
vt  0.960096 0.442013 -0.500000
vt  0.953682 0.508174 -0.500000
vt  0.934684 0.571793 -0.500000
vt  0.903833 0.630424 -0.500000
vt  0.862315 0.681815 -0.500000
vt  0.811725 0.723991 -0.500000
vt  0.754008 0.755330 -0.500000
vt  0.691380 0.774628 -0.500000
vt  0.626250 0.781145 -0.500000
vt  0.561120 0.774629 -0.500000
vt  0.498493 0.755330 -0.500000
vt  0.440775 0.723991 -0.500000
vt  0.390185 0.681815 -0.500000
vt  0.348667 0.630424 -0.500000
vt  0.317816 0.571793 -0.500000
vt  0.298819 0.508174 -0.500000
vt  0.292404 0.442013 -0.500000
vt  0.298819 0.375851 -0.500000
vt  0.317817 0.312232 -0.500000
vt  0.348667 0.253601 -0.500000
vt  0.390185 0.202210 -0.500000
vt  0.440775 0.160035 -0.500000
vt  0.498493 0.128695 -0.500000
vt  0.728400 -2.026112 0.000000
vt  0.736082 -2.026112 0.000000
vt  0.743765 -2.026112 0.000000
vt  0.751447 -2.026112 0.000000
vt  0.759129 -2.026112 0.000000
vt  0.728400 -1.858183 0.000000
vt  0.736082 -1.858183 0.000000
vt  0.743765 -1.858183 0.000000
vt  0.751447 -1.858183 0.000000
vt  0.759129 -1.858183 0.000000
vt  0.728400 -1.692366 0.000000
vt  0.736082 -1.692366 0.000000
vt  0.743765 -1.692366 0.000000
vt  0.751447 -1.692366 0.000000
vt  0.759129 -1.692366 0.000000
vt  0.728400 -1.528656 0.000000
vt  0.736082 -1.528656 0.000000
vt  0.743765 -1.528656 0.000000
vt  0.751447 -1.528656 0.000000
vt  0.759129 -1.528656 0.000000
vt  0.728400 -1.367058 0.000000
vt  0.736082 -1.367058 0.000000
vt  0.743765 -1.367058 0.000000
vt  0.751447 -1.367058 0.000000
vt  0.759129 -1.367058 0.000000
vt  0.728400 -1.207571 0.000000
vt  0.736082 -1.207571 0.000000
vt  0.743765 -1.207571 0.000000
vt  0.751447 -1.207571 0.000000
vt  0.759129 -1.207571 0.000000
vt  0.728400 -1.050192 0.000000
vt  0.736082 -1.050192 0.000000
vt  0.743765 -1.050192 0.000000
vt  0.751447 -1.050192 0.000000
vt  0.759129 -1.050192 0.000000
vt  0.728400 -0.894924 0.000000
vt  0.736082 -0.894924 0.000000
vt  0.743765 -0.894924 0.000000
vt  0.751447 -0.894924 0.000000
vt  0.759129 -0.894924 0.000000
vt  0.728400 -0.741766 0.000000
vt  0.736082 -0.741766 0.000000
vt  0.743765 -0.741766 0.000000
vt  0.751447 -0.741766 0.000000
vt  0.759129 -0.741766 0.000000
vt  0.728400 -0.590717 0.000000
vt  0.736082 -0.590717 0.000000
vt  0.743765 -0.590717 0.000000
vt  0.751447 -0.590717 0.000000
vt  0.759129 -0.590717 0.000000
vt  0.728400 -0.441780 0.000000
vt  0.736082 -0.441780 0.000000
vt  0.743765 -0.441780 0.000000
vt  0.751447 -0.441780 0.000000
vt  0.759129 -0.441780 0.000000
vt  0.728400 -0.294949 0.000000
vt  0.736082 -0.294949 0.000000
vt  0.743765 -0.294949 0.000000
vt  0.751447 -0.294949 0.000000
vt  0.759129 -0.294949 0.000000
vt  0.728400 -0.150230 0.000000
vt  0.736082 -0.150230 0.000000
vt  0.743765 -0.150230 0.000000
vt  0.751447 -0.150230 0.000000
vt  0.759129 -0.150230 0.000000
vt  0.728400 -0.007622 0.000000
vt  0.736082 -0.007622 0.000000
vt  0.743765 -0.007622 0.000000
vt  0.751447 -0.007622 0.000000
vt  0.759129 -0.007622 0.000000
vt  0.728400 0.132877 0.000000
vt  0.736082 0.132877 0.000000
vt  0.743765 0.132877 0.000000
vt  0.751447 0.132877 0.000000
vt  0.759129 0.132877 0.000000
vt  0.728400 0.271267 0.000000
vt  0.736082 0.271267 0.000000
vt  0.743765 0.271267 0.000000
vt  0.751447 0.271267 0.000000
vt  0.759129 0.271267 0.000000
vt  0.728400 0.407547 0.000000
vt  0.736082 0.407547 0.000000
vt  0.743765 0.407547 0.000000
vt  0.751447 0.407547 0.000000
vt  0.759129 0.407547 0.000000
vt  0.728400 0.541718 0.000000
vt  0.736082 0.541718 0.000000
vt  0.743765 0.541718 0.000000
vt  0.751447 0.541718 0.000000
vt  0.759129 0.541718 0.000000
vt  0.728400 0.673779 0.000000
vt  0.736082 0.673779 0.000000
vt  0.743765 0.673779 0.000000
vt  0.751447 0.673779 0.000000
vt  0.759129 0.673779 0.000000
vt  0.728400 0.803734 0.000000
vt  0.736082 0.803734 0.000000
vt  0.743765 0.803734 0.000000
vt  0.751447 0.803734 0.000000
vt  0.759129 0.803734 0.000000
vt  0.728400 0.931576 0.000000
vt  0.736082 0.931576 0.000000
vt  0.743765 0.931576 0.000000
vt  0.751447 0.931576 0.000000
vt  0.759129 0.931576 0.000000
vt  0.728400 1.057308 0.000000
vt  0.736082 1.057308 0.000000
vt  0.743765 1.057308 0.000000
vt  0.751447 1.057308 0.000000
vt  0.759129 1.057308 0.000000
vt  0.728400 1.180931 0.000000
vt  0.736082 1.180931 0.000000
vt  0.743765 1.180931 0.000000
vt  0.751447 1.180931 0.000000
vt  0.759129 1.180931 0.000000
vt  0.728400 1.302448 0.000000
vt  0.736082 1.302448 0.000000
vt  0.743765 1.302448 0.000000
vt  0.751447 1.302448 0.000000
vt  0.759129 1.302448 0.000000
vt  0.728400 1.421852 0.000000
vt  0.736082 1.421852 0.000000
vt  0.743765 1.421852 0.000000
vt  0.751447 1.421852 0.000000
vt  0.759129 1.421852 0.000000
vt  0.728400 1.539150 0.000000
vt  0.736082 1.539150 0.000000
vt  0.743765 1.539150 0.000000
vt  0.751447 1.539150 0.000000
vt  0.759129 1.539150 0.000000
vt  0.728400 1.654337 0.000000
vt  0.736082 1.654337 0.000000
vt  0.743765 1.654337 0.000000
vt  0.751447 1.654337 0.000000
vt  0.759129 1.654337 0.000000
vt  0.728400 1.767418 0.000000
vt  0.736082 1.767418 0.000000
vt  0.743765 1.767418 0.000000
vt  0.751447 1.767418 0.000000
vt  0.759129 1.767418 0.000000
vt  0.728400 1.878387 0.000000
vt  0.736082 1.878387 0.000000
vt  0.743765 1.878387 0.000000
vt  0.751447 1.878387 0.000000
vt  0.759129 1.878387 0.000000
vt  0.728400 1.987247 0.000000
vt  0.736082 1.987247 0.000000
vt  0.743765 1.987247 0.000000
vt  0.751447 1.987247 0.000000
vt  0.759129 1.987247 0.000000
vt  0.728400 2.094002 0.000000
vt  0.736082 2.094002 0.000000
vt  0.743765 2.094002 0.000000
vt  0.751447 2.094002 0.000000
vt  0.759129 2.094002 0.000000
vt  0.728400 2.198647 0.000000
vt  0.736082 2.198647 0.000000
vt  0.743765 2.198647 0.000000
vt  0.751447 2.198647 0.000000
vt  0.759129 2.198647 0.000000
vt  0.728400 2.301182 0.000000
vt  0.736082 2.301182 0.000000
vt  0.743765 2.301182 0.000000
vt  0.751447 2.301182 0.000000
vt  0.759129 2.301182 0.000000
vt  0.728400 2.401611 0.000000
vt  0.736082 2.401611 0.000000
vt  0.743765 2.401611 0.000000
vt  0.751447 2.401611 0.000000
vt  0.759129 2.401611 0.000000
vt  0.728400 2.499929 0.000000
vt  0.736082 2.499929 0.000000
vt  0.743765 2.499929 0.000000
vt  0.751447 2.499929 0.000000
vt  0.759129 2.499929 0.000000
vt  0.728400 2.596142 0.000000
vt  0.736082 2.596142 0.000000
vt  0.743765 2.596142 0.000000
vt  0.751447 2.596142 0.000000
vt  0.759129 2.596142 0.000000
vt  0.728400 2.690247 0.000000
vt  0.736082 2.690247 0.000000
vt  0.743765 2.690247 0.000000
vt  0.751447 2.690247 0.000000
vt  0.759129 2.690247 0.000000
vt  0.728400 2.782242 0.000000
vt  0.736082 2.782242 0.000000
vt  0.743765 2.782242 0.000000
vt  0.751447 2.782242 0.000000
vt  0.759129 2.782242 0.000000
vt  0.728400 2.872131 0.000000
vt  0.736082 2.872131 0.000000
vt  0.743765 2.872131 0.000000
vt  0.751447 2.872131 0.000000
vt  0.759129 2.872131 0.000000
vt  0.728400 2.959913 0.000000
vt  0.736082 2.959913 0.000000
vt  0.743765 2.959913 0.000000
vt  0.751447 2.959913 0.000000
vt  0.759129 2.959913 0.000000
vt  0.728400 3.045588 0.000000
vt  0.736082 3.045588 0.000000
vt  0.743765 3.045588 0.000000
vt  0.751447 3.045588 0.000000
vt  0.759129 3.045588 0.000000
vt  0.728400 3.129154 0.000000
vt  0.736082 3.129154 0.000000
vt  0.743765 3.129154 0.000000
vt  0.751447 3.129154 0.000000
vt  0.759129 3.129154 0.000000
vt  0.728400 3.210617 0.000000
vt  0.736082 3.210617 0.000000
vt  0.743765 3.210617 0.000000
vt  0.751447 3.210617 0.000000
vt  0.759129 3.210617 0.000000
vt  0.728400 3.289972 0.000000
vt  0.736082 3.289972 0.000000
vt  0.743765 3.289972 0.000000
vt  0.751447 3.289972 0.000000
vt  0.759129 3.289972 0.000000
vt  0.728400 3.367220 0.000000
vt  0.736082 3.367220 0.000000
vt  0.743765 3.367220 0.000000
vt  0.751447 3.367220 0.000000
vt  0.759129 3.367220 0.000000
vt  0.728400 3.442362 0.000000
vt  0.736082 3.442362 0.000000
vt  0.743765 3.442362 0.000000
vt  0.751447 3.442362 0.000000
vt  0.759129 3.442362 0.000000
vt  0.728400 3.515400 0.000000
vt  0.736082 3.515400 0.000000
vt  0.743765 3.515400 0.000000
vt  0.751447 3.515400 0.000000
vt  0.759129 3.515400 0.000000
vt  0.728400 3.586330 0.000000
vt  0.736082 3.586330 0.000000
vt  0.743765 3.586330 0.000000
vt  0.751447 3.586330 0.000000
vt  0.759129 3.586330 0.000000
vt  0.728400 3.655155 0.000000
vt  0.736082 3.655155 0.000000
vt  0.743765 3.655155 0.000000
vt  0.751447 3.655155 0.000000
vt  0.759129 3.655155 0.000000
vt  0.728400 3.721880 0.000000
vt  0.736082 3.721880 0.000000
vt  0.743765 3.721880 0.000000
vt  0.751447 3.721880 0.000000
vt  0.759129 3.721880 0.000000
vt  0.728400 3.786499 0.000000
vt  0.736082 3.786499 0.000000
vt  0.743765 3.786499 0.000000
vt  0.751447 3.786499 0.000000
vt  0.759129 3.786499 0.000000
vt  0.728400 3.849012 0.000000
vt  0.736082 3.849012 0.000000
vt  0.743765 3.849012 0.000000
vt  0.751447 3.849012 0.000000
vt  0.759129 3.849012 0.000000
vt  0.728400 3.909424 0.000000
vt  0.736082 3.909424 0.000000
vt  0.743765 3.909424 0.000000
vt  0.751447 3.909424 0.000000
vt  0.759129 3.909424 0.000000
vt  0.728400 3.967735 0.000000
vt  0.736082 3.967735 0.000000
vt  0.743765 3.967735 0.000000
vt  0.751447 3.967735 0.000000
vt  0.759129 3.967735 0.000000
vt  0.728400 4.023941 0.000000
vt  0.736082 4.023941 0.000000
vt  0.743765 4.023941 0.000000
vt  0.751447 4.023941 0.000000
vt  0.759129 4.023941 0.000000
vt  0.728400 4.078045 0.000000
vt  0.736082 4.078045 0.000000
vt  0.743765 4.078045 0.000000
vt  0.751447 4.078045 0.000000
vt  0.759129 4.078045 0.000000
vt  0.728400 4.130053 0.000000
vt  0.736082 4.130053 0.000000
vt  0.743765 4.130053 0.000000
vt  0.751447 4.130053 0.000000
vt  0.759129 4.130053 0.000000
vt  0.728400 4.179960 0.000000
vt  0.736082 4.179960 0.000000
vt  0.743765 4.179960 0.000000
vt  0.751447 4.179960 0.000000
vt  0.759129 4.179960 0.000000
vt  0.728400 4.227768 0.000000
vt  0.736082 4.227768 0.000000
vt  0.743765 4.227768 0.000000
vt  0.751447 4.227768 0.000000
vt  0.759129 4.227768 0.000000
vt  0.728400 4.273479 0.000000
vt  0.736082 4.273479 0.000000
vt  0.743765 4.273479 0.000000
vt  0.751447 4.273479 0.000000
vt  0.759129 4.273479 0.000000
vt  0.728400 4.317095 0.000000
vt  0.736082 4.317095 0.000000
vt  0.743765 4.317095 0.000000
vt  0.751447 4.317095 0.000000
vt  0.759129 4.317095 0.000000
vt  0.728400 4.358616 0.000000
vt  0.736082 4.358616 0.000000
vt  0.743765 4.358616 0.000000
vt  0.751447 4.358616 0.000000
vt  0.759129 4.358616 0.000000
vt  0.728400 4.398045 0.000000
vt  0.736082 4.398045 0.000000
vt  0.743765 4.398045 0.000000
vt  0.751447 4.398045 0.000000
vt  0.759129 4.398045 0.000000
vt  0.728400 4.435385 0.000000
vt  0.736082 4.435385 0.000000
vt  0.743765 4.435385 0.000000
vt  0.751447 4.435385 0.000000
vt  0.759129 4.435385 0.000000
vt  0.728400 4.470634 0.000000
vt  0.736082 4.470634 0.000000
vt  0.743765 4.470634 0.000000
vt  0.751447 4.470634 0.000000
vt  0.759129 4.470634 0.000000
vt  0.121991 1.782525 0.000000
vt  0.126739 1.733575 0.000000
vt  0.077773 1.728863 0.000000
vt  0.073025 1.777814 0.000000
vt  0.126297 1.789485 0.000000
vt  0.121960 1.837973 0.000000
vt  0.073025 1.833281 0.000000
vt  0.077361 1.784793 0.000000
vt  0.561120 0.109397 -0.500000
vt  0.626251 0.102881 -0.500000
vt  0.691381 0.109397 -0.500000
vt  0.754008 0.128696 -0.500000
vt  0.811726 0.160035 -0.500000
vt  0.862315 0.202210 -0.500000
vt  0.903833 0.253601 -0.500000
vt  0.934684 0.312233 -0.500000
vt  0.953682 0.375852 -0.500000
# 463 texture vertices

vn  0.000000 0.000000 -8.000000
vn  0.000000 0.000000 -1.000000
vn  0.000000 0.000000 -3.000000
vn  0.000000 0.000000 -1.000000
vn  0.000000 0.000000 -5.000000
vn  0.000000 0.000000 -1.000000
vn  0.000000 0.000000 -3.000000
vn  0.000000 0.000000 -1.000000
vn  0.000000 0.000000 -7.000000
vn  0.000000 0.000000 -1.000000
vn  0.000000 0.000000 -3.000000
vn  0.000000 0.000000 -1.000000
vn  0.000000 0.000000 -5.000000
vn  0.000000 0.000000 -1.000000
vn  0.000000 0.000000 -3.000000
vn  0.000000 0.000000 -1.000000
vn  0.000000 0.000000 -8.000000
vn  0.000000 0.000000 -1.000000
vn  0.000000 0.000000 -3.000000
vn  0.000000 0.000000 -1.000000
vn  0.000000 0.000000 -5.000000
vn  0.000000 0.000000 -1.000000
vn  0.000000 0.000000 -3.000000
vn  0.000000 0.000000 -1.000000
vn  0.000000 0.000000 -7.000000
vn  0.000000 0.000000 -1.000000
vn  0.000000 0.000000 -3.000000
vn  0.000000 0.000000 -1.000000
vn  0.000000 0.000000 -5.000000
vn  0.000000 0.000000 -1.000000
vn  0.000000 0.000000 -3.000000
vn  0.000000 0.000000 -1.000000
vn  4.944597 -0.162331 0.000000
vn  4.881258 0.805429 0.000000
vn  4.630334 1.742239 0.000000
vn  4.201470 2.612096 0.000000
vn  3.611145 3.381572 0.000000
vn  2.882046 4.021095 0.000000
vn  2.042192 4.506091 0.000000
vn  1.123858 4.817919 0.000000
vn  0.162334 4.944597 0.000000
vn  -0.805429 4.881258 0.000000
vn  -1.742239 4.630335 0.000000
vn  -2.612095 4.201471 0.000000
vn  -3.381572 3.611145 0.000000
vn  -4.021095 2.882046 0.000000
vn  -4.506090 2.042192 0.000000
vn  -4.817919 1.123856 0.000000
vn  -4.944597 0.162332 0.000000
vn  -4.881258 -0.805431 0.000000
vn  -4.630334 -1.742241 0.000000
vn  -4.201469 -2.612098 0.000000
vn  -3.611144 -3.381573 0.000000
vn  -2.882044 -4.021097 0.000000
vn  -2.042188 -4.506092 0.000000
vn  -1.123853 -4.817920 0.000000
vn  -0.162329 -4.944597 0.000000
vn  0.805434 -4.881257 0.000000
vn  1.742244 -4.630333 0.000000
vn  2.612101 -4.201467 0.000000
vn  3.381576 -3.611141 0.000000
vn  4.021098 -2.882041 0.000000
vn  4.506093 -2.042185 0.000000
vn  4.817921 -1.123851 0.000000
vn  3.443576 -0.788936 0.709312
vn  -1.139764 0.287358 2.107696
vn  -3.442340 0.794182 -0.709650
vn  1.140134 -0.284659 -2.107862
vn  1.509749 -0.680831 0.003845
vn  0.047612 0.108745 0.997428
vn  -1.509230 0.681978 -0.003925
vn  -0.047409 -0.108147 -0.997455
vn  1.133175 -1.207793 0.004812
vn  0.080742 0.086233 0.997453
vn  -1.133193 1.207776 -0.004810
vn  -0.080750 -0.086243 -0.997452
vn  0.584335 -1.549619 0.007297
vn  0.106350 0.052471 0.997433
vn  -0.584358 1.549610 -0.007295
vn  -0.106361 -0.052476 -0.997433
vn  -0.053569 -1.655228 0.009812
vn  0.118607 0.011722 0.997407
vn  0.053543 1.655229 -0.009810
vn  -0.118620 -0.011722 -0.997407
vn  -0.683288 -1.508513 0.012361
vn  0.115854 -0.030975 0.997375
vn  0.683263 1.508524 -0.012359
vn  -0.115866 0.030980 -0.997374
vn  -1.208817 -1.131840 0.014945
vn  0.098250 -0.070295 0.997336
vn  1.208798 1.131860 -0.014944
vn  -0.098259 0.070305 -0.997335
vn  -1.550032 -0.582638 0.017564
vn  0.067774 -0.101250 0.997290
vn  1.550022 0.582665 -0.017562
vn  -0.067780 0.101263 -0.997290
vn  -1.654910 0.055352 0.020218
vn  0.028025 -0.119788 0.997237
vn  1.654911 -0.055323 -0.020217
vn  -0.028027 0.119802 -0.997237
vn  -1.507466 0.684850 0.022911
vn  -0.016177 -0.123302 0.997177
vn  1.507478 -0.684823 -0.022908
vn  0.016181 0.123316 -0.997176
vn  -1.130191 1.209867 0.025640
vn  -0.059342 -0.110981 0.997109
vn  1.130213 -1.209846 -0.025638
vn  0.059353 0.110992 -0.997108
vn  -0.580629 1.550345 0.028409
vn  -0.095952 -0.083957 0.997032
vn  0.580659 -1.550333 -0.028407
vn  0.095967 0.083964 -0.997032
vn  0.057398 1.654371 0.031218
vn  -0.121130 -0.045242 0.996948
vn  -0.057365 -1.654373 -0.031216
vn  0.121146 0.045243 -0.996947
vn  0.686578 1.506101 0.034069
vn  -0.131266 0.000577 0.996854
vn  -0.686548 -1.506115 -0.034067
vn  0.131282 -0.000582 -0.996853
vn  1.210950 1.128169 0.036961
vn  -0.124518 0.047835 0.996751
vn  -1.210926 -1.128195 -0.036959
vn  0.124531 -0.047846 -0.996751
vn  1.550540 0.578249 0.039898
vn  -0.101124 0.090449 0.996639
vn  -1.550528 -0.578282 -0.039896
vn  0.101132 -0.090465 -0.996638
vn  1.653571 -0.059756 0.042880
vn  -0.063474 0.122668 0.996517
vn  -1.653573 0.059719 -0.042878
vn  0.063474 -0.122686 -0.996516
vn  1.504358 -0.688505 0.045909
vn  -0.015910 0.139820 0.996384
vn  -1.504374 0.688470 -0.045907
vn  0.015903 -0.139837 -0.996383
vn  1.125704 -1.212073 0.048986
vn  0.035720 0.138969 0.996240
vn  -1.125733 1.212047 -0.048983
vn  -0.035733 -0.138983 -0.996239
vn  0.575420 -1.550598 0.052112
vn  0.084733 0.119404 0.996085
vn  -0.575459 1.550584 -0.052109
vn  -0.084751 -0.119412 -0.996084
vn  -0.062493 -1.652460 0.055289
vn  0.124447 0.082847 0.995917
vn  0.062451 1.652461 -0.055286
vn  -0.124467 -0.082847 -0.995916
vn  -0.690673 -1.502162 0.058519
vn  0.149057 0.033384 0.995738
vn  0.690633 1.502181 -0.058516
vn  -0.149077 -0.033375 -0.995737
vn  -1.213251 -1.122701 0.061804
vn  0.154468 -0.022937 0.995545
vn  1.213220 1.122735 -0.061801
vn  -0.154484 0.022952 -0.995544
vn  -1.550493 -0.572051 0.065145
vn  0.138945 -0.078800 0.995338
vn  1.550477 0.572095 -0.065142
vn  -0.138954 0.078820 -0.995337
vn  -1.650972 0.065690 0.068544
vn  0.103510 -0.126525 0.995117
vn  1.650975 -0.065641 -0.068541
vn  -0.103509 0.126548 -0.995116
vn  -1.499418 0.693137 0.072004
vn  0.051969 -0.159098 0.994880
vn  1.499439 -0.693091 -0.072001
vn  -0.051959 0.159120 -0.994879
vn  -1.119047 1.214496 0.075527
vn  -0.009418 -0.171176 0.994628
vn  1.119086 -1.214461 -0.075524
vn  0.009437 0.171193 -0.994627
vn  -0.568017 1.550194 0.079114
vn  -0.072650 -0.159937 0.994359
vn  0.568069 -1.550175 -0.079111
vn  0.072675 0.159947 -0.994358
vn  0.069456 1.649029 0.082769
vn  -0.128980 -0.125643 0.994072
vn  -0.069400 -1.649032 -0.082766
vn  0.129007 0.125642 -0.994071
vn  0.695974 1.495999 0.086494
vn  -0.170090 -0.071805 0.993767
vn  -0.695921 -1.496024 -0.086490
vn  0.170116 0.071794 -0.993766
vn  1.215834 1.114584 0.090291
vn  -0.189298 -0.004912 0.993442
vn  -1.215793 -1.114630 -0.090287
vn  0.189318 0.004891 -0.993441
vn  1.549659 0.563160 0.094163
vn  -0.182609 0.066297 0.993096
vn  -1.549638 -0.563220 -0.094159
vn  0.182619 -0.066326 -0.993095
vn  1.646524 -0.073933 0.098114
vn  -0.149466 0.131919 0.992729
vn  -1.646528 0.073867 -0.098110
vn  0.149465 -0.131951 -0.992727
vn  1.491744 -0.699280 0.102147
vn  -0.093064 0.182230 0.992338
vn  -1.491774 0.699218 -0.102142
vn  0.093050 -0.182260 -0.992337
vn  1.109113 -1.217295 0.106263
vn  -0.020138 0.209096 0.991924
vn  -1.109167 1.217247 -0.106258
vn  0.020112 -0.209119 -0.991922
vn  0.557261 -1.548838 0.110469
vn  0.059766 0.207249 0.991483
vn  -0.557332 1.548814 -0.110464
vn  -0.059800 -0.207262 -0.991481
vn  -0.079318 -1.643318 0.114768
vn  0.135490 0.175249 0.991015
vn  0.079239 1.643322 -0.114762
vn  -0.135527 -0.175248 -0.991013
vn  -0.703195 -1.486432 0.119162
vn  0.195777 0.115945 0.990518
vn  0.703121 1.486469 -0.119156
vn  -0.195813 -0.115928 -0.990516
vn  -1.218928 -1.102354 0.123658
vn  0.230910 0.036349 0.989990
vn  1.218871 1.102419 -0.123652
vn  -0.230938 -0.036318 -0.989988
vn  -1.547664 -0.550024 0.128260
vn  0.234232 -0.053114 0.989429
vn  1.547635 0.550110 -0.128253
vn  -0.234247 0.053155 -0.989427
vn  -1.639219 0.085880 0.132972
vn  0.203337 -0.139906 0.988833
vn  1.639225 -0.085785 -0.132965
vn  -0.203334 0.139951 -0.988831
vn  -1.479760 0.707911 0.137801
vn  0.140698 -0.211086 0.988200
vn  1.479804 -0.707822 -0.137794
vn  -0.140677 0.211129 -0.988197
vn  -1.093923 1.220799 0.142751
vn  0.053636 -0.255194 0.987526
vn  1.094002 -1.220730 -0.142744
vn  -0.053598 0.255227 -0.987524
vn  -0.541030 1.546045 0.147831
vn  -0.046446 -0.264045 0.986811
vn  0.541135 -1.546010 -0.147823
vn  0.046496 0.264061 -0.986808
vn  0.094006 1.633961 0.153045
vn  -0.145481 -0.234163 0.986049
vn  -0.093889 -1.633970 -0.153036
vn  0.145537 0.234159 -0.986047
vn  0.713711 1.471294 0.158401
vn  -0.228657 -0.167617 0.985239
vn  -0.713601 -1.471350 -0.158392
vn  0.228709 0.167590 -0.985236
vn  1.223016 1.083260 0.163909
vn  -0.282574 -0.072076 0.984376
vn  -1.222932 -1.083360 -0.163899
vn  0.282615 0.072028 -0.984373
vn  1.543856 0.529667 0.169575
vn  -0.297343 0.039958 0.983455
vn  -1.543814 -0.529799 -0.169565
vn  0.297363 -0.040021 -0.983452
vn  1.627159 -0.104267 0.175410
vn  -0.268299 0.152699 0.982474
vn  -1.627171 0.104120 -0.175400
vn  0.268293 -0.152770 -0.982471
vn  1.460400 -0.721015 0.181425
vn  -0.197060 0.249225 0.981426
vn  -1.460473 0.720875 -0.181414
vn  0.197024 -0.249292 -0.981423
vn  1.069534 -1.225743 0.187630
vn  -0.091701 0.313945 0.980307
vn  -1.069663 1.225636 -0.187617
vn  0.091638 -0.313996 -0.980303
vn  0.515006 -1.540912 0.194037
vn  0.034018 0.335039 0.979109
vn  -0.515178 1.540859 -0.194024
vn  -0.034101 -0.335063 -0.979105
vn  -0.117548 -1.618225 0.200661
vn  0.162341 0.306498 0.977826
vn  0.117357 1.618244 -0.200647
vn  -0.162432 -0.306486 -0.977822
vn  -0.730491 -1.446090 0.207517
vn  0.273919 0.229435 0.976450
vn  0.730309 1.446188 -0.207502
vn  -0.274004 -0.229385 -0.976445
vn  -1.229250 -1.051433 0.214622
vn  0.350638 0.112412 0.974972
vn  1.229110 1.051606 -0.214606
vn  -0.350703 -0.112327 -0.974967
vn  -1.536930 -0.495563 0.221995
vn  0.378447 -0.029336 0.973381
vn  1.536863 0.495793 -0.221976
vn  -0.378476 0.029448 -0.973376
vn  -1.606221 0.135281 0.229656
vn  0.349777 -0.175737 0.971667
vn  1.606250 -0.135023 -0.229636
vn  -0.349758 0.175860 -0.971662
vn  -1.426753 0.743238 0.237629
vn  0.265169 -0.304581 0.969816
vn  1.426890 -0.742993 -0.237608
vn  -0.265098 0.304697 -0.969810
vn  -1.026771 1.233994 0.245942
vn  0.133784 -0.394758 0.967813
vn  1.027012 -1.233806 -0.245919
vn  -0.133664 0.394843 -0.967806
vn  -0.468808 1.531437 0.254625
vn  -0.027352 -0.429548 0.965639
vn  0.469131 -1.531350 -0.254599
vn  0.027510 0.429582 -0.965632
vn  0.159956 1.589520 0.263712
vn  -0.195342 -0.399514 0.963274
vn  -0.159593 -1.589570 -0.263683
vn  0.195517 0.399481 -0.963266
vn  0.761207 1.399530 0.273243
vn  -0.344463 -0.304521 0.960694
vn  -0.760860 -1.399736 -0.273212
vn  0.344626 0.304412 -0.960685
vn  1.240803 0.991580 0.283266
vn  -0.449873 -0.154498 0.957869
vn  -1.240538 -0.991938 -0.283231
vn  0.449991 0.154316 -0.957859
vn  1.524773 0.427429 0.292881
vn  -0.493314 0.028689 0.954451
vn  -1.523572 -0.432932 -0.292211
vn  0.493648 -0.033376 -0.954333
vn  3.716177 0.151707 -0.047042
vn  0.083784 0.104019 2.224262
vn  -3.715607 -0.182917 0.048635
vn  -0.085285 -0.115599 -2.223725
# 324 vertex normals

g beam
usemtl ENV_ARC_TBeam_16x256_V01_M
s 1
f 29/460/29 1/99/1 31/462/31 30/461/30
f 27/458/27 25/456/25 29/460/29 28/459/28
f 23/121/23 21/119/21 25/456/25 24/455/24
f 19/117/19 17/115/17 21/119/21 20/118/20
f 17/115/17 1/99/1 25/456/25 21/119/21
f 15/113/15 13/111/13 17/115/17 16/114/16
f 11/109/11 9/107/9 13/111/13 12/110/12
f 9/107/9 1/99/1 17/115/17 13/111/13
f 7/105/7 5/103/5 9/107/9 8/106/8
f 3/101/3 1/99/1 5/103/5 4/102/4
s 8
f 34/34/34 33/33/33 1/1/1 2/2/2
f 35/35/35 34/34/34 2/2/2 3/3/3
f 36/36/36 35/35/35 3/3/3 4/4/4
f 37/37/37 36/36/36 4/4/4 5/5/5
f 38/38/38 37/37/37 5/5/5 6/6/6
f 39/39/39 38/38/38 6/6/6 7/7/7
f 40/40/40 39/39/39 7/7/7 8/8/8
f 41/41/41 40/40/40 8/8/8 9/9/9
f 42/42/42 41/67/41 9/66/9 10/10/10
f 43/43/43 42/42/42 10/10/10 11/11/11
f 44/44/44 43/43/43 11/11/11 12/12/12
f 45/45/45 44/44/44 12/12/12 13/13/13
f 46/46/46 45/45/45 13/13/13 14/14/14
f 47/47/47 46/46/46 14/14/14 15/15/15
f 48/48/48 47/47/47 15/15/15 16/16/16
f 49/49/49 48/48/48 16/16/16 17/17/17
f 50/50/50 49/49/49 17/17/17 18/18/18
f 51/51/51 50/50/50 18/18/18 19/19/19
f 52/52/52 51/51/51 19/19/19 20/20/20
f 53/53/53 52/52/52 20/20/20 21/21/21
f 54/54/54 53/53/53 21/21/21 22/22/22
f 55/55/55 54/54/54 22/22/22 23/23/23
f 56/56/56 55/55/55 23/23/23 24/24/24
f 57/57/57 56/56/56 24/24/24 25/25/25
f 58/58/58 57/57/57 25/25/25 26/26/26
f 59/59/59 58/58/58 26/26/26 27/27/27
f 60/60/60 59/59/59 27/27/27 28/28/28
f 61/61/61 60/60/60 28/28/28 29/29/29
f 62/62/62 61/61/61 29/29/29 30/30/30
f 63/63/63 62/62/62 30/30/30 31/31/31
f 64/64/64 63/63/63 31/31/31 32/32/32
f 33/33/33 64/64/64 32/32/32 1/1/1
s 1
f 35/69/35 63/97/63 33/65/33 34/68/34
f 37/71/37 39/73/39 35/69/35 36/70/36
f 41/75/41 43/77/43 39/73/39 40/74/40
f 45/79/45 47/81/47 43/77/43 44/78/44
f 47/81/47 63/97/63 39/73/39 43/77/43
f 49/83/49 51/85/51 47/81/47 48/82/48
f 53/87/53 55/89/55 51/85/51 52/86/52
f 55/89/55 63/97/63 47/81/47 51/85/51
f 57/91/57 59/93/59 55/89/55 56/90/56
f 61/95/61 63/97/63 59/93/59 60/94/60
s 257
f 65/122/65 66/123/66 70/128/70 69/127/69
s 515
f 66/123/66 67/124/67 71/129/71 70/128/70
s 1026
f 67/124/67 68/125/68 72/130/72 71/129/71
s 515
f 68/125/68 65/126/65 69/131/69 72/130/72
s 264
f 69/127/69 70/128/70 74/133/74 73/132/73
s 536
f 70/128/70 71/129/71 75/134/75 74/133/74
s 1040
f 71/129/71 72/130/72 76/135/76 75/134/75
s 536
f 72/130/72 69/131/69 73/136/73 76/135/76
s 257
f 73/132/73 74/133/74 78/138/78 77/137/77
s 515
f 74/133/74 75/134/75 79/139/79 78/138/78
s 1026
f 75/134/75 76/135/76 80/140/80 79/139/79
s 515
f 76/135/76 73/136/73 77/141/77 80/140/80
s 264
f 77/137/77 78/138/78 82/143/82 81/142/81
s 536
f 78/138/78 79/139/79 83/144/83 82/143/82
s 1040
f 79/139/79 80/140/80 84/145/84 83/144/83
s 536
f 80/140/80 77/141/77 81/146/81 84/145/84
s 257
f 81/142/81 82/143/82 86/148/86 85/147/85
s 515
f 82/143/82 83/144/83 87/149/87 86/148/86
s 1026
f 83/144/83 84/145/84 88/150/88 87/149/87
s 515
f 84/145/84 81/146/81 85/151/85 88/150/88
s 264
f 85/147/85 86/148/86 90/153/90 89/152/89
s 536
f 86/148/86 87/149/87 91/154/91 90/153/90
s 1040
f 87/149/87 88/150/88 92/155/92 91/154/91
s 536
f 88/150/88 85/151/85 89/156/89 92/155/92
s 257
f 89/152/89 90/153/90 94/158/94 93/157/93
s 515
f 90/153/90 91/154/91 95/159/95 94/158/94
s 1026
f 91/154/91 92/155/92 96/160/96 95/159/95
s 515
f 92/155/92 89/156/89 93/161/93 96/160/96
s 264
f 93/157/93 94/158/94 98/163/98 97/162/97
s 536
f 94/158/94 95/159/95 99/164/99 98/163/98
s 1040
f 95/159/95 96/160/96 100/165/100 99/164/99
s 536
f 96/160/96 93/161/93 97/166/97 100/165/100
s 257
f 97/162/97 98/163/98 102/168/102 101/167/101
s 515
f 98/163/98 99/164/99 103/169/103 102/168/102
s 1026
f 99/164/99 100/165/100 104/170/104 103/169/103
s 515
f 100/165/100 97/166/97 101/171/101 104/170/104
s 264
f 101/167/101 102/168/102 106/173/106 105/172/105
s 536
f 102/168/102 103/169/103 107/174/107 106/173/106
s 1040
f 103/169/103 104/170/104 108/175/108 107/174/107
s 536
f 104/170/104 101/171/101 105/176/105 108/175/108
s 257
f 105/172/105 106/173/106 110/178/110 109/177/109
s 515
f 106/173/106 107/174/107 111/179/111 110/178/110
s 1026
f 107/174/107 108/175/108 112/180/112 111/179/111
s 515
f 108/175/108 105/176/105 109/181/109 112/180/112
s 264
f 109/177/109 110/178/110 114/183/114 113/182/113
s 536
f 110/178/110 111/179/111 115/184/115 114/183/114
s 1040
f 111/179/111 112/180/112 116/185/116 115/184/115
s 536
f 112/180/112 109/181/109 113/186/113 116/185/116
s 257
f 113/182/113 114/183/114 118/188/118 117/187/117
s 515
f 114/183/114 115/184/115 119/189/119 118/188/118
s 1026
f 115/184/115 116/185/116 120/190/120 119/189/119
s 515
f 116/185/116 113/186/113 117/191/117 120/190/120
s 264
f 117/187/117 118/188/118 122/193/122 121/192/121
s 536
f 118/188/118 119/189/119 123/194/123 122/193/122
s 1040
f 119/189/119 120/190/120 124/195/124 123/194/123
s 536
f 120/190/120 117/191/117 121/196/121 124/195/124
s 257
f 121/192/121 122/193/122 126/198/126 125/197/125
s 515
f 122/193/122 123/194/123 127/199/127 126/198/126
s 1026
f 123/194/123 124/195/124 128/200/128 127/199/127
s 515
f 124/195/124 121/196/121 125/201/125 128/200/128
s 264
f 125/197/125 126/198/126 130/203/130 129/202/129
s 536
f 126/198/126 127/199/127 131/204/131 130/203/130
s 1040
f 127/199/127 128/200/128 132/205/132 131/204/131
s 536
f 128/200/128 125/201/125 129/206/129 132/205/132
s 257
f 129/202/129 130/203/130 134/208/134 133/207/133
s 515
f 130/203/130 131/204/131 135/209/135 134/208/134
s 1026
f 131/204/131 132/205/132 136/210/136 135/209/135
s 515
f 132/205/132 129/206/129 133/211/133 136/210/136
s 264
f 133/207/133 134/208/134 138/213/138 137/212/137
s 536
f 134/208/134 135/209/135 139/214/139 138/213/138
s 1040
f 135/209/135 136/210/136 140/215/140 139/214/139
s 536
f 136/210/136 133/211/133 137/216/137 140/215/140
s 257
f 137/212/137 138/213/138 142/218/142 141/217/141
s 515
f 138/213/138 139/214/139 143/219/143 142/218/142
s 1026
f 139/214/139 140/215/140 144/220/144 143/219/143
s 515
f 140/215/140 137/216/137 141/221/141 144/220/144
s 264
f 141/217/141 142/218/142 146/223/146 145/222/145
s 536
f 142/218/142 143/219/143 147/224/147 146/223/146
s 1040
f 143/219/143 144/220/144 148/225/148 147/224/147
s 536
f 144/220/144 141/221/141 145/226/145 148/225/148
s 257
f 145/222/145 146/223/146 150/228/150 149/227/149
s 515
f 146/223/146 147/224/147 151/229/151 150/228/150
s 1026
f 147/224/147 148/225/148 152/230/152 151/229/151
s 515
f 148/225/148 145/226/145 149/231/149 152/230/152
s 264
f 149/227/149 150/228/150 154/233/154 153/232/153
s 536
f 150/228/150 151/229/151 155/234/155 154/233/154
s 1040
f 151/229/151 152/230/152 156/235/156 155/234/155
s 536
f 152/230/152 149/231/149 153/236/153 156/235/156
s 257
f 153/232/153 154/233/154 158/238/158 157/237/157
s 515
f 154/233/154 155/234/155 159/239/159 158/238/158
s 1026
f 155/234/155 156/235/156 160/240/160 159/239/159
s 515
f 156/235/156 153/236/153 157/241/157 160/240/160
s 264
f 157/237/157 158/238/158 162/243/162 161/242/161
s 536
f 158/238/158 159/239/159 163/244/163 162/243/162
s 1040
f 159/239/159 160/240/160 164/245/164 163/244/163
s 536
f 160/240/160 157/241/157 161/246/161 164/245/164
s 257
f 161/242/161 162/243/162 166/248/166 165/247/165
s 515
f 162/243/162 163/244/163 167/249/167 166/248/166
s 1026
f 163/244/163 164/245/164 168/250/168 167/249/167
s 515
f 164/245/164 161/246/161 165/251/165 168/250/168
s 264
f 165/247/165 166/248/166 170/253/170 169/252/169
s 536
f 166/248/166 167/249/167 171/254/171 170/253/170
s 1040
f 167/249/167 168/250/168 172/255/172 171/254/171
s 536
f 168/250/168 165/251/165 169/256/169 172/255/172
s 257
f 169/252/169 170/253/170 174/258/174 173/257/173
s 515
f 170/253/170 171/254/171 175/259/175 174/258/174
s 1026
f 171/254/171 172/255/172 176/260/176 175/259/175
s 515
f 172/255/172 169/256/169 173/261/173 176/260/176
s 264
f 173/257/173 174/258/174 178/263/178 177/262/177
s 536
f 174/258/174 175/259/175 179/264/179 178/263/178
s 1040
f 175/259/175 176/260/176 180/265/180 179/264/179
s 536
f 176/260/176 173/261/173 177/266/177 180/265/180
s 257
f 177/262/177 178/263/178 182/268/182 181/267/181
s 515
f 178/263/178 179/264/179 183/269/183 182/268/182
s 1026
f 179/264/179 180/265/180 184/270/184 183/269/183
s 515
f 180/265/180 177/266/177 181/271/181 184/270/184
s 264
f 181/267/181 182/268/182 186/273/186 185/272/185
s 536
f 182/268/182 183/269/183 187/274/187 186/273/186
s 1040
f 183/269/183 184/270/184 188/275/188 187/274/187
s 536
f 184/270/184 181/271/181 185/276/185 188/275/188
s 257
f 185/272/185 186/273/186 190/278/190 189/277/189
s 515
f 186/273/186 187/274/187 191/279/191 190/278/190
s 1026
f 187/274/187 188/275/188 192/280/192 191/279/191
s 515
f 188/275/188 185/276/185 189/281/189 192/280/192
s 264
f 189/277/189 190/278/190 194/283/194 193/282/193
s 536
f 190/278/190 191/279/191 195/284/195 194/283/194
s 1040
f 191/279/191 192/280/192 196/285/196 195/284/195
s 536
f 192/280/192 189/281/189 193/286/193 196/285/196
s 257
f 193/282/193 194/283/194 198/288/198 197/287/197
s 515
f 194/283/194 195/284/195 199/289/199 198/288/198
s 1026
f 195/284/195 196/285/196 200/290/200 199/289/199
s 515
f 196/285/196 193/286/193 197/291/197 200/290/200
s 264
f 197/287/197 198/288/198 202/293/202 201/292/201
s 536
f 198/288/198 199/289/199 203/294/203 202/293/202
s 1040
f 199/289/199 200/290/200 204/295/204 203/294/203
s 536
f 200/290/200 197/291/197 201/296/201 204/295/204
s 257
f 201/292/201 202/293/202 206/298/206 205/297/205
s 515
f 202/293/202 203/294/203 207/299/207 206/298/206
s 1026
f 203/294/203 204/295/204 208/300/208 207/299/207
s 515
f 204/295/204 201/296/201 205/301/205 208/300/208
s 264
f 205/297/205 206/298/206 210/303/210 209/302/209
s 536
f 206/298/206 207/299/207 211/304/211 210/303/210
s 1040
f 207/299/207 208/300/208 212/305/212 211/304/211
s 536
f 208/300/208 205/301/205 209/306/209 212/305/212
s 257
f 209/302/209 210/303/210 214/308/214 213/307/213
s 515
f 210/303/210 211/304/211 215/309/215 214/308/214
s 1026
f 211/304/211 212/305/212 216/310/216 215/309/215
s 515
f 212/305/212 209/306/209 213/311/213 216/310/216
s 264
f 213/307/213 214/308/214 218/313/218 217/312/217
s 536
f 214/308/214 215/309/215 219/314/219 218/313/218
s 1040
f 215/309/215 216/310/216 220/315/220 219/314/219
s 536
f 216/310/216 213/311/213 217/316/217 220/315/220
s 257
f 217/312/217 218/313/218 222/318/222 221/317/221
s 515
f 218/313/218 219/314/219 223/319/223 222/318/222
s 1026
f 219/314/219 220/315/220 224/320/224 223/319/223
s 515
f 220/315/220 217/316/217 221/321/221 224/320/224
s 264
f 221/317/221 222/318/222 226/323/226 225/322/225
s 536
f 222/318/222 223/319/223 227/324/227 226/323/226
s 1040
f 223/319/223 224/320/224 228/325/228 227/324/227
s 536
f 224/320/224 221/321/221 225/326/225 228/325/228
s 257
f 225/322/225 226/323/226 230/328/230 229/327/229
s 515
f 226/323/226 227/324/227 231/329/231 230/328/230
s 1026
f 227/324/227 228/325/228 232/330/232 231/329/231
s 515
f 228/325/228 225/326/225 229/331/229 232/330/232
s 264
f 229/327/229 230/328/230 234/333/234 233/332/233
s 536
f 230/328/230 231/329/231 235/334/235 234/333/234
s 1040
f 231/329/231 232/330/232 236/335/236 235/334/235
s 536
f 232/330/232 229/331/229 233/336/233 236/335/236
s 257
f 233/332/233 234/333/234 238/338/238 237/337/237
s 515
f 234/333/234 235/334/235 239/339/239 238/338/238
s 1026
f 235/334/235 236/335/236 240/340/240 239/339/239
s 515
f 236/335/236 233/336/233 237/341/237 240/340/240
s 264
f 237/337/237 238/338/238 242/343/242 241/342/241
s 536
f 238/338/238 239/339/239 243/344/243 242/343/242
s 1040
f 239/339/239 240/340/240 244/345/244 243/344/243
s 536
f 240/340/240 237/341/237 241/346/241 244/345/244
s 257
f 241/342/241 242/343/242 246/348/246 245/347/245
s 515
f 242/343/242 243/344/243 247/349/247 246/348/246
s 1026
f 243/344/243 244/345/244 248/350/248 247/349/247
s 515
f 244/345/244 241/346/241 245/351/245 248/350/248
s 264
f 245/347/245 246/348/246 250/353/250 249/352/249
s 536
f 246/348/246 247/349/247 251/354/251 250/353/250
s 1040
f 247/349/247 248/350/248 252/355/252 251/354/251
s 536
f 248/350/248 245/351/245 249/356/249 252/355/252
s 257
f 249/352/249 250/353/250 254/358/254 253/357/253
s 515
f 250/353/250 251/354/251 255/359/255 254/358/254
s 1026
f 251/354/251 252/355/252 256/360/256 255/359/255
s 515
f 252/355/252 249/356/249 253/361/253 256/360/256
s 264
f 253/357/253 254/358/254 258/363/258 257/362/257
s 536
f 254/358/254 255/359/255 259/364/259 258/363/258
s 1040
f 255/359/255 256/360/256 260/365/260 259/364/259
s 536
f 256/360/256 253/361/253 257/366/257 260/365/260
s 257
f 257/362/257 258/363/258 262/368/262 261/367/261
s 515
f 258/363/258 259/364/259 263/369/263 262/368/262
s 1026
f 259/364/259 260/365/260 264/370/264 263/369/263
s 515
f 260/365/260 257/366/257 261/371/261 264/370/264
s 264
f 261/367/261 262/368/262 266/373/266 265/372/265
s 536
f 262/368/262 263/369/263 267/374/267 266/373/266
s 1040
f 263/369/263 264/370/264 268/375/268 267/374/267
s 536
f 264/370/264 261/371/261 265/376/265 268/375/268
s 257
f 265/372/265 266/373/266 270/378/270 269/377/269
s 515
f 266/373/266 267/374/267 271/379/271 270/378/270
s 1026
f 267/374/267 268/375/268 272/380/272 271/379/271
s 515
f 268/375/268 265/376/265 269/381/269 272/380/272
s 264
f 269/377/269 270/378/270 274/383/274 273/382/273
s 536
f 270/378/270 271/379/271 275/384/275 274/383/274
s 1040
f 271/379/271 272/380/272 276/385/276 275/384/275
s 536
f 272/380/272 269/381/269 273/386/273 276/385/276
s 257
f 273/382/273 274/383/274 278/388/278 277/387/277
s 515
f 274/383/274 275/384/275 279/389/279 278/388/278
s 1026
f 275/384/275 276/385/276 280/390/280 279/389/279
s 515
f 276/385/276 273/386/273 277/391/277 280/390/280
s 264
f 277/387/277 278/388/278 282/393/282 281/392/281
s 536
f 278/388/278 279/389/279 283/394/283 282/393/282
s 1040
f 279/389/279 280/390/280 284/395/284 283/394/283
s 536
f 280/390/280 277/391/277 281/396/281 284/395/284
s 257
f 281/392/281 282/393/282 286/398/286 285/397/285
s 515
f 282/393/282 283/394/283 287/399/287 286/398/286
s 1026
f 283/394/283 284/395/284 288/400/288 287/399/287
s 515
f 284/395/284 281/396/281 285/401/285 288/400/288
s 264
f 285/397/285 286/398/286 290/403/290 289/402/289
s 536
f 286/398/286 287/399/287 291/404/291 290/403/290
s 1040
f 287/399/287 288/400/288 292/405/292 291/404/291
s 536
f 288/400/288 285/401/285 289/406/289 292/405/292
s 257
f 289/402/289 290/403/290 294/408/294 293/407/293
s 515
f 290/403/290 291/404/291 295/409/295 294/408/294
s 1026
f 291/404/291 292/405/292 296/410/296 295/409/295
s 515
f 292/405/292 289/406/289 293/411/293 296/410/296
s 264
f 293/407/293 294/408/294 298/413/298 297/412/297
s 536
f 294/408/294 295/409/295 299/414/299 298/413/298
s 1040
f 295/409/295 296/410/296 300/415/300 299/414/299
s 536
f 296/410/296 293/411/293 297/416/297 300/415/300
s 257
f 297/412/297 298/413/298 302/418/302 301/417/301
s 515
f 298/413/298 299/414/299 303/419/303 302/418/302
s 1026
f 299/414/299 300/415/300 304/420/304 303/419/303
s 515
f 300/415/300 297/416/297 301/421/301 304/420/304
s 264
f 301/417/301 302/418/302 306/423/306 305/422/305
s 536
f 302/418/302 303/419/303 307/424/307 306/423/306
s 1040
f 303/419/303 304/420/304 308/425/308 307/424/307
s 536
f 304/420/304 301/421/301 305/426/305 308/425/308
s 257
f 305/422/305 306/423/306 310/428/310 309/427/309
s 515
f 306/423/306 307/424/307 311/429/311 310/428/310
s 1026
f 307/424/307 308/425/308 312/430/312 311/429/311
s 515
f 308/425/308 305/426/305 309/431/309 312/430/312
s 264
f 309/427/309 310/428/310 314/433/314 313/432/313
s 536
f 310/428/310 311/429/311 315/434/315 314/433/314
s 1040
f 311/429/311 312/430/312 316/435/316 315/434/315
s 536
f 312/430/312 309/431/309 313/436/313 316/435/316
s 257
f 313/432/313 314/433/314 318/438/318 317/437/317
s 515
f 314/433/314 315/434/315 319/439/319 318/438/318
s 1026
f 315/434/315 316/435/316 320/440/320 319/439/319
s 515
f 316/435/316 313/436/313 317/441/317 320/440/320
s 264
f 317/437/317 318/438/318 322/443/322 321/442/321
s 536
f 318/438/318 319/439/319 323/444/323 322/443/322
s 1040
f 319/439/319 320/440/320 324/445/324 323/444/323
s 536
f 320/440/320 317/441/317 321/446/321 324/445/324
s 2147483648
f 68/450/68 67/449/67 66/448/66 65/447/65
f 322/452/322 323/453/323 324/454/324 321/451/321
s 1
f 27/458/27 26/457/26 25/456/25
f 23/121/23 22/120/22 21/119/21
f 19/117/19 18/116/18 17/115/17
f 15/113/15 14/112/14 13/111/13
f 11/109/11 10/108/10 9/107/9
f 7/105/7 6/104/6 5/103/5
f 3/101/3 2/100/2 1/99/1
f 9/107/9 5/103/5 1/99/1
f 29/460/29 25/456/25 1/99/1
f 32/463/32 31/462/31 1/99/1
f 37/71/37 38/72/38 39/73/39
f 41/75/41 42/76/42 43/77/43
f 45/79/45 46/80/46 47/81/47
f 49/83/49 50/84/50 51/85/51
f 53/87/53 54/88/54 55/89/55
f 57/91/57 58/92/58 59/93/59
f 61/95/61 62/96/62 63/97/63
f 55/89/55 59/93/59 63/97/63
f 35/69/35 39/73/39 63/97/63
f 64/98/64 33/65/33 63/97/63
# 330 faces

g
