# Max2Obj Version 4.0 Mar 10th, 2001
#
mtllib ./tris.mtl
g
# object beam to come ...
#
v  0.000000 -80.000000 -128.000000
v  0.000000 -84.000000 -128.000000
v  6.000000 -84.000000 -128.000000
v  6.000000 -92.000000 -128.000000
v  0.000000 -92.000000 -128.000000
v  0.000000 -96.000000 -128.000000
v  16.000000 -96.000000 -128.000000
v  16.000000 -92.000000 -128.000000
v  10.000000 -92.000000 -128.000000
v  10.000000 -84.000000 -128.000000
v  16.000000 -84.000000 -128.000000
v  16.000000 -80.000000 -128.000000
v  0.000000 -80.000000 128.000000
v  0.000000 -84.000000 128.000000
v  6.000000 -84.000000 128.000000
v  6.000000 -92.000000 128.000000
v  0.000000 -92.000000 128.000000
v  0.000000 -96.000000 128.000000
v  16.000000 -96.000000 128.000000
v  16.000000 -92.000000 128.000000
v  10.000000 -92.000000 128.000000
v  10.000000 -84.000000 128.000000
v  16.000000 -84.000000 128.000000
v  16.000000 -80.000000 128.000000
v  0.000000 96.000000 -128.000000
v  0.000000 92.000000 -128.000000
v  6.000000 92.000000 -128.000000
v  6.000000 84.000000 -128.000000
v  0.000000 84.000000 -128.000000
v  0.000000 80.000000 -128.000000
v  16.000000 80.000000 -128.000000
v  16.000000 84.000000 -128.000000
v  10.000000 84.000000 -128.000000
v  10.000000 92.000000 -128.000000
v  16.000000 92.000000 -128.000000
v  16.000000 96.000000 -128.000000
v  0.000000 96.000000 128.000000
v  0.000000 92.000000 128.000000
v  6.000000 92.000000 128.000000
v  6.000000 84.000000 128.000000
v  0.000000 84.000000 128.000000
v  0.000000 80.000000 128.000000
v  16.000000 80.000000 128.000000
v  16.000000 84.000000 128.000000
v  10.000000 84.000000 128.000000
v  10.000000 92.000000 128.000000
v  16.000000 92.000000 128.000000
v  16.000000 96.000000 128.000000
v  0.000000 -79.989563 91.300537
v  0.000000 -84.000000 91.308212
v  16.000000 -84.000000 91.308212
v  16.000000 -79.989563 91.300537
v  0.000000 84.000000 91.308212
v  16.000000 84.000000 91.308212
v  0.000000 -84.000000 85.561401
v  16.000000 -84.000000 85.561401
v  16.000000 -79.989563 85.598694
v  0.000000 84.000000 85.561401
v  16.000000 84.000000 85.561401
v  0.000000 -79.989563 85.598694
v  0.000000 -84.000000 74.355164
v  16.000000 -84.000000 74.355164
v  0.000000 84.000000 74.355164
v  16.000000 84.000000 74.355164
v  0.000000 -84.000000 68.573227
v  16.000000 -84.000000 68.573227
v  16.000000 -80.000000 68.573227
v  0.000000 84.000000 68.573227
v  0.000000 79.982849 68.617157
v  16.000000 79.982849 68.617157
v  16.000000 84.000000 68.573227
v  0.000000 -80.000000 68.573227
v  0.000000 -84.000000 -91.310776
v  16.000000 -84.000000 -91.310776
v  16.000000 -80.000000 -91.310776
v  0.000000 84.000000 -91.310776
v  16.000000 84.000000 -91.310776
v  0.000000 -80.000000 -91.310776
v  0.000000 -80.000000 -85.623657
v  0.000000 -84.000000 -85.623650
v  16.000000 -84.000000 -85.623650
v  16.000000 -80.000000 -85.623650
v  0.000000 84.000000 -85.623650
v  16.000000 84.000000 -85.623650
v  0.000000 -80.000000 -74.355316
v  0.000000 -84.000000 -74.355316
v  16.000000 -84.000000 -74.355316
v  16.000000 -80.000000 -74.355316
v  0.000000 84.000000 -74.355316
v  0.000000 79.982849 -74.328552
v  16.000000 79.982849 -74.328552
v  16.000000 84.000000 -74.355316
v  0.000000 -80.000000 -68.723816
v  0.000000 -84.000000 -68.723808
v  16.000000 -84.000000 -68.723808
v  16.000000 -80.000000 -68.723808
v  0.000000 84.000000 -68.723808
v  0.000000 79.982849 -68.683563
v  16.000000 79.982849 -68.683563
v  16.000000 84.000000 -68.723808
v  6.001128 -79.989563 85.598694
v  6.002255 -80.000000 -85.623657
v  6.002255 -80.000000 -74.355316
v  6.001128 79.982849 -74.328552
v  10.022085 -79.989563 85.598694
v  10.044171 -80.000000 -85.623657
v  10.044171 -80.000000 -74.355316
v  6.000000 -5.656860 0.042328
v  0.000000 -11.313713 0.042328
v  16.000000 -11.313713 0.042328
v  10.000000 -5.656860 0.042328
v  10.000000 5.656845 0.042328
v  0.000000 11.313683 0.042328
v  6.000000 5.656845 0.042328
v  16.000000 11.313690 0.042328
v  6.001128 79.982849 -85.623100
v  0.000000 79.982849 -85.623100
v  0.000000 79.982849 -91.295090
v  16.000000 79.982849 -91.295090
v  16.000000 79.982849 -85.623100
v  10.022085 79.982849 -85.623100
v  10.022085 79.982849 -74.328552
v  0.000000 79.982849 74.335754
v  6.001128 79.982849 74.335754
v  10.022085 79.982849 74.335754
v  16.000000 79.982849 74.335754
v  6.001128 79.982849 85.623047
v  0.000000 79.982849 85.607513
v  0.000000 79.982849 91.293823
v  16.000000 79.982849 91.293823
v  16.000000 79.982849 85.607513
v  10.022085 79.982849 85.623047
v  6.001128 -79.989563 74.341644
v  0.000000 -79.989563 74.341644
v  0.000000 -79.979126 68.672897
v  16.000000 -79.979126 68.672897
v  16.000000 -79.989563 74.341644
v  10.022085 -79.989563 74.341644
v  0.000000 -79.979126 -85.635979
v  6.000000 -79.979126 -85.635979
v  6.000000 -79.979126 -74.316872
v  0.000000 -79.979126 -74.316872
v  0.000000 -79.979126 -68.658379
v  16.000000 -79.979126 -68.658379
v  16.000000 -79.979126 -74.316872
v  10.000000 -79.979126 -74.316872
v  10.000000 -79.979126 -85.635979
v  16.000000 -79.979126 -85.635979
v  16.000000 -79.979141 -91.292831
v  0.000000 -79.979156 -91.292839
v  16.000002 8.000000 -2.302109
v  13.656853 5.656852 0.042328
v  16.000000 8.000000 0.042328
v  7.995196 -0.043188 -11.318481
v  2.343147 -5.656852 0.042328
v  -0.000001 -8.000000 0.042328
v  0.000000 -8.000000 -19.313614
v  0.000000 -8.000000 -13.656006
v  6.000014 -1.999986 -7.656616
v  8.019198 -0.038396 11.275360
v  -0.000002 -8.000000 13.652893
v  -0.000002 -7.999999 19.313446
v  6.000028 -1.999972 7.656052
v  -0.000001 -8.000000 2.384430
v  8.057594 -0.057594 -11.256104
v  10.000001 -2.000001 -7.656837
v  16.000000 -8.000001 -19.313675
v  16.000000 -8.000000 13.652130
v  8.014397 -0.043190 11.356918
v  0.000000 8.000000 0.042328
v  6.000000 2.000000 0.042328
v  0.000000 8.000000 -19.313553
v  5.999731 2.000269 7.656738
v  0.000001 8.000000 13.653656
v  88.000000 -7.999997 -128.000000
v  92.000000 -7.999996 -128.000000
v  92.000000 -1.999996 -128.000000
v  100.000000 -1.999996 -128.000000
v  100.000000 -7.999996 -128.000000
v  104.000000 -7.999996 -128.000000
v  104.000000 8.000004 -128.000000
v  100.000000 8.000004 -128.000000
v  100.000000 2.000004 -128.000000
v  92.000000 2.000004 -128.000000
v  92.000000 8.000004 -128.000000
v  88.000000 8.000004 -128.000000
v  88.000000 -7.999997 128.000000
v  92.000000 -7.999996 128.000000
v  92.000000 -1.999996 128.000000
v  100.000000 -1.999996 128.000000
v  100.000000 -7.999996 128.000000
v  104.000000 -7.999996 128.000000
v  104.000000 8.000004 128.000000
v  100.000000 8.000004 128.000000
v  100.000000 2.000004 128.000000
v  92.000000 2.000004 128.000000
v  92.000000 8.000004 128.000000
v  88.000000 8.000004 128.000000
v  -88.000000 -8.000004 -128.000000
v  -84.000000 -8.000004 -128.000000
v  -84.000000 -2.000004 -128.000000
v  -76.000000 -2.000004 -128.000000
v  -76.000000 -8.000004 -128.000000
v  -72.000000 -8.000004 -128.000000
v  -72.000000 7.999997 -128.000000
v  -76.000000 7.999996 -128.000000
v  -76.000000 1.999996 -128.000000
v  -84.000000 1.999996 -128.000000
v  -84.000000 7.999996 -128.000000
v  -88.000000 7.999996 -128.000000
v  -88.000000 -8.000004 128.000000
v  -84.000000 -8.000004 128.000000
v  -84.000000 -2.000004 128.000000
v  -76.000000 -2.000004 128.000000
v  -76.000000 -8.000004 128.000000
v  -72.000000 -8.000004 128.000000
v  -72.000000 7.999997 128.000000
v  -76.000000 7.999996 128.000000
v  -76.000000 1.999996 128.000000
v  -84.000000 1.999996 128.000000
v  -84.000000 7.999996 128.000000
v  -88.000000 7.999996 128.000000
v  87.989563 -7.999997 91.300537
v  92.000000 -7.999996 91.308212
v  92.000000 8.000004 91.308212
v  87.989563 8.000004 91.300537
v  -76.000000 -8.000004 91.308212
v  -76.000000 7.999996 91.308212
v  92.000000 -7.999996 85.561401
v  92.000000 8.000004 85.561401
v  87.989563 8.000004 85.598694
v  -76.000000 -8.000004 85.561401
v  -76.000000 7.999996 85.561401
v  87.989563 -7.999997 85.598694
v  92.000000 -7.999996 74.355164
v  92.000000 8.000004 74.355164
v  -76.000000 -8.000004 74.355164
v  -76.000000 7.999996 74.355164
v  92.000000 -7.999996 68.573227
v  92.000000 8.000004 68.573227
v  88.000000 8.000004 68.573227
v  -76.000000 -8.000004 68.573227
v  -71.982849 -8.000004 68.617157
v  -71.982849 7.999997 68.617157
v  -76.000000 7.999996 68.573227
v  88.000000 -7.999997 68.573227
v  92.000000 -7.999996 -91.310776
v  92.000000 8.000004 -91.310776
v  88.000000 8.000004 -91.310776
v  -76.000000 -8.000004 -91.310776
v  -76.000000 7.999996 -91.310776
v  88.000000 -7.999997 -91.310776
v  88.000000 -7.999997 -85.623657
v  92.000000 -7.999996 -85.623650
v  92.000000 8.000004 -85.623650
v  88.000000 8.000004 -85.623650
v  -76.000000 -8.000004 -85.623650
v  -76.000000 7.999996 -85.623650
v  88.000000 -7.999997 -74.355316
v  92.000000 -7.999996 -74.355316
v  92.000000 8.000004 -74.355316
v  88.000000 8.000004 -74.355316
v  -76.000000 -8.000004 -74.355316
v  -71.982849 -8.000004 -74.328552
v  -71.982849 7.999997 -74.328552
v  -76.000000 7.999996 -74.355316
v  88.000000 -7.999997 -68.723816
v  92.000000 -7.999996 -68.723808
v  92.000000 8.000004 -68.723808
v  88.000000 8.000004 -68.723808
v  -76.000000 -8.000004 -68.723808
v  -71.982849 -8.000004 -68.683563
v  -71.982849 7.999997 -68.683563
v  -76.000000 7.999996 -68.723808
v  87.989563 -1.998869 85.598694
v  88.000000 -1.997741 -85.623657
v  88.000000 -1.997741 -74.355316
v  -71.982849 -1.998876 -74.328552
v  87.989563 2.022089 85.598694
v  88.000000 2.044175 -85.623657
v  88.000000 2.044175 -74.355316
v  13.656860 -2.000000 0.042328
v  19.313713 -8.000000 0.042328
v  19.313713 8.000001 0.042328
v  13.656860 2.000000 0.042328
v  2.343155 2.000000 0.042328
v  -3.313683 -8.000001 0.042328
v  2.343155 -2.000000 0.042328
v  -3.313690 8.000000 0.042328
v  -71.982849 -1.998876 -85.623100
v  -71.982849 -8.000004 -85.623100
v  -71.982849 -8.000004 -91.295090
v  -71.982849 7.999997 -91.295090
v  -71.982849 7.999997 -85.623100
v  -71.982849 2.022082 -85.623100
v  -71.982849 2.022082 -74.328552
v  -71.982849 -8.000004 74.335754
v  -71.982849 -1.998876 74.335754
v  -71.982849 2.022082 74.335754
v  -71.982849 7.999997 74.335754
v  -71.982849 -1.998876 85.623047
v  -71.982849 -8.000004 85.607513
v  -71.982849 -8.000004 91.293823
v  -71.982849 7.999997 91.293823
v  -71.982849 7.999997 85.607513
v  -71.982849 2.022082 85.623047
v  87.989563 -1.998869 74.341644
v  87.989563 -7.999997 74.341644
v  87.979126 -7.999997 68.672897
v  87.979126 8.000004 68.672897
v  87.989563 8.000004 74.341644
v  87.989563 2.022089 74.341644
v  87.979126 -7.999997 -85.635979
v  87.979126 -1.999997 -85.635979
v  87.979126 -1.999997 -74.316872
v  87.979126 -7.999997 -74.316872
v  87.979126 -7.999997 -68.658379
v  87.979126 8.000004 -68.658379
v  87.979126 8.000004 -74.316872
v  87.979126 2.000004 -74.316872
v  87.979126 2.000004 -85.635979
v  87.979126 8.000004 -85.635979
v  87.979141 8.000004 -91.292831
v  87.979156 -7.999997 -91.292839
v  0.000000 -8.000000 -2.302109
v  6.000000 -2.000000 0.042328
v  10.000284 2.000282 -7.656914
v  10.000000 2.000000 0.042328
v  16.000000 8.000000 -13.656006
v  16.000000 8.000000 -19.313614
v  8.057575 0.057575 -11.371262
v  16.000000 8.000000 2.384430
v  10.000553 2.000552 7.656631
v  16.000002 8.000000 13.652893
v  16.000000 8.000000 19.313446
v  8.057587 0.057587 11.371307
v  0.000000 8.000000 -2.302246
v  2.343154 5.656845 0.042328
v  0.000000 8.000000 -13.655174
v  5.999732 2.000270 -7.656693
v  0.000000 8.000000 19.313461
v  0.000001 8.000000 2.384460
v  16.000000 -8.000000 -2.301979
v  13.656860 -5.656860 0.042328
v  16.000000 -8.000000 0.042328
v  16.000000 -8.000000 -13.656837
v  10.000000 -2.000000 0.042328
v  16.000000 -8.000000 19.313446
v  10.000255 -2.000255 7.655960
v  16.000000 -8.000000 2.384415
# 350 vertices

vt  0.146551 0.995622 -4.000000
vt  0.146551 0.964102 -4.000000
vt  0.193830 0.964102 -4.000000
vt  0.193830 0.901064 -4.000000
vt  0.146551 0.901064 -4.000000
vt  0.146551 0.869545 -4.000000
vt  0.272628 0.869545 -4.000000
vt  0.272628 0.901064 -4.000000
vt  0.225349 0.901064 -4.000000
vt  0.225349 0.964102 -4.000000
vt  0.272628 0.964102 -4.000000
vt  0.272628 0.995622 -4.000000
vt  0.004043 0.995622 4.000000
vt  0.004043 0.964102 4.000000
vt  0.051322 0.964102 4.000000
vt  0.051322 0.901064 4.000000
vt  0.004043 0.901064 4.000000
vt  0.004043 0.869545 4.000000
vt  0.130120 0.869545 4.000000
vt  0.130120 0.901064 4.000000
vt  0.082841 0.901064 4.000000
vt  0.082841 0.964102 4.000000
vt  0.130120 0.964102 4.000000
vt  0.130120 0.995622 4.000000
vt  0.866912 0.998875 -0.000018
vt  0.851310 0.998875 -0.000015
vt  0.827928 0.998875 -0.000013
vt  0.796771 0.998875 -0.000014
vt  0.773395 0.998875 -0.000016
vt  0.757802 0.998875 -0.000020
vt  0.695561 0.998875 -0.000043
vt  0.679989 0.998875 -0.000052
vt  0.656655 0.998875 -0.000072
vt  0.968109 0.998875 -0.000075
vt  0.944755 0.998875 -0.000050
vt  0.929169 0.998875 -0.000040
vt  0.866934 0.003548 -0.000002
vt  0.851334 0.003548 -0.000002
vt  0.827953 0.003548 -0.000002
vt  0.796795 0.003548 -0.000001
vt  0.773416 0.003548 -0.000000
vt  0.757820 0.003548 0.000001
vt  0.695573 0.003548 0.000006
vt  0.679998 0.003548 0.000008
vt  0.656659 0.003548 0.000014
vt  0.968115 0.003548 0.000005
vt  0.944768 0.003548 0.000001
vt  0.929186 0.003548 0.000000
vt  0.999224 0.998875 -0.000137
vt  0.999226 0.003548 0.000014
vt  0.147017 0.860923 -4.000000
vt  0.147017 0.829404 -4.000000
vt  0.194296 0.829404 -4.000000
vt  0.194296 0.766366 -4.000000
vt  0.147017 0.766366 -4.000000
vt  0.147017 0.734847 -4.000000
vt  0.273094 0.734847 -4.000000
vt  0.273094 0.766366 -4.000000
vt  0.225815 0.766366 -4.000000
vt  0.225815 0.829404 -4.000000
vt  0.273094 0.829404 -4.000000
vt  0.273094 0.860923 -4.000000
vt  0.004509 0.860923 4.000000
vt  0.004509 0.829404 4.000000
vt  0.051788 0.829404 4.000000
vt  0.051788 0.766366 4.000000
vt  0.004509 0.766366 4.000000
vt  0.004509 0.734847 4.000000
vt  0.130586 0.734847 4.000000
vt  0.130586 0.766366 4.000000
vt  0.083307 0.766366 4.000000
vt  0.083307 0.829404 4.000000
vt  0.130586 0.829404 4.000000
vt  0.130586 0.860923 4.000000
vt  0.522252 0.998875 -0.000018
vt  0.506650 0.998875 -0.000015
vt  0.483268 0.998875 -0.000013
vt  0.452111 0.998875 -0.000014
vt  0.428734 0.998875 -0.000016
vt  0.413142 0.998875 -0.000020
vt  0.350901 0.998875 -0.000043
vt  0.335329 0.998875 -0.000052
vt  0.311995 0.998875 -0.000072
vt  0.623449 0.998875 -0.000075
vt  0.600095 0.998875 -0.000050
vt  0.584509 0.998875 -0.000040
vt  0.522274 0.003548 -0.000002
vt  0.506674 0.003548 -0.000002
vt  0.483293 0.003548 -0.000002
vt  0.452135 0.003548 -0.000001
vt  0.428756 0.003548 -0.000000
vt  0.413160 0.003548 0.000001
vt  0.350913 0.003548 0.000006
vt  0.335338 0.003548 0.000008
vt  0.311999 0.003548 0.000014
vt  0.623455 0.003548 0.000005
vt  0.600108 0.003548 0.000001
vt  0.584526 0.003548 0.000000
vt  0.654564 0.998875 -0.000137
vt  0.654566 0.003548 0.000014
vt  0.866931 0.146205 -0.000004
vt  0.851331 0.146205 -0.000004
vt  0.944766 0.146205 -0.000006
vt  0.929184 0.146205 -0.000006
vt  0.428753 0.146205 -0.000003
vt  0.413158 0.146205 -0.000002
vt  0.350911 0.146205 -0.000001
vt  0.335336 0.146205 -0.000000
vt  0.851330 0.168549 -0.000004
vt  0.944766 0.168549 -0.000007
vt  0.929183 0.168549 -0.000006
vt  0.428752 0.168549 -0.000003
vt  0.413157 0.168549 -0.000003
vt  0.350911 0.168549 -0.000002
vt  0.335336 0.168549 -0.000002
vt  0.866930 0.168549 -0.000004
vt  0.851329 0.212119 -0.000004
vt  0.944766 0.212119 -0.000009
vt  0.929182 0.212119 -0.000008
vt  0.428751 0.212119 -0.000004
vt  0.413157 0.212119 -0.000004
vt  0.350910 0.212119 -0.000004
vt  0.335336 0.212119 -0.000004
vt  0.866929 0.212119 -0.000005
vt  0.851329 0.234599 -0.000005
vt  0.944765 0.234599 -0.000011
vt  0.929182 0.234599 -0.000009
vt  0.428751 0.234599 -0.000004
vt  0.413156 0.234599 -0.000004
vt  0.350910 0.234599 -0.000005
vt  0.335336 0.234599 -0.000006
vt  0.866929 0.234599 -0.000005
vt  0.851314 0.856227 -0.000013
vt  0.944757 0.856227 -0.000042
vt  0.929172 0.856227 -0.000034
vt  0.428738 0.856227 -0.000014
vt  0.413145 0.856227 -0.000017
vt  0.350902 0.856227 -0.000036
vt  0.335330 0.856227 -0.000043
vt  0.866915 0.856227 -0.000016
vt  0.866916 0.834116 -0.000015
vt  0.851314 0.834116 -0.000013
vt  0.944758 0.834116 -0.000041
vt  0.929172 0.834116 -0.000033
vt  0.428738 0.834116 -0.000014
vt  0.413145 0.834116 -0.000016
vt  0.350903 0.834116 -0.000035
vt  0.335331 0.834116 -0.000042
vt  0.866917 0.790304 -0.000014
vt  0.851315 0.790304 -0.000012
vt  0.944758 0.790304 -0.000039
vt  0.929173 0.790304 -0.000031
vt  0.428739 0.790304 -0.000013
vt  0.413146 0.790304 -0.000016
vt  0.350903 0.790304 -0.000033
vt  0.335331 0.790304 -0.000039
vt  0.866917 0.768409 -0.000014
vt  0.851316 0.768409 -0.000012
vt  0.944758 0.768409 -0.000038
vt  0.929173 0.768409 -0.000030
vt  0.428739 0.768409 -0.000013
vt  0.413147 0.768409 -0.000015
vt  0.350903 0.768409 -0.000032
vt  0.335331 0.768409 -0.000038
vt  0.890284 0.168549 -0.000005
vt  0.890283 0.212119 -0.000006
vt  0.890271 0.834116 -0.000022
vt  0.389796 0.834116 -0.000023
vt  0.890271 0.790304 -0.000021
vt  0.389796 0.790304 -0.000022
vt  0.906010 0.168549 -0.000006
vt  0.906009 0.212119 -0.000007
vt  0.905998 0.834116 -0.000026
vt  0.905999 0.790304 -0.000025
vt  0.374072 0.834116 -0.000028
vt  0.374072 0.790304 -0.000026
vt  0.413146 0.790304 -0.000016
vt  0.413145 0.834116 -0.000016
vt  0.389796 0.834116 -0.000023
vt  0.389796 0.790304 -0.000022
vt  0.374072 0.834116 -0.000028
vt  0.350903 0.834116 -0.000035
vt  0.350903 0.790304 -0.000033
vt  0.374072 0.790304 -0.000026
vt  0.452124 0.477232 -0.000007
vt  0.413152 0.461680 -0.000009
vt  0.350907 0.461680 -0.000017
vt  0.311997 0.477232 -0.000027
vt  0.654565 0.477232 -0.000058
vt  0.522262 0.523888 -0.000010
vt  0.483280 0.508336 -0.000007
vt  0.623452 0.508336 -0.000036
vt  0.584517 0.523888 -0.000021
vt  0.866923 0.483674 -0.000009
vt  0.827941 0.499226 -0.000007
vt  0.968112 0.499226 -0.000035
vt  0.929178 0.483674 -0.000019
vt  0.796783 0.530330 -0.000008
vt  0.757811 0.545882 -0.000010
vt  0.695566 0.545882 -0.000021
vt  0.656657 0.530330 -0.000031
vt  0.999225 0.530330 -0.000066
vt  0.506652 0.917114 -0.000014
vt  0.483270 0.917114 -0.000012
vt  0.452112 0.948257 -0.000013
vt  0.428736 0.948257 -0.000015
vt  0.413143 0.963809 -0.000019
vt  0.350901 0.963809 -0.000042
vt  0.335330 0.948257 -0.000049
vt  0.311995 0.948257 -0.000067
vt  0.654564 0.948257 -0.000129
vt  0.623449 0.917114 -0.000069
vt  0.600096 0.917114 -0.000045
vt  0.584511 0.901553 -0.000036
vt  0.522254 0.901553 -0.000016
vt  0.866932 0.106377 -0.000003
vt  0.851332 0.090834 -0.000003
vt  0.827951 0.090834 -0.000003
vt  0.968114 0.090834 -0.000002
vt  0.944767 0.090834 -0.000003
vt  0.929184 0.106377 -0.000004
vt  0.796794 0.059771 -0.000002
vt  0.773415 0.059771 -0.000001
vt  0.757820 0.044219 -0.000000
vt  0.695572 0.044219 0.000004
vt  0.679997 0.059771 0.000005
vt  0.656658 0.059771 0.000009
vt  0.999226 0.059771 0.000006
vt  0.522273 0.022151 -0.000002
vt  0.452134 0.068775 -0.000002
vt  0.428755 0.068775 -0.000001
vt  0.413159 0.084318 -0.000001
vt  0.350912 0.084318 0.000002
vt  0.335337 0.068775 0.000004
vt  0.311998 0.068775 0.000008
vt  0.654566 0.068775 0.000005
vt  0.506673 0.037703 -0.000002
vt  0.483292 0.037703 -0.000002
vt  0.623455 0.037703 0.000002
vt  0.600108 0.037703 -0.000000
vt  0.584526 0.022151 -0.000001
vt  0.851311 0.970324 -0.000014
vt  0.827929 0.970324 -0.000013
vt  0.796773 0.939191 -0.000013
vt  0.773396 0.939191 -0.000015
vt  0.757804 0.923630 -0.000018
vt  0.695562 0.923630 -0.000040
vt  0.679990 0.939191 -0.000048
vt  0.656655 0.939191 -0.000067
vt  0.999224 0.939191 -0.000128
vt  0.968109 0.970324 -0.000073
vt  0.944756 0.970324 -0.000048
vt  0.929169 0.985876 -0.000039
vt  0.866912 0.985876 -0.000018
vt  0.600102 0.521223 -0.000025
vt  0.609221 0.508336 -0.000029
vt  0.953881 0.499226 -0.000028
vt  0.593646 0.514778 -0.000023
vt  0.938307 0.492784 -0.000022
vt  0.350906 0.568099 -0.000022
vt  0.335333 0.552547 -0.000025
vt  0.311997 0.519566 -0.000031
vt  0.654565 0.519566 -0.000064
vt  0.633434 0.498357 -0.000043
vt  0.978243 0.509354 -0.000045
vt  0.695567 0.439928 -0.000016
vt  0.679994 0.455480 -0.000019
vt  0.656657 0.488461 -0.000028
vt  0.999225 0.488461 -0.000059
vt  0.944762 0.486351 -0.000023
vt  0.773404 0.543220 -0.000009
vt  0.782534 0.530330 -0.000008
vt  0.437875 0.477232 -0.000007
vt  0.766945 0.536772 -0.000009
vt  0.422287 0.470790 -0.000008
vt  0.866921 0.590102 -0.000011
vt  0.851321 0.574550 -0.000009
vt  0.827940 0.541560 -0.000008
vt  0.806778 0.520352 -0.000008
vt  0.462271 0.487362 -0.000007
vt  0.898049 0.546431 -0.000016
vt  0.506664 0.433483 -0.000007
vt  0.522265 0.417931 -0.000008
vt  0.483281 0.466469 -0.000007
vt  0.428746 0.464357 -0.000008
vt  0.679993 0.543220 -0.000024
vt  0.686444 0.536772 -0.000022
vt  0.341784 0.470790 -0.000019
vt  0.670880 0.530330 -0.000027
vt  0.326220 0.477232 -0.000023
vt  0.968111 0.541560 -0.000039
vt  0.989245 0.520352 -0.000056
vt  0.644433 0.487362 -0.000051
vt  0.944761 0.574550 -0.000028
vt  0.929176 0.590102 -0.000023
vt  0.335334 0.464357 -0.000020
vt  0.623452 0.466466 -0.000033
vt  0.600103 0.433483 -0.000021
vt  0.584519 0.417931 -0.000016
vt  0.553391 0.461596 -0.000014
vt  0.506662 0.521223 -0.000009
vt  0.513124 0.514778 -0.000009
vt  0.857785 0.492784 -0.000009
vt  0.497531 0.508336 -0.000008
vt  0.842191 0.499226 -0.000008
vt  0.452123 0.519563 -0.000007
vt  0.473285 0.498357 -0.000007
vt  0.817795 0.509354 -0.000007
vt  0.428744 0.552547 -0.000009
vt  0.413150 0.568099 -0.000011
vt  0.851323 0.486351 -0.000008
vt  0.796784 0.488464 -0.000007
vt  0.773406 0.455480 -0.000007
vt  0.757813 0.439928 -0.000008
vt  0.382029 0.524121 -0.000015
vt  0.726689 0.483907 -0.000013
vt  0.146551 0.995622 -4.000000
vt  0.146551 0.964102 -4.000000
vt  0.193830 0.964102 -4.000000
vt  0.193830 0.901064 -4.000000
vt  0.146551 0.901064 -4.000000
vt  0.146551 0.869545 -4.000000
vt  0.272628 0.869545 -4.000000
vt  0.272628 0.901064 -4.000000
vt  0.225349 0.901064 -4.000000
vt  0.225349 0.964102 -4.000000
vt  0.272628 0.964102 -4.000000
vt  0.272628 0.995622 -4.000000
vt  0.004043 0.995622 4.000000
vt  0.004043 0.964102 4.000000
vt  0.051322 0.964102 4.000000
vt  0.051322 0.901064 4.000000
vt  0.004043 0.901064 4.000000
vt  0.004043 0.869545 4.000000
vt  0.130120 0.869545 4.000000
vt  0.130120 0.901064 4.000000
vt  0.082841 0.901064 4.000000
vt  0.082841 0.964102 4.000000
vt  0.130120 0.964102 4.000000
vt  0.130120 0.995622 4.000000
vt  0.866912 0.998875 -0.000018
vt  0.851310 0.998875 -0.000015
vt  0.827928 0.998875 -0.000013
vt  0.796771 0.998875 -0.000014
vt  0.773395 0.998875 -0.000016
vt  0.757802 0.998875 -0.000020
vt  0.695561 0.998875 -0.000043
vt  0.679989 0.998875 -0.000052
vt  0.656655 0.998875 -0.000072
vt  0.968109 0.998875 -0.000075
vt  0.944755 0.998875 -0.000050
vt  0.929169 0.998875 -0.000040
vt  0.866934 0.003548 -0.000002
vt  0.851334 0.003548 -0.000002
vt  0.827953 0.003548 -0.000002
vt  0.796795 0.003548 -0.000001
vt  0.773416 0.003548 -0.000000
vt  0.757820 0.003548 0.000001
vt  0.695573 0.003548 0.000006
vt  0.679998 0.003548 0.000008
vt  0.656659 0.003548 0.000014
vt  0.968115 0.003548 0.000005
vt  0.944768 0.003548 0.000001
vt  0.929186 0.003548 0.000000
vt  0.999224 0.998875 -0.000137
vt  0.999226 0.003548 0.000014
vt  0.147017 0.860923 -4.000000
vt  0.147017 0.829404 -4.000000
vt  0.194296 0.829404 -4.000000
vt  0.194296 0.766366 -4.000000
vt  0.147017 0.766366 -4.000000
vt  0.147017 0.734847 -4.000000
vt  0.273094 0.734847 -4.000000
vt  0.273094 0.766366 -4.000000
vt  0.225815 0.766366 -4.000000
vt  0.225815 0.829404 -4.000000
vt  0.273094 0.829404 -4.000000
vt  0.273094 0.860923 -4.000000
vt  0.004509 0.860923 4.000000
vt  0.004509 0.829404 4.000000
vt  0.051788 0.829404 4.000000
vt  0.051788 0.766366 4.000000
vt  0.004509 0.766366 4.000000
vt  0.004509 0.734847 4.000000
vt  0.130586 0.734847 4.000000
vt  0.130586 0.766366 4.000000
vt  0.083307 0.766366 4.000000
vt  0.083307 0.829404 4.000000
vt  0.130586 0.829404 4.000000
vt  0.130586 0.860923 4.000000
vt  0.522252 0.998875 -0.000018
vt  0.506650 0.998875 -0.000015
vt  0.483268 0.998875 -0.000013
vt  0.452111 0.998875 -0.000014
vt  0.428734 0.998875 -0.000016
vt  0.413142 0.998875 -0.000020
vt  0.350901 0.998875 -0.000043
vt  0.335329 0.998875 -0.000052
vt  0.311995 0.998875 -0.000072
vt  0.623449 0.998875 -0.000075
vt  0.600095 0.998875 -0.000050
vt  0.584509 0.998875 -0.000040
vt  0.522274 0.003548 -0.000002
vt  0.506674 0.003548 -0.000002
vt  0.483293 0.003548 -0.000002
vt  0.452135 0.003548 -0.000001
vt  0.428756 0.003548 -0.000000
vt  0.413160 0.003548 0.000001
vt  0.350913 0.003548 0.000006
vt  0.335338 0.003548 0.000008
vt  0.311999 0.003548 0.000014
vt  0.623455 0.003548 0.000005
vt  0.600108 0.003548 0.000001
vt  0.584526 0.003548 0.000000
vt  0.654564 0.998875 -0.000137
vt  0.654566 0.003548 0.000014
vt  0.866931 0.146205 -0.000004
vt  0.851331 0.146205 -0.000004
vt  0.944766 0.146205 -0.000006
vt  0.929184 0.146205 -0.000006
vt  0.428753 0.146205 -0.000003
vt  0.413158 0.146205 -0.000002
vt  0.350911 0.146205 -0.000001
vt  0.335336 0.146205 -0.000000
vt  0.851330 0.168549 -0.000004
vt  0.944766 0.168549 -0.000007
vt  0.929183 0.168549 -0.000006
vt  0.428752 0.168549 -0.000003
vt  0.413157 0.168549 -0.000003
vt  0.350911 0.168549 -0.000002
vt  0.335336 0.168549 -0.000002
vt  0.866930 0.168549 -0.000004
vt  0.851329 0.212119 -0.000004
vt  0.944766 0.212119 -0.000009
vt  0.929182 0.212119 -0.000008
vt  0.428751 0.212119 -0.000004
vt  0.413157 0.212119 -0.000004
vt  0.350910 0.212119 -0.000004
vt  0.335336 0.212119 -0.000004
vt  0.866929 0.212119 -0.000005
vt  0.851329 0.234599 -0.000005
vt  0.944765 0.234599 -0.000011
vt  0.929182 0.234599 -0.000009
vt  0.428751 0.234599 -0.000004
vt  0.413156 0.234599 -0.000004
vt  0.350910 0.234599 -0.000005
vt  0.335336 0.234599 -0.000006
vt  0.866929 0.234599 -0.000005
vt  0.851314 0.856227 -0.000013
vt  0.944757 0.856227 -0.000042
vt  0.929172 0.856227 -0.000034
vt  0.428738 0.856227 -0.000014
vt  0.413145 0.856227 -0.000017
vt  0.350902 0.856227 -0.000036
vt  0.335330 0.856227 -0.000043
vt  0.866915 0.856227 -0.000016
vt  0.866916 0.834116 -0.000015
vt  0.851314 0.834116 -0.000013
vt  0.944758 0.834116 -0.000041
vt  0.929172 0.834116 -0.000033
vt  0.428738 0.834116 -0.000014
vt  0.413145 0.834116 -0.000016
vt  0.350903 0.834116 -0.000035
vt  0.335331 0.834116 -0.000042
vt  0.866917 0.790304 -0.000014
vt  0.851315 0.790304 -0.000012
vt  0.944758 0.790304 -0.000039
vt  0.929173 0.790304 -0.000031
vt  0.428739 0.790304 -0.000013
vt  0.413146 0.790304 -0.000016
vt  0.350903 0.790304 -0.000033
vt  0.335331 0.790304 -0.000039
vt  0.866917 0.768409 -0.000014
vt  0.851316 0.768409 -0.000012
vt  0.944758 0.768409 -0.000038
vt  0.929173 0.768409 -0.000030
vt  0.428739 0.768409 -0.000013
vt  0.413147 0.768409 -0.000015
vt  0.350903 0.768409 -0.000032
vt  0.335331 0.768409 -0.000038
vt  0.890284 0.168549 -0.000005
vt  0.890283 0.212119 -0.000006
vt  0.890271 0.834116 -0.000022
vt  0.389796 0.834116 -0.000023
vt  0.890271 0.790304 -0.000021
vt  0.389796 0.790304 -0.000022
vt  0.906010 0.168549 -0.000006
vt  0.906009 0.212119 -0.000007
vt  0.905998 0.834116 -0.000026
vt  0.905999 0.790304 -0.000025
vt  0.374072 0.834116 -0.000028
vt  0.374072 0.790304 -0.000026
vt  0.413146 0.790304 -0.000016
vt  0.413145 0.834116 -0.000016
vt  0.389796 0.834116 -0.000023
vt  0.389796 0.790304 -0.000022
vt  0.374072 0.834116 -0.000028
vt  0.350903 0.834116 -0.000035
vt  0.350903 0.790304 -0.000033
vt  0.374072 0.790304 -0.000026
vt  0.452124 0.477232 -0.000007
vt  0.413152 0.461680 -0.000009
vt  0.350907 0.461680 -0.000017
vt  0.311997 0.477232 -0.000027
vt  0.654565 0.477232 -0.000058
vt  0.522262 0.523888 -0.000010
vt  0.483280 0.508336 -0.000007
vt  0.623452 0.508336 -0.000036
vt  0.584517 0.523888 -0.000021
vt  0.866923 0.483674 -0.000009
vt  0.827941 0.499226 -0.000007
vt  0.968112 0.499226 -0.000035
vt  0.929178 0.483674 -0.000019
vt  0.796783 0.530330 -0.000008
vt  0.757811 0.545882 -0.000010
vt  0.695566 0.545882 -0.000021
vt  0.656657 0.530330 -0.000031
vt  0.999225 0.530330 -0.000066
vt  0.506652 0.917114 -0.000014
vt  0.483270 0.917114 -0.000012
vt  0.452112 0.948257 -0.000013
vt  0.428736 0.948257 -0.000015
vt  0.413143 0.963809 -0.000019
vt  0.350901 0.963809 -0.000042
vt  0.335330 0.948257 -0.000049
vt  0.311995 0.948257 -0.000067
vt  0.654564 0.948257 -0.000129
vt  0.623449 0.917114 -0.000069
vt  0.600096 0.917114 -0.000045
vt  0.584511 0.901553 -0.000036
vt  0.522254 0.901553 -0.000016
vt  0.866932 0.106377 -0.000003
vt  0.851332 0.090834 -0.000003
vt  0.827951 0.090834 -0.000003
vt  0.968114 0.090834 -0.000002
vt  0.944767 0.090834 -0.000003
vt  0.929184 0.106377 -0.000004
vt  0.796794 0.059771 -0.000002
vt  0.773415 0.059771 -0.000001
vt  0.757820 0.044219 -0.000000
vt  0.695572 0.044219 0.000004
vt  0.679997 0.059771 0.000005
vt  0.656658 0.059771 0.000009
vt  0.999226 0.059771 0.000006
vt  0.522273 0.022151 -0.000002
vt  0.452134 0.068775 -0.000002
vt  0.428755 0.068775 -0.000001
vt  0.413159 0.084318 -0.000001
vt  0.350912 0.084318 0.000002
vt  0.335337 0.068775 0.000004
vt  0.311998 0.068775 0.000008
vt  0.654566 0.068775 0.000005
vt  0.506673 0.037703 -0.000002
vt  0.483292 0.037703 -0.000002
vt  0.623455 0.037703 0.000002
vt  0.600108 0.037703 -0.000000
vt  0.584526 0.022151 -0.000001
vt  0.851311 0.970324 -0.000014
vt  0.827929 0.970324 -0.000013
vt  0.796773 0.939191 -0.000013
vt  0.773396 0.939191 -0.000015
vt  0.757804 0.923630 -0.000018
vt  0.695562 0.923630 -0.000040
vt  0.679990 0.939191 -0.000048
vt  0.656655 0.939191 -0.000067
vt  0.999224 0.939191 -0.000128
vt  0.968109 0.970324 -0.000073
vt  0.944756 0.970324 -0.000048
vt  0.929169 0.985876 -0.000039
vt  0.866912 0.985876 -0.000018
vt  0.506662 0.521223 -0.000009
vt  0.513124 0.514778 -0.000009
vt  0.857785 0.492784 -0.000009
vt  0.497531 0.508336 -0.000008
vt  0.842191 0.499226 -0.000008
vt  0.452123 0.519563 -0.000007
vt  0.473284 0.498357 -0.000007
vt  0.817795 0.509354 -0.000007
vt  0.428744 0.552547 -0.000009
vt  0.413150 0.568099 -0.000011
vt  0.851323 0.486351 -0.000008
vt  0.796784 0.488464 -0.000007
vt  0.773406 0.455480 -0.000007
vt  0.757812 0.439928 -0.000008
vt  0.679993 0.543220 -0.000024
vt  0.686444 0.536772 -0.000022
vt  0.341784 0.470790 -0.000019
vt  0.670880 0.530330 -0.000027
vt  0.326220 0.477232 -0.000023
vt  0.968111 0.541560 -0.000039
vt  0.989245 0.520352 -0.000056
vt  0.644433 0.487362 -0.000051
vt  0.944761 0.574550 -0.000028
vt  0.929176 0.590102 -0.000023
vt  0.898273 0.546431 -0.000016
vt  0.335334 0.464357 -0.000020
vt  0.623452 0.466466 -0.000033
vt  0.600103 0.433483 -0.000021
vt  0.584519 0.417931 -0.000016
vt  0.553615 0.461596 -0.000014
vt  0.600102 0.521223 -0.000025
vt  0.609221 0.508336 -0.000029
vt  0.953881 0.499226 -0.000028
vt  0.593646 0.514778 -0.000023
vt  0.938307 0.492784 -0.000022
vt  0.350906 0.568099 -0.000022
vt  0.335333 0.552547 -0.000025
vt  0.311997 0.519566 -0.000031
vt  0.654565 0.519566 -0.000064
vt  0.633434 0.498357 -0.000043
vt  0.978243 0.509354 -0.000045
vt  0.695567 0.439928 -0.000016
vt  0.679994 0.455480 -0.000019
vt  0.656657 0.488461 -0.000028
vt  0.999225 0.488461 -0.000059
vt  0.944762 0.486351 -0.000023
vt  0.382029 0.524121 -0.000015
vt  0.726689 0.483907 -0.000013
vt  0.773404 0.543220 -0.000009
vt  0.782534 0.530330 -0.000008
vt  0.437875 0.477232 -0.000007
vt  0.766945 0.536772 -0.000009
vt  0.422287 0.470790 -0.000008
vt  0.866921 0.590102 -0.000011
vt  0.851321 0.574550 -0.000009
vt  0.827940 0.541560 -0.000008
vt  0.806778 0.520352 -0.000008
vt  0.462271 0.487362 -0.000007
vt  0.897825 0.546431 -0.000016
vt  0.506664 0.433483 -0.000007
vt  0.522265 0.417931 -0.000008
vt  0.483281 0.466469 -0.000007
vt  0.428746 0.464357 -0.000008
vt  0.553167 0.461596 -0.000014
# 634 texture vertices

vn  0.000000 0.000000 -4.000000
vn  0.000000 -2.000000 0.000000
vn  0.000000 -1.000000 0.000000
vn  -1.000000 0.000000 0.000000
vn  0.000000 1.000000 0.000000
vn  -1.000000 0.000000 0.000000
vn  0.000000 -1.000000 0.000000
vn  1.000000 0.000000 0.000000
vn  0.000000 1.000000 0.000000
vn  1.000000 0.000000 0.000000
vn  0.000000 -1.000000 0.000000
vn  0.000000 0.000000 -1.000000
vn  -2.000000 0.000000 0.000000
vn  -1.000000 0.000000 0.000000
vn  0.000000 -10.000000 0.000000
vn  -2.000000 0.000000 0.000000
vn  0.000000 2.000000 0.000000
vn  -2.000000 0.000000 0.000000
vn  0.000000 -2.000000 0.000000
vn  2.000000 0.000000 0.000000
vn  0.000000 2.000000 0.000000
vn  2.000000 0.000000 0.000000
vn  0.000000 -2.000000 0.000000
vn  1.000000 0.000000 0.000000
vn  -2.000000 0.000000 0.000000
vn  -1.000000 0.000000 0.000000
vn  0.000000 -1.000000 0.000000
vn  -1.000000 0.000000 0.000000
vn  0.000000 1.000000 0.000000
vn  0.000000 0.000000 -3.000000
vn  0.000000 0.000000 -2.000000
vn  0.000000 2.000000 0.000000
vn  0.000000 1.000000 0.000000
vn  1.000000 0.000000 0.000000
vn  0.000000 -1.000000 0.000000
vn  1.000000 0.000000 0.000000
vn  -1.000000 0.000000 0.000000
vn  -2.000000 0.000000 0.000000
vn  0.000000 -2.000000 0.000000
vn  -2.000000 0.000000 0.000000
vn  0.000000 2.000000 0.000000
vn  -1.000000 0.000000 0.000000
vn  0.000000 -1.000000 0.000467
vn  1.000000 0.000000 0.000000
vn  0.000000 10.000000 0.000000
vn  2.000000 0.000000 0.000000
vn  0.000000 -2.000000 0.000000
vn  2.000000 0.000000 0.000000
vn  -1.000000 0.000000 0.000000
vn  -2.000000 0.000000 0.000000
vn  0.000000 -2.000000 0.000000
vn  2.000000 0.000000 0.000000
vn  0.000000 2.000000 0.000000
vn  2.000000 0.000000 0.000000
vn  0.000000 -2.000000 0.000000
vn  0.000000 -2.000000 0.000000
vn  3.000000 0.000000 0.000000
vn  0.000000 2.000000 0.000000
vn  0.000000 2.000000 0.000000
vn  -3.000000 0.000000 0.000000
vn  0.000000 -2.000000 0.000000
vn  0.000000 -2.000000 0.000000
vn  0.000000 2.000000 0.000000
vn  0.000000 2.000000 0.000000
vn  0.000000 -2.000000 0.000000
vn  0.000000 -2.000000 0.000000
vn  3.000000 0.000000 0.000000
vn  0.000000 2.000000 0.000000
vn  -3.000000 0.000000 0.000000
vn  2.000000 0.000000 0.000000
vn  0.000000 2.000000 0.000000
vn  -3.000000 0.000000 0.000000
vn  0.000000 -2.000000 0.000000
vn  0.000000 -2.000000 0.000000
vn  2.000000 0.000000 0.000000
vn  0.000000 2.000000 0.000000
vn  0.000000 2.000000 0.000000
vn  -1.000000 0.000000 0.000000
vn  -1.000000 0.000000 0.000000
vn  0.000000 -2.000000 0.000000
vn  0.000000 -2.000000 0.000000
vn  2.000000 0.000000 0.000000
vn  0.000000 2.000000 0.000000
vn  0.000000 2.000000 0.000000
vn  -3.000000 0.000000 0.000000
vn  0.000000 -2.000000 0.000000
vn  0.000000 -2.000000 0.000000
vn  2.000000 0.000000 0.000000
vn  0.000000 2.000000 0.000000
vn  -2.000000 0.000000 0.000000
vn  3.000000 0.000000 0.000000
vn  0.000000 2.000000 0.000000
vn  -2.000000 0.000000 0.000000
vn  0.000000 -2.000000 0.000000
vn  0.000000 -2.000000 0.000000
vn  1.000000 0.000000 0.000000
vn  0.000000 2.000000 0.000000
vn  -1.000000 0.000000 0.000000
vn  0.000000 -1.000000 0.000000
vn  0.000000 2.000000 0.000000
vn  0.000000 2.000000 0.000000
vn  0.000000 1.000000 0.000000
vn  0.000000 1.000000 0.000000
vn  0.000000 -2.000000 0.000000
vn  0.000000 2.000000 0.000000
vn  0.000000 1.000000 0.000000
vn  0.000000 1.000000 0.000000
vn  0.000018 2.121864 -2.120776
vn  -3.000000 -0.000000 -0.000000
vn  0.000000 -1.414577 1.413850
vn  -0.000000 2.121848 -2.120793
vn  0.000017 -2.121943 -2.120698
vn  -3.000000 0.000000 0.000000
vn  0.000001 -2.121961 -2.120679
vn  3.000000 0.000001 0.000001
vn  0.000000 -1.000000 0.000000
vn  -3.000000 0.000000 0.000000
vn  -2.000000 0.000000 0.000000
vn  0.000000 -2.000000 -0.000935
vn  3.000000 0.000000 0.000000
vn  0.000000 -1.000000 0.000000
vn  0.000000 -2.000000 0.000000
vn  -3.000000 0.000000 0.000000
vn  0.000000 -1.000000 0.000000
vn  0.000000 -1.000000 0.000000
vn  3.000000 0.000000 0.000000
vn  0.000000 -2.000000 0.000000
vn  -3.000000 0.000000 0.000000
vn  -2.000000 0.000000 0.000000
vn  0.000000 -2.000000 0.000934
vn  3.000000 0.000000 0.000000
vn  0.000000 -2.000000 0.000000
vn  0.000000 1.000000 0.000000
vn  -3.000000 0.000000 0.000000
vn  0.000000 -0.706927 -0.707286
vn  0.000000 -1.413855 -1.414572
vn  1.000000 0.000000 0.000000
vn  0.000000 1.000000 0.000000
vn  0.000000 -0.707111 0.707103
vn  0.000076 -1.414219 1.414208
vn  0.000000 0.707282 -0.706931
vn  0.000016 1.414564 -1.413863
vn  -1.000000 0.000000 0.000000
vn  0.000000 -0.707289 0.706925
vn  2.000000 0.000000 0.000000
vn  0.000000 0.707282 -0.706931
vn  2.000000 -0.000000 0.000000
vn  0.000000 -0.707107 0.707107
vn  1.000000 0.000000 -0.000000
vn  0.000613 2.121622 -2.121005
vn  0.000017 -1.414623 -1.413805
vn  0.000001 -0.707302 -0.706912
vn  2.000000 0.000001 0.000000
vn  -0.000003 -0.704984 -0.709224
vn  0.000002 0.707300 -0.706913
vn  -2.000000 -0.000001 -0.000000
vn  0.003388 0.707103 -0.707102
vn  0.000076 -1.414219 1.414208
vn  0.000076 -0.707108 0.707106
vn  0.000001 -0.707093 0.707120
vn  -1.000000 -0.000000 0.000000
vn  -2.000000 -0.000000 0.000000
vn  -0.000050 -0.706894 -0.707320
vn  0.000002 0.706948 0.707266
vn  0.000000 0.000000 0.000000
vn  2.000000 -0.000000 0.000000
vn  2.000000 0.000000 -0.000000
vn  1.000000 0.000000 0.000000
vn  0.000000 1.414189 1.414238
vn  -3.000000 -0.000000 0.000000
vn  -3.000000 0.000048 0.000015
vn  -2.000000 0.000000 0.000000
vn  -2.000000 0.000066 -0.000035
vn  -1.000000 0.000000 -0.000000
vn  0.000000 0.000000 -4.000000
vn  2.000000 0.000000 0.000000
vn  1.000000 0.000000 0.000000
vn  0.000000 -1.000000 0.000000
vn  -1.000000 0.000000 0.000000
vn  0.000000 -1.000000 0.000000
vn  1.000000 0.000000 0.000000
vn  0.000000 1.000000 0.000000
vn  -1.000000 0.000000 0.000000
vn  -0.000000 1.000000 0.000000
vn  1.000000 0.000000 0.000000
vn  0.000000 0.000000 -1.000000
vn  0.000000 -2.000000 -0.000000
vn  0.000000 -1.000000 0.000000
vn  10.000000 0.000000 0.000000
vn  0.000000 -2.000000 0.000000
vn  -2.000000 0.000000 0.000000
vn  0.000000 -2.000000 0.000000
vn  2.000000 0.000000 0.000000
vn  0.000000 2.000000 0.000000
vn  -2.000000 0.000000 0.000000
vn  -0.000000 2.000000 0.000000
vn  2.000000 0.000000 0.000000
vn  0.000000 1.000000 0.000000
vn  0.000000 -2.000000 0.000000
vn  0.000000 -1.000000 0.000000
vn  1.000000 0.000000 0.000000
vn  0.000000 -1.000000 0.000000
vn  -1.000000 0.000000 0.000000
vn  0.000000 0.000000 -3.000000
vn  0.000000 0.000000 -2.000000
vn  -2.000000 0.000000 0.000000
vn  -1.000000 0.000000 0.000000
vn  -0.000000 1.000000 0.000000
vn  1.000000 0.000000 0.000000
vn  -0.000000 1.000000 0.000000
vn  0.000000 -1.000000 0.000000
vn  0.000000 -2.000000 0.000000
vn  2.000000 0.000000 0.000000
vn  0.000000 -2.000000 0.000000
vn  -2.000000 0.000000 0.000000
vn  0.000000 -1.000000 0.000000
vn  1.000000 0.000000 0.000467
vn  -0.000000 1.000000 0.000000
vn  -10.000000 0.000000 0.000000
vn  -0.000000 2.000000 0.000000
vn  2.000000 0.000000 0.000000
vn  -0.000000 2.000000 0.000000
vn  0.000000 -1.000000 -0.000000
vn  0.000000 -2.000000 -0.000000
vn  2.000000 0.000000 0.000000
vn  0.000000 2.000000 0.000000
vn  -2.000000 0.000000 0.000000
vn  -0.000000 2.000000 -0.000000
vn  2.000000 0.000000 0.000000
vn  2.000000 0.000000 0.000000
vn  0.000000 3.000000 0.000000
vn  -2.000000 0.000000 0.000000
vn  -2.000000 0.000000 0.000000
vn  0.000000 -3.000000 0.000000
vn  2.000000 0.000000 0.000000
vn  2.000000 0.000000 0.000000
vn  -2.000000 0.000000 0.000000
vn  -2.000000 0.000000 0.000000
vn  2.000000 0.000000 0.000000
vn  2.000000 0.000000 0.000000
vn  0.000000 3.000000 0.000000
vn  -2.000000 0.000000 0.000000
vn  0.000000 -3.000000 0.000000
vn  -0.000000 2.000000 0.000000
vn  -2.000000 0.000000 0.000000
vn  0.000000 -3.000000 0.000000
vn  2.000000 0.000000 0.000000
vn  2.000000 0.000000 0.000000
vn  0.000000 2.000000 0.000000
vn  -2.000000 0.000000 0.000000
vn  -2.000000 0.000000 0.000000
vn  0.000000 -1.000000 0.000000
vn  0.000000 -1.000000 0.000000
vn  2.000000 0.000000 0.000000
vn  2.000000 0.000000 0.000000
vn  0.000000 2.000000 0.000000
vn  -2.000000 0.000000 0.000000
vn  -2.000000 0.000000 0.000000
vn  0.000000 -3.000000 0.000000
vn  2.000000 0.000000 0.000000
vn  2.000000 0.000000 0.000000
vn  0.000000 2.000000 0.000000
vn  -2.000000 0.000000 0.000000
vn  0.000000 -2.000000 0.000000
vn  -0.000000 3.000000 0.000000
vn  -2.000000 0.000000 0.000000
vn  0.000000 -2.000000 0.000000
vn  2.000000 0.000000 0.000000
vn  2.000000 0.000000 0.000000
vn  0.000000 1.000000 0.000000
vn  -2.000000 0.000000 0.000000
vn  0.000000 -1.000000 0.000000
vn  1.000000 0.000000 0.000000
vn  -2.000000 0.000000 0.000000
vn  -2.000000 0.000000 0.000000
vn  -1.000000 0.000000 0.000000
vn  -1.000000 0.000000 0.000000
vn  2.000000 0.000000 0.000000
vn  -2.000000 0.000000 0.000000
vn  -1.000000 0.000000 0.000000
vn  -1.000000 0.000000 0.000000
vn  -2.121848 0.000000 -2.120793
vn  0.000000 -3.000000 -0.000000
vn  1.414577 0.000000 1.413850
vn  -2.121864 -0.000017 -2.120776
vn  2.121961 -0.000000 -2.120679
vn  0.000001 -3.000000 -0.000000
vn  2.121943 -0.000018 -2.120697
vn  -0.000000 3.000000 0.000000
vn  1.000000 0.000000 0.000000
vn  0.000000 -3.000000 0.000000
vn  0.000000 -2.000000 0.000000
vn  2.000000 0.000000 -0.000935
vn  -0.000000 3.000000 0.000000
vn  1.000000 0.000000 0.000000
vn  2.000000 0.000000 0.000000
vn  0.000000 -3.000000 0.000000
vn  1.000000 0.000000 0.000000
vn  1.000000 0.000000 0.000000
vn  -0.000000 3.000000 0.000000
vn  2.000000 0.000000 0.000000
vn  0.000000 -3.000000 0.000000
vn  0.000000 -2.000000 0.000000
vn  2.000000 0.000000 0.000934
vn  -0.000000 3.000000 0.000000
vn  2.000000 0.000000 0.000000
vn  -1.000000 0.000000 0.000000
vn  0.000000 -3.000000 0.000000
vn  0.706927 0.000000 -0.707286
vn  1.413855 0.000000 -1.414572
vn  0.000000 1.000000 0.000000
vn  -1.000000 0.000000 0.000000
vn  0.707107 0.000000 0.707107
vn  1.414214 0.000000 1.414213
vn  -0.707282 0.000000 -0.706931
vn  -1.414565 0.000000 -1.413862
vn  0.000000 -1.000000 0.000000
vn  0.707289 0.000000 0.706925
vn  -0.000000 2.000000 -0.000000
vn  -0.707282 0.000000 -0.706931
vn  0.000027 2.000000 0.000024
vn  0.707111 0.000000 0.707103
vn  -0.000000 1.000000 -0.000000
vn  -2.121243 -0.000157 -2.121397
vn  0.000018 1.414582 -1.413845
vn  -2.000000 -0.000000 0.000002
vn  0.000075 0.707033 0.707181
vn  2.000000 0.000000 -0.000036
vn  0.000075 1.414062 1.414365
vn  -0.000005 -1.412084 -1.416337
vn  -0.771528 0.154344 -0.617190
vn  0.000006 -0.706952 0.707262
vn  -0.000232 0.707035 -0.707179
vn  1.000000 -0.000000 0.000000
vn  2.000000 -0.000000 0.000000
vn  -0.801785 0.267306 0.534498
vn  -2.000000 0.000000 0.000000
vn  0.000000 -0.707321 -0.706893
vn  0.000000 1.414067 1.414360
vn  -2.000000 0.000036 0.000053
vn  -2.000000 0.000000 -0.000000
vn  -1.000000 -0.000000 0.000000
vn  2.000000 0.000000 0.000000
vn  0.000000 0.707283 -0.706931
vn  3.000000 0.000000 0.000000
vn  -0.000000 -1.414214 1.414213
vn  3.000000 0.000251 -0.000331
vn  2.000000 0.000000 0.000000
vn  2.000000 0.000531 -0.000033
vn  1.000000 0.000000 0.000000
# 350 vertex normals

g beam
usemtl ENV_ARC_TBeam_16x256_V01_M
s 1
f 50/102/50 14/38/14 13/37/13
f 13/37/13 49/101/49 50/102/50
s 2
f 15/39/15 14/38/14 50/102/50
f 15/39/15 50/102/50 55/109/55
f 15/39/15 55/109/55 61/117/61
f 15/39/15 61/117/61 65/125/65
f 15/39/15 65/125/65 94/158/94
f 15/39/15 94/158/94 86/150/86
f 15/39/15 86/150/86 80/142/80
f 15/39/15 80/142/80 73/133/73
f 15/39/15 73/133/73 2/26/2
f 15/39/15 2/26/2 3/27/3
s 1
f 16/40/16 15/39/15 3/27/3
f 3/27/3 4/28/4 16/40/16
s 2
f 17/41/17 16/40/16 4/28/4
f 4/28/4 5/29/5 17/41/17
s 1
f 18/42/18 17/41/17 5/29/5
f 5/29/5 6/30/6 18/42/18
s 2
f 19/43/19 18/42/18 6/30/6
f 6/30/6 7/31/7 19/43/19
s 1
f 20/44/20 19/43/19 7/31/7
f 7/31/7 8/32/8 20/44/20
s 2
f 21/45/21 20/44/20 8/32/8
f 8/32/8 9/33/9 21/45/21
s 1
f 22/46/22 21/50/21 9/49/9
f 9/49/9 10/34/10 22/46/22
s 2
f 10/34/10 11/35/11 74/134/74
f 10/34/10 74/134/74 81/143/81
f 10/34/10 81/143/81 87/151/87
f 10/34/10 87/151/87 95/159/95
f 10/34/10 95/159/95 66/126/66
f 10/34/10 66/126/66 62/118/62
f 10/34/10 62/118/62 56/110/56
f 10/34/10 56/110/56 51/103/51
f 10/34/10 51/103/51 23/47/23
f 10/34/10 23/47/23 22/46/22
s 1
f 52/104/52 24/48/24 23/47/23
f 23/47/23 51/103/51 52/104/52
s 2
f 49/101/49 13/37/13 24/48/24
f 24/48/24 52/104/52 49/101/49
s 4
f 1/1/1 12/12/12 11/11/11
f 1/1/1 11/11/11 10/10/10
f 1/1/1 10/10/10 3/3/3
f 1/1/1 3/3/3 2/2/2
f 21/21/21 22/22/22 15/15/15
f 15/15/15 16/16/16 21/21/21
f 13/13/13 14/14/14 15/15/15
f 13/13/13 15/15/15 22/22/22
f 13/13/13 22/22/22 23/23/23
f 13/13/13 23/23/23 24/24/24
f 19/19/19 20/20/20 21/21/21
f 16/16/16 17/17/17 18/18/18
f 21/21/21 16/16/16 18/18/18
f 19/19/19 21/21/21 18/18/18
f 3/3/3 10/10/10 9/9/9
f 9/9/9 4/4/4 3/3/3
f 6/6/6 5/5/5 4/4/4
f 6/6/6 4/4/4 9/9/9
f 9/9/9 8/8/8 7/7/7
f 6/6/6 9/9/9 7/7/7
s 1
f 38/88/38 37/87/37 25/75/25
f 25/75/25 26/76/26 38/88/38
s 2
f 39/89/39 38/88/38 26/76/26
f 26/76/26 27/77/27 39/89/39
s 1
f 40/90/40 39/89/39 27/77/27
f 27/77/27 28/78/28 40/90/40
s 2
f 28/78/28 29/79/29 76/136/76
f 28/78/28 76/136/76 83/145/83
f 28/78/28 83/145/83 89/153/89
f 28/78/28 89/153/89 97/161/97
f 28/78/28 97/161/97 68/128/68
f 28/78/28 68/128/68 63/120/63
f 28/78/28 63/120/63 58/112/58
f 28/78/28 58/112/58 53/105/53
f 28/78/28 53/105/53 41/91/41
f 28/78/28 41/91/41 40/90/40
s 1
f 129/106/129 42/92/42 41/91/41
f 41/91/41 53/105/53 129/106/129
s 2
f 130/107/130 43/93/43 42/92/42
f 42/92/42 129/106/129 130/107/130
s 1
f 54/108/54 44/94/44 43/93/43
f 43/93/43 130/107/130 54/108/54
s 2
f 45/95/45 44/94/44 54/108/54
f 45/95/45 54/108/54 59/115/59
f 45/95/45 59/115/59 64/123/64
f 45/95/45 64/123/64 71/131/71
f 45/95/45 71/131/71 100/164/100
f 45/95/45 100/164/100 92/156/92
f 45/95/45 92/156/92 84/148/84
f 45/95/45 84/148/84 77/139/77
f 45/95/45 77/139/77 32/82/32
f 45/95/45 32/82/32 33/83/33
s 1
f 46/96/46 45/100/45 33/99/33
f 33/99/33 34/84/34 46/96/46
s 2
f 47/97/47 46/96/46 34/84/34
f 34/84/34 35/85/35 47/97/47
s 1
f 48/98/48 47/97/47 35/85/35
f 35/85/35 36/86/36 48/98/48
s 2
f 37/87/37 48/98/48 36/86/36
f 36/86/36 25/75/25 37/87/37
s 4
f 25/51/25 36/62/36 35/61/35
f 25/51/25 35/61/35 34/60/34
f 33/59/33 32/58/32 31/57/31
f 33/59/33 31/57/31 30/56/30
f 30/56/30 29/55/29 28/54/28
f 33/59/33 30/56/30 28/54/28
f 33/59/33 28/54/28 27/53/27
f 34/60/34 33/59/33 27/53/27
f 25/51/25 34/60/34 27/53/27
f 25/51/25 27/53/27 26/52/26
f 43/69/43 44/70/44 45/71/45
f 47/73/47 48/74/48 37/63/37
f 46/72/46 47/73/47 37/63/37
f 37/63/37 38/64/38 39/65/39
f 46/72/46 37/63/37 39/65/39
f 45/71/45 46/72/46 39/65/39
f 45/71/45 39/65/39 40/66/40
f 40/66/40 41/67/41 42/68/42
f 45/71/45 40/66/40 42/68/42
f 43/69/43 45/71/45 42/68/42
s 1
f 50/102/50 49/101/49 60/116/60
f 60/116/60 55/109/55 50/102/50
f 52/104/52 51/103/51 56/110/56
f 56/110/56 57/111/57 52/104/52
f 129/106/129 53/105/53 58/112/58
f 58/112/58 128/113/128 129/106/129
f 54/108/54 130/107/130 131/114/131
f 131/114/131 59/115/59 54/108/54
f 55/109/55 60/116/60 134/124/134
f 134/124/134 61/117/61 55/109/55
f 57/111/57 56/110/56 62/118/62
f 62/118/62 137/119/137 57/111/57
s 2
f 105/171/105 57/111/57 137/119/137
f 137/119/137 138/172/138 105/171/105
s 1
f 128/113/128 58/112/58 63/120/63
f 63/120/63 123/121/123 128/113/128
f 59/115/59 131/114/131 126/122/126
f 126/122/126 64/123/64 59/115/59
f 61/117/61 134/124/134 72/132/72
f 72/132/72 65/125/65 61/117/61
f 137/119/137 62/118/62 66/126/66
f 66/126/66 67/127/67 137/119/137
f 123/121/123 63/120/63 68/128/68
f 68/128/68 69/129/69 123/121/123
f 64/123/64 126/122/126 70/130/70
f 70/130/70 71/131/71 64/123/64
f 65/125/65 72/132/72 93/157/93
f 93/157/93 94/158/94 65/125/65
f 67/127/67 66/126/66 95/159/95
f 95/159/95 96/160/96 67/127/67
s 2
f 72/132/72 67/127/67 96/160/96
f 96/160/96 93/157/93 72/132/72
s 1
f 69/129/69 68/128/68 97/161/97
f 97/161/97 98/162/98 69/129/69
s 2
f 70/130/70 69/129/69 98/162/98
f 98/162/98 99/163/99 70/130/70
s 1
f 71/131/71 70/130/70 99/163/99
f 99/163/99 100/164/100 71/131/71
f 73/133/73 78/140/78 1/25/1
f 1/25/1 2/26/2 73/133/73
f 75/135/75 74/134/74 11/35/11
f 11/35/11 12/36/12 75/135/75
s 2
f 78/140/78 75/135/75 12/36/12
f 12/36/12 1/25/1 78/140/78
s 1
f 118/137/118 76/136/76 29/79/29
f 29/79/29 30/80/30 118/137/118
s 2
f 119/138/119 118/137/118 30/80/30
f 30/80/30 31/81/31 119/138/119
s 1
f 77/139/77 119/138/119 31/81/31
f 31/81/31 32/82/32 77/139/77
f 80/142/80 79/141/79 78/140/78
f 78/140/78 73/133/73 80/142/80
f 82/144/82 81/143/81 74/134/74
f 74/134/74 75/135/75 82/144/82
s 2
f 75/135/75 78/140/78 79/141/79
f 75/135/75 79/141/79 102/167/102
f 75/135/75 102/167/102 106/173/106
f 75/135/75 106/173/106 82/144/82
s 1
f 117/146/117 83/145/83 76/136/76
f 76/136/76 118/137/118 117/146/117
f 84/148/84 120/147/120 119/138/119
f 119/138/119 77/139/77 84/148/84
f 86/150/86 85/149/85 79/141/79
f 79/141/79 80/142/80 86/150/86
f 88/152/88 87/151/87 81/143/81
f 81/143/81 82/144/82 88/152/88
s 2
f 107/174/107 88/152/88 82/144/82
f 82/144/82 106/173/106 107/174/107
s 1
f 90/154/90 89/153/89 83/145/83
f 83/145/83 117/146/117 90/154/90
s 2
f 104/170/104 90/154/90 117/146/117
f 117/146/117 116/168/116 104/170/104
s 1
f 92/156/92 91/155/91 120/147/120
f 120/147/120 84/148/84 92/156/92
f 94/158/94 93/157/93 85/149/85
f 85/149/85 86/150/86 94/158/94
f 96/160/96 95/159/95 87/151/87
f 87/151/87 88/152/88 96/160/96
s 2
f 103/169/103 85/149/85 93/157/93
f 93/157/93 96/160/96 88/152/88
f 93/157/93 88/152/88 107/174/107
f 103/169/103 93/157/93 107/174/107
s 1
f 98/162/98 97/161/97 89/153/89
f 89/153/89 90/154/90 98/162/98
f 100/164/100 99/163/99 91/155/91
f 91/155/91 92/156/92 100/164/100
s 2
f 101/165/101 133/166/133 134/124/134
f 134/124/134 60/116/60 101/165/101
f 103/169/103 102/167/102 79/141/79
f 79/141/79 85/149/85 103/169/103
f 107/174/107 106/173/106 102/167/102
f 102/167/102 103/169/103 107/174/107
f 122/176/122 121/175/121 120/147/120
f 120/147/120 91/155/91 122/176/122
f 127/180/127 128/177/128 123/178/123
f 123/178/123 124/179/124 127/180/127
f 132/184/132 125/181/125 126/182/126
f 126/182/126 131/183/131 132/184/132
s 1
f 337/301/337 170/302/170 113/190/113
f 90/203/90 337/301/337 113/190/113
f 98/215/98 90/203/90 113/190/113
s 4
f 90/203/90 104/204/104 114/191/114
f 114/191/114 338/304/338 337/301/337
f 90/203/90 114/191/114 337/301/337
s 1
f 340/306/340 171/307/171 114/191/114
f 116/205/116 340/306/340 114/191/114
f 104/204/104 116/205/116 114/191/114
s 4
f 151/255/151 152/256/152 112/192/112
f 91/213/91 151/255/151 112/192/112
f 122/212/122 91/213/91 112/192/112
s 1
f 91/213/91 99/214/99 115/193/115
f 115/193/115 153/258/153 151/255/151
f 91/213/91 115/193/115 151/255/151
s 4
f 113/190/113 115/193/115 99/214/99
f 99/214/99 98/215/98 113/190/113
f 116/205/116 117/206/117 339/309/339
f 339/309/339 340/306/340 116/205/116
s 1
f 117/206/117 118/207/118 172/310/172
f 172/310/172 339/309/339 117/206/117
s 4
f 330/260/330 154/315/154 172/310/172
f 119/208/119 330/260/330 172/310/172
f 118/207/118 119/208/119 172/310/172
f 121/210/121 327/262/327 329/261/329
f 329/261/329 120/209/120 121/210/121
s 1
f 112/192/112 328/264/328 327/263/327
f 112/192/112 327/263/327 121/211/121
f 122/212/122 112/192/112 121/211/121
f 325/271/325 155/272/155 108/198/108
f 142/245/142 325/271/325 108/198/108
f 141/244/141 142/245/142 108/198/108
s 4
f 142/245/142 143/246/143 109/199/109
f 109/199/109 156/274/156 325/271/325
f 142/245/142 109/199/109 325/271/325
s 1
f 110/200/110 109/199/109 143/246/143
f 143/246/143 144/247/144 110/200/110
s 4
f 343/286/343 345/287/345 110/200/110
f 145/248/145 343/286/343 110/200/110
f 144/247/144 145/248/145 110/200/110
s 1
f 145/248/145 146/249/146 111/201/111
f 111/201/111 344/289/344 343/286/343
f 145/248/145 111/201/111 343/286/343
s 4
f 166/291/166 347/292/347 111/202/111
f 147/251/147 166/291/166 111/202/111
f 146/250/146 147/251/147 111/202/111
s 1
f 140/243/140 159/278/159 158/277/158
f 158/277/158 139/242/139 140/243/140
s 4
f 108/198/108 326/279/326 159/278/159
f 108/198/108 159/278/159 140/243/140
f 141/244/141 108/198/108 140/243/140
s 1
f 147/251/147 148/252/148 346/294/346
f 346/294/346 166/291/166 147/251/147
s 2
f 148/252/148 149/253/149 167/295/167
f 167/295/167 346/294/346 148/252/148
s 1
f 150/254/150 157/276/157 154/281/154
f 150/254/150 154/281/154 167/295/167
f 149/253/149 150/254/150 167/295/167
f 170/303/170 342/311/342 123/217/123
f 113/194/113 170/303/170 123/217/123
f 113/194/113 123/217/123 69/216/69
f 173/312/173 127/222/127 124/218/124
f 171/308/171 173/312/173 124/218/124
f 114/195/114 171/308/171 124/218/124
f 128/223/128 174/313/174 341/314/341
f 341/314/341 129/224/129 128/223/128
s 8
f 152/257/152 332/270/332 126/220/126
f 112/196/112 152/257/152 126/220/126
f 112/196/112 126/220/126 125/219/125
f 69/216/69 70/221/70 115/197/115
f 115/197/115 113/194/113 69/216/69
f 155/273/155 164/285/164 134/231/134
f 108/185/108 155/273/155 134/231/134
f 108/185/108 134/231/134 133/230/133
s 2
f 136/233/136 135/232/135 109/186/109
f 109/186/109 110/187/110 136/233/136
s 4
f 345/288/345 350/296/350 137/234/137
f 110/187/110 345/288/345 137/234/137
f 110/187/110 137/234/137 136/233/136
f 349/297/349 105/239/105 138/236/138
f 347/293/347 349/297/349 138/236/138
f 111/189/111 347/293/347 138/236/138
s 1
f 57/240/57 168/298/168 348/299/348
f 348/299/348 52/241/52 57/240/57
f 330/260/330 119/208/119 120/209/120
f 120/209/120 329/261/329 330/260/330
s 2
f 157/276/157 150/254/150 139/242/139
f 139/242/139 158/277/158 157/276/157
s 1
f 131/226/131 130/225/130 335/266/335
f 335/266/335 334/267/334 131/226/131
s 4
f 132/227/132 131/226/131 334/267/334
f 334/267/334 333/268/333 132/227/132
s 1
f 125/219/125 132/228/132 333/269/333
f 112/196/112 125/219/125 333/269/333
f 328/265/328 112/196/112 333/269/333
f 70/221/70 126/220/126 332/270/332
f 115/197/115 70/221/70 332/270/332
f 153/259/153 115/197/115 332/270/332
f 60/237/60 49/229/49 162/283/162
f 162/283/162 161/282/161 60/237/60
s 8
f 101/238/101 60/237/60 161/282/161
f 161/282/161 163/284/163 101/238/101
s 4
f 133/230/133 101/238/101 163/284/163
f 108/185/108 133/230/133 163/284/163
f 326/280/326 108/185/108 163/284/163
f 135/232/135 134/231/134 164/285/164
f 109/186/109 135/232/135 164/285/164
f 156/275/156 109/186/109 164/285/164
s 8
f 124/218/124 123/217/123 342/311/342
f 114/195/114 124/218/124 342/311/342
f 338/305/338 114/195/114 342/311/342
s 4
f 174/313/174 128/223/128 127/222/127
f 127/222/127 173/312/173 174/313/174
f 130/225/130 129/224/129 341/314/341
f 335/266/335 130/225/130 341/314/341
f 160/316/160 335/266/335 341/314/341
s 8
f 138/235/138 137/234/137 350/296/350
f 111/188/111 138/235/138 350/296/350
f 344/290/344 111/188/111 350/296/350
f 168/298/168 57/240/57 105/239/105
f 105/239/105 349/297/349 168/298/168
s 4
f 169/300/169 162/283/162 49/229/49
f 49/229/49 52/241/52 348/299/348
f 169/300/169 49/229/49 348/299/348
s 2
f 224/418/224 188/354/188 187/353/187
f 187/353/187 223/417/223 224/418/224
s 1
f 189/355/189 188/354/188 224/418/224
f 189/355/189 224/418/224 229/425/229
f 189/355/189 229/425/229 235/433/235
f 189/355/189 235/433/235 239/441/239
f 189/355/189 239/441/239 268/474/268
f 189/355/189 268/474/268 260/466/260
f 189/355/189 260/466/260 254/458/254
f 189/355/189 254/458/254 247/449/247
f 189/355/189 247/449/247 176/342/176
f 189/355/189 176/342/176 177/343/177
s 2
f 190/356/190 189/355/189 177/343/177
f 177/343/177 178/344/178 190/356/190
s 1
f 191/357/191 190/356/190 178/344/178
f 178/344/178 179/345/179 191/357/191
s 2
f 192/358/192 191/357/191 179/345/179
f 179/345/179 180/346/180 192/358/192
s 1
f 193/359/193 192/358/192 180/346/180
f 180/346/180 181/347/181 193/359/193
s 2
f 194/360/194 193/359/193 181/347/181
f 181/347/181 182/348/182 194/360/194
s 1
f 195/361/195 194/360/194 182/348/182
f 182/348/182 183/349/183 195/361/195
s 2
f 196/362/196 195/366/195 183/365/183
f 183/365/183 184/350/184 196/362/196
s 1
f 184/350/184 185/351/185 248/450/248
f 184/350/184 248/450/248 255/459/255
f 184/350/184 255/459/255 261/467/261
f 184/350/184 261/467/261 269/475/269
f 184/350/184 269/475/269 240/442/240
f 184/350/184 240/442/240 236/434/236
f 184/350/184 236/434/236 230/426/230
f 184/350/184 230/426/230 225/419/225
f 184/350/184 225/419/225 197/363/197
f 184/350/184 197/363/197 196/362/196
s 2
f 226/420/226 198/364/198 197/363/197
f 197/363/197 225/419/225 226/420/226
s 1
f 223/417/223 187/353/187 198/364/198
f 198/364/198 226/420/226 223/417/223
s 4
f 175/317/175 186/328/186 185/327/185
f 175/317/175 185/327/185 184/326/184
f 175/317/175 184/326/184 177/319/177
f 175/317/175 177/319/177 176/318/176
f 195/337/195 196/338/196 189/331/189
f 189/331/189 190/332/190 195/337/195
f 187/329/187 188/330/188 189/331/189
f 187/329/187 189/331/189 196/338/196
f 187/329/187 196/338/196 197/339/197
f 187/329/187 197/339/197 198/340/198
f 193/335/193 194/336/194 195/337/195
f 190/332/190 191/333/191 192/334/192
f 195/337/195 190/332/190 192/334/192
f 193/335/193 195/337/195 192/334/192
f 177/319/177 184/326/184 183/325/183
f 183/325/183 178/320/178 177/319/177
f 180/322/180 179/321/179 178/320/178
f 180/322/180 178/320/178 183/325/183
f 183/325/183 182/324/182 181/323/181
f 180/322/180 183/325/183 181/323/181
s 1
f 212/404/212 211/403/211 199/391/199
f 199/391/199 200/392/200 212/404/212
s 2
f 213/405/213 212/404/212 200/392/200
f 200/392/200 201/393/201 213/405/213
s 1
f 214/406/214 213/405/213 201/393/201
f 201/393/201 202/394/202 214/406/214
s 2
f 202/394/202 203/395/203 250/452/250
f 202/394/202 250/452/250 257/461/257
f 202/394/202 257/461/257 263/469/263
f 202/394/202 263/469/263 271/477/271
f 202/394/202 271/477/271 242/444/242
f 202/394/202 242/444/242 237/436/237
f 202/394/202 237/436/237 232/428/232
f 202/394/202 232/428/232 227/421/227
f 202/394/202 227/421/227 215/407/215
f 202/394/202 215/407/215 214/406/214
s 16
f 303/422/303 216/408/216 215/407/215
f 215/407/215 227/421/227 303/422/303
s 1
f 304/423/304 217/409/217 216/408/216
f 216/408/216 303/422/303 304/423/304
s 2
f 228/424/228 218/410/218 217/409/217
f 217/409/217 304/423/304 228/424/228
s 1
f 219/411/219 218/410/218 228/424/228
f 219/411/219 228/424/228 233/431/233
f 219/411/219 233/431/233 238/439/238
f 219/411/219 238/439/238 245/447/245
f 219/411/219 245/447/245 274/480/274
f 219/411/219 274/480/274 266/472/266
f 219/411/219 266/472/266 258/464/258
f 219/411/219 258/464/258 251/455/251
f 219/411/219 251/455/251 206/398/206
f 219/411/219 206/398/206 207/399/207
s 2
f 220/412/220 219/416/219 207/415/207
f 207/415/207 208/400/208 220/412/220
s 1
f 221/413/221 220/412/220 208/400/208
f 208/400/208 209/401/209 221/413/221
s 2
f 222/414/222 221/413/221 209/401/209
f 209/401/209 210/402/210 222/414/222
s 4
f 211/403/211 222/414/222 210/402/210
f 210/402/210 199/391/199 211/403/211
s 8
f 199/367/199 210/378/210 209/377/209
f 199/367/199 209/377/209 208/376/208
f 207/375/207 206/374/206 205/373/205
f 207/375/207 205/373/205 204/372/204
f 204/372/204 203/371/203 202/370/202
f 207/375/207 204/372/204 202/370/202
f 207/375/207 202/370/202 201/369/201
f 208/376/208 207/375/207 201/369/201
f 199/367/199 208/376/208 201/369/201
f 199/367/199 201/369/201 200/368/200
f 217/385/217 218/386/218 219/387/219
f 221/389/221 222/390/222 211/379/211
f 220/388/220 221/389/221 211/379/211
f 211/379/211 212/380/212 213/381/213
f 220/388/220 211/379/211 213/381/213
f 219/387/219 220/388/220 213/381/213
f 219/387/219 213/381/213 214/382/214
f 214/382/214 215/383/215 216/384/216
f 219/387/219 214/382/214 216/384/216
f 217/385/217 219/387/219 216/384/216
s 2
f 224/418/224 223/417/223 234/432/234
f 234/432/234 229/425/229 224/418/224
f 226/420/226 225/419/225 230/426/230
f 230/426/230 231/427/231 226/420/226
s 16
f 303/422/303 227/421/227 232/428/232
f 232/428/232 302/429/302 303/422/303
s 2
f 228/424/228 304/423/304 305/430/305
f 305/430/305 233/431/233 228/424/228
f 229/425/229 234/432/234 308/440/308
f 308/440/308 235/433/235 229/425/229
f 231/427/231 230/426/230 236/434/236
f 236/434/236 311/435/311 231/427/231
s 1
f 279/487/279 231/427/231 311/435/311
f 311/435/311 312/488/312 279/487/279
s 16
f 302/429/302 232/428/232 237/436/237
f 237/436/237 297/437/297 302/429/302
s 2
f 233/431/233 305/430/305 300/438/300
f 300/438/300 238/439/238 233/431/233
f 235/433/235 308/440/308 246/448/246
f 246/448/246 239/441/239 235/433/235
f 311/435/311 236/434/236 240/442/240
f 240/442/240 241/443/241 311/435/311
s 16
f 297/437/297 237/436/237 242/444/242
f 242/444/242 243/445/243 297/437/297
s 2
f 238/439/238 300/438/300 244/446/244
f 244/446/244 245/447/245 238/439/238
f 239/441/239 246/448/246 267/473/267
f 267/473/267 268/474/268 239/441/239
f 241/443/241 240/442/240 269/475/269
f 269/475/269 270/476/270 241/443/241
s 1
f 246/448/246 241/443/241 270/476/270
f 270/476/270 267/473/267 246/448/246
s 16
f 243/445/243 242/444/242 271/477/271
f 271/477/271 272/478/272 243/445/243
s 1
f 244/446/244 243/445/243 272/478/272
f 272/478/272 273/479/273 244/446/244
s 2
f 245/447/245 244/446/244 273/479/273
f 273/479/273 274/480/274 245/447/245
f 247/449/247 252/456/252 175/341/175
f 175/341/175 176/342/176 247/449/247
f 249/451/249 248/450/248 185/351/185
f 185/351/185 186/352/186 249/451/249
s 1
f 252/456/252 249/451/249 186/352/186
f 186/352/186 175/341/175 252/456/252
s 16
f 292/453/292 250/452/250 203/395/203
f 203/395/203 204/396/204 292/453/292
s 1
f 293/454/293 292/453/292 204/396/204
f 204/396/204 205/397/205 293/454/293
s 2
f 251/455/251 293/454/293 205/397/205
f 205/397/205 206/398/206 251/455/251
f 254/458/254 253/457/253 252/456/252
f 252/456/252 247/449/247 254/458/254
f 256/460/256 255/459/255 248/450/248
f 248/450/248 249/451/249 256/460/256
s 1
f 249/451/249 252/456/252 253/457/253
f 249/451/249 253/457/253 276/483/276
f 249/451/249 276/483/276 280/489/280
f 249/451/249 280/489/280 256/460/256
s 16
f 291/462/291 257/461/257 250/452/250
f 250/452/250 292/453/292 291/462/291
s 2
f 258/464/258 294/463/294 293/454/293
f 293/454/293 251/455/251 258/464/258
f 260/466/260 259/465/259 253/457/253
f 253/457/253 254/458/254 260/466/260
f 262/468/262 261/467/261 255/459/255
f 255/459/255 256/460/256 262/468/262
s 1
f 281/490/281 262/468/262 256/460/256
f 256/460/256 280/489/280 281/490/281
s 16
f 264/470/264 263/469/263 257/461/257
f 257/461/257 291/462/291 264/470/264
s 1
f 278/486/278 264/470/264 291/462/291
f 291/462/291 290/484/290 278/486/278
s 2
f 266/472/266 265/471/265 294/463/294
f 294/463/294 258/464/258 266/472/266
f 268/474/268 267/473/267 259/465/259
f 259/465/259 260/466/260 268/474/268
f 270/476/270 269/475/269 261/467/261
f 261/467/261 262/468/262 270/476/270
s 1
f 277/485/277 259/465/259 267/473/267
f 267/473/267 270/476/270 262/468/262
f 267/473/267 262/468/262 281/490/281
f 277/485/277 267/473/267 281/490/281
s 16
f 272/478/272 271/477/271 263/469/263
f 263/469/263 264/470/264 272/478/272
s 2
f 274/480/274 273/479/273 265/471/265
f 265/471/265 266/472/266 274/480/274
s 1
f 275/481/275 307/482/307 308/440/308
f 308/440/308 234/432/234 275/481/275
f 277/485/277 276/483/276 253/457/253
f 253/457/253 259/465/259 277/485/277
f 281/490/281 280/489/280 276/483/276
f 276/483/276 277/485/277 281/490/281
f 296/492/296 295/491/295 294/463/294
f 294/463/294 265/471/265 296/492/296
f 301/496/301 302/493/302 297/494/297
f 297/494/297 298/495/298 301/496/301
f 306/500/306 299/497/299 300/498/300
f 300/498/300 305/499/305 306/500/306
s 16
f 325/571/325 156/572/156 287/506/287
f 264/519/264 325/571/325 287/506/287
f 272/531/272 264/519/264 287/506/287
s 2
f 264/519/264 278/520/278 288/507/288
f 288/507/288 155/574/155 325/571/325
f 264/519/264 288/507/288 325/571/325
s 16
f 159/576/159 326/577/326 288/507/288
f 290/521/290 159/576/159 288/507/288
f 278/520/278 290/521/290 288/507/288
f 337/601/337 338/602/338 286/508/286
f 265/529/265 337/601/337 286/508/286
f 296/528/296 265/529/265 286/508/286
s 2
f 265/529/265 273/530/273 289/509/289
f 289/509/289 170/604/170 337/601/337
f 265/529/265 289/509/289 337/601/337
s 4
f 287/506/287 289/509/289 273/530/273
f 273/530/273 272/531/272 287/506/287
s 8
f 290/521/290 291/522/291 158/579/158
f 158/579/158 159/576/159 290/521/290
s 16
f 291/522/291 292/523/292 157/580/157
f 157/580/157 158/579/158 291/522/291
s 8
f 172/606/172 154/617/154 157/580/157
f 293/524/293 172/606/172 157/580/157
f 292/523/292 293/524/293 157/580/157
f 295/526/295 340/608/340 339/607/339
f 339/607/339 294/525/294 295/526/295
s 2
f 286/508/286 171/610/171 340/609/340
f 286/508/286 340/609/340 295/527/295
f 296/528/296 286/508/286 295/527/295
f 343/619/343 344/620/344 282/514/282
f 316/561/316 343/619/343 282/514/282
f 315/560/315 316/561/316 282/514/282
s 16
f 316/561/316 317/562/317 283/515/283
f 283/515/283 345/622/345 343/619/343
f 316/561/316 283/515/283 343/619/343
s 1
f 284/516/284 283/515/283 317/562/317
f 317/562/317 318/563/318 284/516/284
s 16
f 151/585/151 153/586/153 284/516/284
f 319/564/319 151/585/151 284/516/284
f 318/563/318 319/564/319 284/516/284
s 2
f 319/564/319 320/565/320 285/517/285
f 285/517/285 152/588/152 151/585/151
f 319/564/319 285/517/285 151/585/151
s 8
f 327/590/327 328/591/328 285/518/285
f 321/567/321 327/590/327 285/518/285
f 320/566/320 321/567/321 285/518/285
f 314/559/314 166/626/166 346/625/346
f 346/625/346 313/558/313 314/559/314
s 16
f 282/514/282 347/627/347 166/626/166
f 282/514/282 166/626/166 314/559/314
f 315/560/315 282/514/282 314/559/314
s 2
f 321/567/321 322/568/322 329/593/329
f 329/593/329 327/590/327 321/567/321
s 8
f 322/568/322 323/569/323 330/594/330
f 330/594/330 329/593/329 322/568/322
s 16
f 324/570/324 167/624/167 154/629/154
f 154/629/154 331/595/331 330/594/330
f 324/570/324 154/629/154 330/594/330
f 323/569/323 324/570/324 330/594/330
f 156/573/156 164/581/164 297/533/297
f 287/510/287 156/573/156 297/533/297
f 287/510/287 297/533/297 243/532/243
f 163/582/163 301/538/301 298/534/298
f 326/578/326 163/582/163 298/534/298
f 288/511/288 326/578/326 298/534/298
f 302/539/302 161/583/161 162/584/162
f 162/584/162 303/540/303 302/539/302
s 32
f 338/603/338 342/616/342 300/536/300
f 286/512/286 338/603/338 300/536/300
f 286/512/286 300/536/300 299/535/299
s 8
f 243/532/243 244/537/244 289/513/289
f 289/513/289 287/510/287 243/532/243
s 32
f 344/621/344 350/633/350 308/547/308
f 282/501/282 344/621/344 308/547/308
f 282/501/282 308/547/308 307/546/307
s 2
f 310/549/310 309/548/309 283/502/283
f 283/502/283 284/503/284 310/549/310
s 16
f 153/587/153 332/596/332 311/550/311
f 284/503/284 153/587/153 311/550/311
f 284/503/284 311/550/311 310/549/310
s 8
f 333/597/333 279/555/279 312/552/312
f 328/592/328 333/597/333 312/552/312
f 285/505/285 328/592/328 312/552/312
s 2
f 231/556/231 334/598/334 335/599/335
f 335/599/335 226/557/226 231/556/231
s 32
f 298/534/298 297/533/297 164/581/164
f 288/511/288 298/534/298 164/581/164
f 155/575/155 288/511/288 164/581/164
s 2
f 161/583/161 302/539/302 301/538/301
f 301/538/301 163/582/163 161/583/161
s 32
f 312/551/312 311/550/311 332/596/332
f 285/504/285 312/551/312 332/596/332
f 152/589/152 285/504/285 332/596/332
s 16
f 334/598/334 231/556/231 279/555/279
f 279/555/279 333/597/333 334/598/334
s 8
f 169/634/169 348/631/348 223/545/223
f 223/545/223 226/557/226 335/599/335
f 169/634/169 223/545/223 335/599/335
f 336/600/336 169/634/169 335/599/335
s 2
f 172/606/172 293/524/293 294/525/294
f 294/525/294 339/607/339 172/606/172
s 4
f 167/624/167 324/570/324 313/558/313
f 313/558/313 346/625/346 167/624/167
s 2
f 305/542/305 304/541/304 341/612/341
f 341/612/341 174/613/174 305/542/305
s 8
f 306/543/306 305/542/305 174/613/174
f 174/613/174 173/614/173 306/543/306
s 2
f 299/535/299 306/544/306 173/615/173
f 286/512/286 299/535/299 173/615/173
f 171/611/171 286/512/286 173/615/173
f 244/537/244 300/536/300 342/616/342
f 289/513/289 244/537/244 342/616/342
f 170/605/170 289/513/289 342/616/342
f 234/553/234 223/545/223 348/631/348
f 348/631/348 168/630/168 234/553/234
s 32
f 275/554/275 234/553/234 168/630/168
f 168/630/168 349/632/349 275/554/275
s 16
f 307/546/307 275/554/275 349/632/349
f 282/501/282 307/546/307 349/632/349
f 347/628/347 282/501/282 349/632/349
f 309/548/309 308/547/308 350/633/350
f 283/502/283 309/548/309 350/633/350
f 345/623/345 283/502/283 350/633/350
s 8
f 304/541/304 303/540/303 162/584/162
f 304/541/304 162/584/162 160/618/160
f 341/612/341 304/541/304 160/618/160
# 686 faces

g
